<svg width="796" height="662" fill="none" xmlns="http://www.w3.org/2000/svg"><circle cx="774" cy="640" r="22" fill="#F68B93"/><circle cx="477.5" cy="17.5" r="17.5" fill="#F68BB2"/><circle cx="34.5" cy="154.5" r="34.5" fill="#F68BA5"/><path fill-rule="evenodd" clip-rule="evenodd" d="M416 521a222 222 0 10-162-70 60 60 0 1069 50c29 13 60 20 93 20z" fill="url(#paint0_linear)" fill-opacity=".6"/><path d="M623 390c-18-8-31-16-31-16l1-1a181 181 0 00103 28c55-4 39-107-40-183-14 19-37 38-60 34-44-7 29-59 60-36 23-32 33-83-8-84-10 34-53 50-55 32-2-15 30-33 55-33 2-7 2-16 0-27-7-25-17-39-23-45-8-7-14-7-14-7l1-1s6 1 13 7c7 7 16 20 23 46 3 10 3 19 0 27 41 2 33 52 9 86 21 19 35 35 59 82 22 45 22 100-20 103-25 2-50-3-73-12zm-27-139c23 4 46-14 60-34-30-23-102 27-60 34zm9-105c-8 6-12 12-11 18 2 16 43 1 53-32 0 0-31 6-42 14z" fill="#8C90DD"/><path d="M613 54h-1l-40-19a3 3 0 01-2-3 2 2 0 013-2l41 19a3 3 0 011 4 2 2 0 01-2 1z" fill="#000"/><path d="M574 34c-3 5-9 8-13 6-5-3-6-9-3-15 2-6 9-9 13-6 5 2 6 9 3 15z" fill="#C5C6FE"/><path d="M576 27c1 9-8 17-15 13 7 2 14-5 15-13zM560 25v-1s6-3 11-1c-5-2-11 1-11 2zM561 27s5-4 10-2v1c-5-2-10 1-10 1zM561 30s6-4 11-2v1c-5-2-10 1-11 1z" fill="#8C90DD"/><path d="M565 32s-4-5-3-10v-1h1v1c-2 5 2 10 2 10zM568 32h-1c0-1-4-6-2-11-1 5 3 10 3 10v1zM571 31h-1v-1s-4-5-2-10c-1 5 3 10 3 10v1z" fill="#8C90DD"/><path d="M709 575c0 5-94 10-209 10-116 0-209-5-209-10 0-6 93-10 209-10 115 0 209 4 209 10z" fill="#EBA0CD"/><path d="M305 125s0-10-2-12-4-9-4-11l2-4 5-2c1 0-5-14-3-15 3-1 5 15 7 15 1 0 1-17 3-17s0 21 1 22-2 19-2 19l-7 5z" fill="#E77673"/><path d="M306 95v1s2 5 1 7c-1 1-4-6-4-6s3 6 2 7c-2 1-4-6-4-6l2 6c0 2-4-2-4-2v-4c1-2 2-1 3-2l4-1z" fill="#FFC3BF"/><path d="M313 101s-6-2-8-1c-1 1 6 4 7 6l1 4c1 0 2-8 1-9h-1z" fill="#FFC3BF"/><path d="M501 186s-23 8-46 6l-16-2c-27-3-55-4-55-4l2 11s35 15 62 20c21 5 43 2 52 2 20 0 13-33 1-33z" fill="#FF9739"/><path d="M496 188s-23 32-32 32-25-30-25-30l-2 46s9 16 28 16 47-67 47-67l-16 3z" fill="#4F2364"/><path d="M562 339v231h-15l-20-219-6-27 41 15zM503 566s3 11 2 15c-2 4-29 5-30-1-2-7 12-7 18-7l1-7h9z" fill="#0F1D5B"/><path d="M547 566s-2 13 3 15c4 2 28 6 29-2 2-7-21-9-21-9l-2-4h-9z" fill="#0F1D5B"/><path d="M498 337l-4 13-7 218h18l34-231h-41z" fill="url(#paint1_linear)"/><path d="M602 38s-11-11-16-10c-4 1-1 5-2 6-2 2-3 4-3 7l-1 6c-1 0 1 4 3 5 1 2 11 3 11 8l1 31h13l-6-53z" fill="#FFC3BF"/><path d="M588 87s1 37-3 46c-7 15-32 44-32 44l15 37s29-43 38-72c3-13 7-55 7-55-5-4-20-4-25 0z" fill="#FBCE5D"/><path d="M449 575l-2-1v-3l-8 1-2 7s-2 4 0 6c2 1 27 5 32 0 4-6-15-8-20-10z" fill="#6E1D6B"/><path d="M444 333l-34 36 3 7s19 78 19 86l2 110 15-1 3-110-8-128z" fill="#241367"/><path d="M380 324c1 5-12 120-12 120l-17 125h10c-3-8 31-106 31-106l26-82 15-33a38 38 0 0014-28c-20-2-67 4-67 4z" fill="url(#paint2_linear)"/><path d="M361 569h-10s-6 17-4 21 18 3 22 0c3-3-6-13-8-21z" fill="#6E1D6B"/><path d="M374 355c-2-16-1-96-2-126l6-38c2 0 20-3 34-3l27 2s6 20 6 40c0 11 5 83 3 115-19 3-55 10-74 10z" fill="url(#paint3_linear)"/><path d="M439 190c4 13 6 26 7 39 0 23 5 81 2 116 1-37-4-99-4-116 0-13-2-27-5-39z" fill="#95719C"/><path d="M425 162c-3 2-7 2-11 2 0 0 4 4 6 4 3 0 5-6 5-6z" fill="#fff"/><path d="M380 190s-2 12 0 12 3-9 3-9 0 12 1 11c2 0 3-11 3-11l2 11c2 1 2-11 2-11l2 7 3-10c1-4-3-4-7-4h-5c-3 0-4 4-4 4z" fill="#E77673"/><path d="M393 143a10 10 0 00-8-1v1a9 9 0 018 0zM384 150c0-2 2-4 3-5l4-1h2-3c-3 0-6 2-7 5l1 1z" fill="#1B2B80"/><path d="M415 176s-1 17 4 25a4 4 0 01-4 6l-7-1c-3-1-8-4-9-7-3-12 3-33 3-33l13 10z" fill="#FFC3BF"/><path d="M400 173l2-7 13 10v10c-4-1-10-4-15-13z" fill="#E77673"/><path d="M419 136s3-1 5 2c3 4 5 16 3 27s-4 16-9 16c-4 0-13-2-20-18-7-15-4-32 21-27z" fill="#FFC3BF"/><path d="M420 145c1 0 6 1 8-9 1-10-9-23-17-19-7 3 2 9 2 9s-5-3-7 0v6c0 1-6-6-11-1-6 6-2 9-3 13-2 3-8 7-2 18 3 4 7 7 11 8l-1-9c0-4 4 0 4 0s-2-1-2-6l-2-10c0-1 0-4 5-2s15 2 15 2z" fill="#1B2B80"/><path d="M418 165h0l4-1-1-10 2 11h-5zM408 154c3-5 8-2 8-2s-5-2-8 2zM426 149h1l-1 1a3 3 0 00-3 2s0-3 3-3z" fill="#172866"/><path d="M415 169c1 2 5 2 7 2-6 2-9-1-8-2a1 1 0 011 0z" fill="#fff"/><path d="M422 155a5 5 0 105-5 5 5 0 00-5 5zM410 156a5 5 0 105-6 5 5 0 00-5 6z" fill="#172866"/><g opacity=".3" fill="#757AD8"><path opacity=".3" d="M424 151l8 7-1 1-8-7 1-1zM423 153l7 7h-1l-7-6 1-1z"/></g><g opacity=".7" fill="#757AD8"><path opacity=".7" d="M412 152l7 7-1 1-7-7 1-1zM410 154l7 6v1l-7-6v-1z"/></g><path d="M422 155h-2v1h2v-1zM410 156c0-1-5-2-9-1a19 19 0 019 1z" fill="#172866"/><path d="M405 163s1-7-5-8c-5-2-5 4-2 7 3 4 7 1 7 1z" fill="#FFC3BF"/><path d="M400 157c2-1 3 2 3 3 1 1 1 2-1 2s-4-5-2-5z" fill="#E77673"/><path d="M501 186s-22 9-42 9l4 25c18 2 30-1 37-1 20 0 13-33 1-33z" fill="#FF9739"/><path d="M520 184s-18 0-24 6c-6 5-9 164-9 164s82-3 82-7c1-23 1-110-1-133 0-14-5-27-13-39-10 0-35 9-35 9z" fill="url(#paint4_linear)"/><path d="M496 188s0 13 2 12c2 0 2-9 2-9s1 11 3 11c2-1 1-12 1-12l3 10c2 1 1-11 1-11l2 7 2-11c0-3-4-3-7-2l-6 1c-3 0-3 4-3 4zM531 139s2-6 5-6 4 9 1 10c-3 2-6 0-6-4z" fill="#E77673"/><path d="M510 152s6 28 9 33c4 5 15 5 19 1l-4-24-24-10z" fill="#FFC3BF"/><path d="M535 169l-1-7-24-10 3 12 10 7c5 2 9 1 12-2z" fill="#E77673"/><path d="M523 118s7 0 9 5c3 4 9 28 7 35-1 6-7 9-15 6s-19-12-21-22c-3-9 7-27 20-24z" fill="#FFC3BF"/><path d="M514 115c-4 2-16-1-18 9-2 11 4 11 3 15 0 4 1 5 4 11s6 8 7 9l2 1-2-8s-4-3-4-6c1-2 5 0 6-2s-6-15 4-20c8-4 16-2 18 4 3-1-3-22-20-13z" fill="#111F59"/><path d="M511 146s-3-4-6-3c-2 2-1 10 3 10 3 0 6-3 3-7z" fill="#FFC3BF"/><path d="M510 146s-5-2-5 0c-1 3 2 6 4 4 3-2 1-4 1-4z" fill="#E77673"/><path d="M523 155c5 1 10-1 13-4l-2 3a13 13 0 01-11 1z" fill="#fff"/><path d="M514 143l2-5c3-3 6-1 6-1l1 1h-1a5 5 0 00-5 0c-2 1-2 3-3 5v1-1zM528 135c1-3 7-2 7-1h-3l-3 1h-1z" fill="#172866"/><path d="M531 147l-3-2-1 2 1-1 3 1z" fill="#18287D"/><path d="M511 129s3-7 2-10c0-2-1-3-3-3l-2 1-3 2v-6c2-3 5-4 7-3h1l1 1v-1l-2-1-2-1c0-2 1-2 2-2h4c2 0 3 3 4 4l-1 3s2-1 2-3-3-3-1-5c1-2 9-1 7 7h1l1-1c1-2-2-4 2-4 5 0 13 15 3 21 0 0-1-5-9-5s-14 6-14 6z" fill="#1B2B80"/><path d="M515 142a5 5 0 107-4 6 6 0 00-7 4z" fill="#172866"/><g opacity=".7" fill="#757AD8"><path opacity=".7" d="M518 138l6 9-1 1-6-9 1-1zM516 140l6 9-6-8v-1z"/></g><path d="M528 138a5 5 0 107-4 6 6 0 00-7 4z" fill="#172866"/><g opacity=".7" fill="#757AD8"><path opacity=".7" d="M531 134l6 9-1 1-6-9 1-1zM529 136l6 9h-1l-5-8v-1z"/></g><path d="M529 140l-4 1v1l4-1v-1zM510 143v1l6 1-6-2z" fill="#172866"/><path d="M378 191s0 22-6 38l-47-38c-16-13-24-71-24-71l16-6s8 48 24 61c20 17 37 16 37 16z" fill="url(#paint5_linear)"/><path d="M289 115a1 1 0 01-1-1c-15-22-5-35-5-35a1 1 0 011-1 1 1 0 010 1s-9 13 5 35v1zM551 151a1 1 0 010-1 99 99 0 0018-98 1 1 0 011 0 1 1 0 011 1 101 101 0 01-20 98z" fill="#411AC0"/><defs><linearGradient id="paint0_linear" x1="416" y1="77" x2="416" y2="570" gradientUnits="userSpaceOnUse"><stop stop-color="#F25A63"/><stop offset="1" stop-color="#F25AC8"/></linearGradient><linearGradient id="paint1_linear" x1="513.2" y1="336.5" x2="394" y2="605" gradientUnits="userSpaceOnUse"><stop stop-color="#361A87"/><stop offset="1" stop-color="#1B4A75"/></linearGradient><linearGradient id="paint2_linear" x1="398.9" y1="319.2" x2="398.9" y2="569.1" gradientUnits="userSpaceOnUse"><stop offset=".4" stop-color="#572774"/><stop offset="1" stop-color="#C66B65"/></linearGradient><linearGradient id="paint3_linear" x1="347.4" y1="211.5" x2="457.9" y2="363.1" gradientUnits="userSpaceOnUse"><stop offset=".3" stop-color="#BE5EEB"/><stop offset="1" stop-color="#6834D7"/></linearGradient><linearGradient id="paint4_linear" x1="528.3" y1="174.9" x2="528.3" y2="353.5" gradientUnits="userSpaceOnUse"><stop stop-color="#F9B406"/><stop offset="1" stop-color="#E18700"/></linearGradient><linearGradient id="paint5_linear" x1="339.5" y1="113.9" x2="339.5" y2="229.1" gradientUnits="userSpaceOnUse"><stop stop-color="#E37B7B"/><stop offset="1" stop-color="#BE5EEB"/></linearGradient></defs></svg>