<svg width="132" height="100" viewBox="0 0 132 100" fill="none" xmlns="http://www.w3.org/2000/svg">
<path d="M39.72 39.16C38.5893 39.16 37.5653 38.9147 36.648 38.424C35.7413 37.9227 35.0267 37.2347 34.504 36.36C33.992 35.4853 33.736 34.4987 33.736 33.4C33.736 32.3013 33.9973 31.3147 34.52 30.44C35.0427 29.5653 35.7573 28.8827 36.664 28.392C37.5813 27.8907 38.6053 27.64 39.736 27.64C40.6533 27.64 41.4907 27.8 42.248 28.12C43.0053 28.44 43.6453 28.904 44.168 29.512L42.824 30.776C42.0133 29.9013 41.016 29.464 39.832 29.464C39.064 29.464 38.376 29.6347 37.768 29.976C37.16 30.3067 36.6853 30.7707 36.344 31.368C36.0027 31.9653 35.832 32.6427 35.832 33.4C35.832 34.1573 36.0027 34.8347 36.344 35.432C36.6853 36.0293 37.16 36.4987 37.768 36.84C38.376 37.1707 39.064 37.336 39.832 37.336C41.016 37.336 42.0133 36.8933 42.824 36.008L44.168 37.288C43.6453 37.896 43 38.36 42.232 38.68C41.4747 39 40.6373 39.16 39.72 39.16ZM49.4273 35.576H47.8753V39H45.8753V30.456H47.8753V33.912H49.4753L52.0033 30.456H54.1473L51.0433 34.568L54.3553 39H52.0033L49.4273 35.576ZM63.7056 30.456V39H61.8016V37.912C61.4816 38.296 61.0816 38.5947 60.6016 38.808C60.1323 39.0107 59.6203 39.112 59.0656 39.112C57.9243 39.112 57.023 38.7973 56.3616 38.168C55.7003 37.528 55.3696 36.584 55.3696 35.336V30.456H57.3696V35.064C57.3696 35.832 57.5403 36.408 57.8816 36.792C58.2336 37.1653 58.735 37.352 59.3856 37.352C60.0896 37.352 60.6496 37.1333 61.0656 36.696C61.4923 36.248 61.7056 35.608 61.7056 34.776V30.456H63.7056ZM77.7025 34.712C77.7025 36.0347 77.2598 37.0747 76.3745 37.832C75.4998 38.5893 74.2465 39.0213 72.6145 39.128V42.104H70.7265V39.144C69.0945 39.0373 67.8412 38.6053 66.9665 37.848C66.0918 37.0907 65.6545 36.0453 65.6545 34.712C65.6545 33.3893 66.0918 32.36 66.9665 31.624C67.8412 30.8773 69.0945 30.4507 70.7265 30.344V27.128H72.6145V30.344C74.2465 30.4507 75.4998 30.8773 76.3745 31.624C77.2598 32.3707 77.7025 33.4 77.7025 34.712ZM67.6225 34.712C67.6225 35.5333 67.8732 36.1733 68.3745 36.632C68.8865 37.0907 69.6705 37.368 70.7265 37.464V32.04C69.6705 32.1253 68.8865 32.392 68.3745 32.84C67.8732 33.288 67.6225 33.912 67.6225 34.712ZM72.6145 37.464C74.7052 37.272 75.7505 36.3547 75.7505 34.712C75.7505 33.9013 75.4892 33.2773 74.9665 32.84C74.4545 32.392 73.6705 32.1253 72.6145 32.04V37.464Z" fill="black"/>
<path opacity="0.6" d="M44.832 53.6V62H34.308V53.6H35.496V60.956H38.988V53.6H40.164V60.956H43.656V53.6H44.832ZM49.7247 59.312H48.4047V62H47.2527V55.64H48.4047V58.328H49.7487L51.8127 55.64H53.0487L50.6367 58.7L53.2167 62H51.8607L49.7247 59.312ZM56.9377 62.072C56.3057 62.072 55.7377 61.932 55.2337 61.652C54.7297 61.372 54.3337 60.988 54.0457 60.5C53.7657 60.004 53.6257 59.444 53.6257 58.82C53.6257 58.196 53.7657 57.64 54.0457 57.152C54.3337 56.656 54.7297 56.272 55.2337 56C55.7377 55.72 56.3057 55.58 56.9377 55.58C57.5697 55.58 58.1337 55.72 58.6297 56C59.1337 56.272 59.5257 56.656 59.8057 57.152C60.0937 57.64 60.2377 58.196 60.2377 58.82C60.2377 59.444 60.0937 60.004 59.8057 60.5C59.5257 60.988 59.1337 61.372 58.6297 61.652C58.1337 61.932 57.5697 62.072 56.9377 62.072ZM56.9377 61.064C57.3457 61.064 57.7097 60.972 58.0297 60.788C58.3577 60.596 58.6137 60.332 58.7977 59.996C58.9817 59.652 59.0737 59.26 59.0737 58.82C59.0737 58.38 58.9817 57.992 58.7977 57.656C58.6137 57.312 58.3577 57.048 58.0297 56.864C57.7097 56.68 57.3457 56.588 56.9377 56.588C56.5297 56.588 56.1617 56.68 55.8337 56.864C55.5137 57.048 55.2577 57.312 55.0657 57.656C54.8817 57.992 54.7897 58.38 54.7897 58.82C54.7897 59.26 54.8817 59.652 55.0657 59.996C55.2577 60.332 55.5137 60.596 55.8337 60.788C56.1617 60.972 56.5297 61.064 56.9377 61.064ZM67.3143 55.64V62H66.1623V56.648H63.4263L63.3543 58.064C63.3143 58.92 63.2383 59.636 63.1263 60.212C63.0143 60.78 62.8303 61.236 62.5743 61.58C62.3183 61.924 61.9623 62.096 61.5063 62.096C61.2983 62.096 61.0623 62.06 60.7983 61.988L60.8703 61.016C60.9743 61.04 61.0703 61.052 61.1583 61.052C61.4783 61.052 61.7183 60.912 61.8783 60.632C62.0383 60.352 62.1423 60.02 62.1903 59.636C62.2383 59.252 62.2823 58.704 62.3223 57.992L62.4303 55.64H67.3143ZM75.5178 55.64V62H74.4138V60.992C74.1578 61.344 73.8338 61.612 73.4418 61.796C73.0498 61.98 72.6178 62.072 72.1458 62.072C71.5298 62.072 70.9778 61.936 70.4898 61.664C70.0018 61.392 69.6178 61.012 69.3378 60.524C69.0658 60.028 68.9298 59.46 68.9298 58.82C68.9298 58.18 69.0658 57.616 69.3378 57.128C69.6178 56.64 70.0018 56.26 70.4898 55.988C70.9778 55.716 71.5298 55.58 72.1458 55.58C72.6018 55.58 73.0218 55.668 73.4058 55.844C73.7898 56.012 74.1098 56.264 74.3658 56.6V55.64H75.5178ZM72.2418 61.064C72.6418 61.064 73.0058 60.972 73.3338 60.788C73.6618 60.596 73.9178 60.332 74.1018 59.996C74.2858 59.652 74.3778 59.26 74.3778 58.82C74.3778 58.38 74.2858 57.992 74.1018 57.656C73.9178 57.312 73.6618 57.048 73.3338 56.864C73.0058 56.68 72.6418 56.588 72.2418 56.588C71.8338 56.588 71.4658 56.68 71.1378 56.864C70.8178 57.048 70.5618 57.312 70.3698 57.656C70.1858 57.992 70.0938 58.38 70.0938 58.82C70.0938 59.26 70.1858 59.652 70.3698 59.996C70.5618 60.332 70.8178 60.596 71.1378 60.788C71.4658 60.972 71.8338 61.064 72.2418 61.064ZM88.2761 55.64V62H87.2321V57.356L84.8561 61.28H84.3521L82.0001 57.344V62H80.9441V55.64H82.1321L84.6281 59.936L87.1961 55.64H88.2761ZM96.4223 55.64V61.136C96.4223 62.248 96.1623 63.068 95.6423 63.596C95.1223 64.132 94.3423 64.4 93.3023 64.4C92.7343 64.4 92.1903 64.316 91.6703 64.148C91.1583 63.988 90.7383 63.756 90.4103 63.452L90.9743 62.564C91.2543 62.82 91.5903 63.02 91.9823 63.164C92.3823 63.308 92.8023 63.38 93.2423 63.38C93.9383 63.38 94.4503 63.204 94.7783 62.852C95.1063 62.508 95.2703 61.976 95.2703 61.256V60.788C95.0383 61.092 94.7383 61.328 94.3703 61.496C94.0023 61.656 93.6023 61.736 93.1703 61.736C92.3223 61.736 91.6543 61.504 91.1663 61.04C90.6783 60.576 90.4343 59.888 90.4343 58.976V55.64H91.5863V58.844C91.5863 59.452 91.7343 59.916 92.0303 60.236C92.3263 60.548 92.7503 60.704 93.3023 60.704C93.9103 60.704 94.3903 60.52 94.7423 60.152C95.0943 59.784 95.2703 59.264 95.2703 58.592V55.64H96.4223ZM101.978 58.688C102.402 58.8 102.73 58.98 102.962 59.228C103.194 59.476 103.31 59.784 103.31 60.152C103.31 60.528 103.182 60.864 102.926 61.16C102.67 61.448 102.314 61.676 101.858 61.844C101.41 62.004 100.906 62.084 100.346 62.084C99.874 62.084 99.41 62.024 98.954 61.904C98.506 61.776 98.106 61.596 97.754 61.364L98.102 60.488C98.406 60.68 98.754 60.832 99.146 60.944C99.538 61.048 99.934 61.1 100.334 61.1C100.878 61.1 101.31 61.008 101.63 60.824C101.958 60.632 102.122 60.376 102.122 60.056C102.122 59.76 101.99 59.532 101.726 59.372C101.47 59.212 101.106 59.132 100.634 59.132H99.47V58.304H100.55C100.982 58.304 101.322 58.228 101.57 58.076C101.818 57.924 101.942 57.716 101.942 57.452C101.942 57.164 101.794 56.94 101.498 56.78C101.21 56.62 100.818 56.54 100.322 56.54C99.69 56.54 99.022 56.704 98.318 57.032L98.006 56.144C98.782 55.752 99.594 55.556 100.442 55.556C100.954 55.556 101.414 55.628 101.822 55.772C102.23 55.916 102.55 56.12 102.782 56.384C103.014 56.648 103.13 56.948 103.13 57.284C103.13 57.596 103.026 57.876 102.818 58.124C102.61 58.372 102.33 58.56 101.978 58.688ZM107.701 62.144C106.789 62.144 106.093 61.928 105.613 61.496C105.141 61.056 104.905 60.428 104.905 59.612V55.64H106.057V58.1C106.241 57.916 106.497 57.76 106.825 57.632C107.161 57.504 107.545 57.44 107.977 57.44C108.753 57.44 109.357 57.64 109.789 58.04C110.229 58.432 110.449 58.984 110.449 59.696C110.449 60.448 110.201 61.044 109.705 61.484C109.209 61.924 108.541 62.144 107.701 62.144ZM111.373 55.64H112.525V62H111.373V55.64ZM107.713 61.268C108.209 61.268 108.593 61.124 108.865 60.836C109.145 60.54 109.285 60.164 109.285 59.708C109.285 59.284 109.145 58.94 108.865 58.676C108.585 58.412 108.185 58.28 107.665 58.28C107.289 58.28 106.961 58.356 106.681 58.508C106.409 58.66 106.201 58.872 106.057 59.144V59.708C106.057 60.196 106.197 60.58 106.477 60.86C106.765 61.132 107.177 61.268 107.713 61.268ZM117.225 59.312H115.905V62H114.753V55.64H115.905V58.328H117.249L119.313 55.64H120.549L118.137 58.7L120.717 62H119.361L117.225 59.312ZM127.603 55.64V62H126.499V61.064C126.267 61.384 125.963 61.632 125.587 61.808C125.211 61.984 124.799 62.072 124.351 62.072C123.503 62.072 122.835 61.84 122.347 61.376C121.859 60.904 121.615 60.212 121.615 59.3V55.64H122.767V59.168C122.767 59.784 122.915 60.252 123.211 60.572C123.507 60.884 123.931 61.04 124.483 61.04C125.091 61.04 125.571 60.856 125.923 60.488C126.275 60.12 126.451 59.6 126.451 58.928V55.64H127.603ZM39.912 70.64V77H38.808V76.064C38.576 76.384 38.272 76.632 37.896 76.808C37.52 76.984 37.108 77.072 36.66 77.072C35.812 77.072 35.144 76.84 34.656 76.376C34.168 75.904 33.924 75.212 33.924 74.3V70.64H35.076V74.168C35.076 74.784 35.224 75.252 35.52 75.572C35.816 75.884 36.24 76.04 36.792 76.04C37.4 76.04 37.88 75.856 38.232 75.488C38.584 75.12 38.76 74.6 38.76 73.928V70.64H39.912ZM49.7097 73.7C50.5337 73.908 50.9457 74.424 50.9457 75.248C50.9457 75.808 50.7337 76.24 50.3097 76.544C49.8937 76.848 49.2697 77 48.4377 77H45.3777V70.64H48.3297C49.0817 70.64 49.6697 70.784 50.0937 71.072C50.5177 71.352 50.7297 71.752 50.7297 72.272C50.7297 72.608 50.6377 72.9 50.4537 73.148C50.2777 73.388 50.0297 73.572 49.7097 73.7ZM46.5057 73.376H48.2337C48.6737 73.376 49.0057 73.296 49.2297 73.136C49.4617 72.976 49.5777 72.744 49.5777 72.44C49.5777 71.832 49.1297 71.528 48.2337 71.528H46.5057V73.376ZM48.3537 76.112C48.8337 76.112 49.1937 76.036 49.4337 75.884C49.6737 75.732 49.7937 75.496 49.7937 75.176C49.7937 74.848 49.6817 74.604 49.4577 74.444C49.2417 74.284 48.8977 74.204 48.4257 74.204H46.5057V76.112H48.3537ZM55.4728 77.072C54.8408 77.072 54.2728 76.932 53.7688 76.652C53.2648 76.372 52.8688 75.988 52.5808 75.5C52.3008 75.004 52.1608 74.444 52.1608 73.82C52.1608 73.196 52.3008 72.64 52.5808 72.152C52.8688 71.656 53.2648 71.272 53.7688 71C54.2728 70.72 54.8408 70.58 55.4728 70.58C56.1048 70.58 56.6688 70.72 57.1648 71C57.6688 71.272 58.0608 71.656 58.3408 72.152C58.6288 72.64 58.7728 73.196 58.7728 73.82C58.7728 74.444 58.6288 75.004 58.3408 75.5C58.0608 75.988 57.6688 76.372 57.1648 76.652C56.6688 76.932 56.1048 77.072 55.4728 77.072ZM55.4728 76.064C55.8808 76.064 56.2448 75.972 56.5648 75.788C56.8928 75.596 57.1488 75.332 57.3328 74.996C57.5168 74.652 57.6088 74.26 57.6088 73.82C57.6088 73.38 57.5168 72.992 57.3328 72.656C57.1488 72.312 56.8928 72.048 56.5648 71.864C56.2448 71.68 55.8808 71.588 55.4728 71.588C55.0648 71.588 54.6968 71.68 54.3688 71.864C54.0488 72.048 53.7928 72.312 53.6008 72.656C53.4168 72.992 53.3248 73.38 53.3248 73.82C53.3248 74.26 53.4168 74.652 53.6008 74.996C53.7928 75.332 54.0488 75.596 54.3688 75.788C54.6968 75.972 55.0648 76.064 55.4728 76.064ZM62.9083 74.312H61.5883V77H60.4363V70.64H61.5883V73.328H62.9323L64.9963 70.64H66.2323L63.8203 73.7L66.4003 77H65.0443L62.9083 74.312ZM73.3733 70.64V77H72.2693V75.992C72.0133 76.344 71.6893 76.612 71.2973 76.796C70.9053 76.98 70.4733 77.072 70.0013 77.072C69.3853 77.072 68.8333 76.936 68.3453 76.664C67.8573 76.392 67.4733 76.012 67.1933 75.524C66.9213 75.028 66.7853 74.46 66.7853 73.82C66.7853 73.18 66.9213 72.616 67.1933 72.128C67.4733 71.64 67.8573 71.26 68.3453 70.988C68.8333 70.716 69.3853 70.58 70.0013 70.58C70.4573 70.58 70.8773 70.668 71.2613 70.844C71.6453 71.012 71.9653 71.264 72.2213 71.6V70.64H73.3733ZM70.0973 76.064C70.4973 76.064 70.8613 75.972 71.1893 75.788C71.5173 75.596 71.7733 75.332 71.9573 74.996C72.1413 74.652 72.2333 74.26 72.2333 73.82C72.2333 73.38 72.1413 72.992 71.9573 72.656C71.7733 72.312 71.5173 72.048 71.1893 71.864C70.8613 71.68 70.4973 71.588 70.0973 71.588C69.6893 71.588 69.3213 71.68 68.9933 71.864C68.6733 72.048 68.4173 72.312 68.2253 72.656C68.0413 72.992 67.9493 73.38 67.9493 73.82C67.9493 74.26 68.0413 74.652 68.2253 74.996C68.4173 75.332 68.6733 75.596 68.9933 75.788C69.3213 75.972 69.6893 76.064 70.0973 76.064ZM81.0369 70.64V77H79.8849V71.648H77.1489L77.0769 73.064C77.0369 73.92 76.9609 74.636 76.8489 75.212C76.7369 75.78 76.5529 76.236 76.2969 76.58C76.0409 76.924 75.6849 77.096 75.2289 77.096C75.0209 77.096 74.7849 77.06 74.5209 76.988L74.5929 76.016C74.6969 76.04 74.7929 76.052 74.8809 76.052C75.2009 76.052 75.4409 75.912 75.6009 75.632C75.7609 75.352 75.8649 75.02 75.9129 74.636C75.9609 74.252 76.0049 73.704 76.0449 72.992L76.1529 70.64H81.0369ZM89.2404 70.64V77H88.1364V75.992C87.8804 76.344 87.5564 76.612 87.1644 76.796C86.7724 76.98 86.3404 77.072 85.8684 77.072C85.2524 77.072 84.7004 76.936 84.2124 76.664C83.7244 76.392 83.3404 76.012 83.0604 75.524C82.7884 75.028 82.6524 74.46 82.6524 73.82C82.6524 73.18 82.7884 72.616 83.0604 72.128C83.3404 71.64 83.7244 71.26 84.2124 70.988C84.7004 70.716 85.2524 70.58 85.8684 70.58C86.3244 70.58 86.7444 70.668 87.1284 70.844C87.5124 71.012 87.8324 71.264 88.0884 71.6V70.64H89.2404ZM85.9644 76.064C86.3644 76.064 86.7284 75.972 87.0564 75.788C87.3844 75.596 87.6404 75.332 87.8244 74.996C88.0084 74.652 88.1004 74.26 88.1004 73.82C88.1004 73.38 88.0084 72.992 87.8244 72.656C87.6404 72.312 87.3844 72.048 87.0564 71.864C86.7284 71.68 86.3644 71.588 85.9644 71.588C85.5564 71.588 85.1884 71.68 84.8604 71.864C84.5404 72.048 84.2844 72.312 84.0924 72.656C83.9084 72.992 83.8164 73.38 83.8164 73.82C83.8164 74.26 83.9084 74.652 84.0924 74.996C84.2844 75.332 84.5404 75.596 84.8604 75.788C85.1884 75.972 85.5564 76.064 85.9644 76.064Z" fill="black"/>
<path d="M17.2911 96.5204H16.2965V96.0408C16.2965 96.0408 7.34425 97 2.86815 90.7653C-1.60796 84.5306 3.36549 76.3776 3.36549 75.4184C3.36549 74.4592 2.08185 72.8195 2.86815 72.0612C3.36549 71.5816 8.83629 76.3776 9.33363 66.3061C9.83097 56.2347 5.35487 60.0714 5.35487 59.5918C5.35487 58.9137 6.34956 58.1531 5.85222 56.7143C5.35487 55.2755 3.36549 50 5.85222 45.6837C8.33894 41.3673 13.8097 40.4082 14.8044 40.4082L15.7991 18.8265C15.7991 18.8265 14.8044 17.3878 13.3124 18.8265C11.7398 20.343 9.83097 18.8265 9.83097 16.9082C9.83097 14.5102 12.815 15.949 12.815 14.0306C12.815 12.5918 10.3283 13.0714 10.8257 10.6735C11.3668 8.06401 14.8044 8.67741 14.8044 10.1939C14.8044 10.3847 14.883 10.5676 15.0229 10.7026C15.1628 10.8375 15.3526 10.9133 15.5504 10.9133C15.7483 10.9133 15.938 10.8375 16.078 10.7026C16.2179 10.5676 16.2965 10.3847 16.2965 10.1939V7.31633C16.2965 7.31633 14.8044 7.79592 14.8044 6.35714C14.8044 4.91837 16.2965 5.39796 16.2965 5.39796C16.2965 5.39796 15.7991 3 17.7885 3V96.5204H17.2911Z" stroke="#F6899E" stroke-miterlimit="10"/>
<path d="M14.8045 40.4081L14.3071 59.1122H17.7885" stroke="#F6899E" stroke-miterlimit="10"/>
<path d="M14.307 71.102H17.7885V70.0829L14.307 70.1428C14.1751 70.1428 14.0486 70.1934 13.9554 70.2833C13.8621 70.3732 13.8097 70.4952 13.8097 70.6224C13.8097 70.7496 13.8621 70.8716 13.9554 70.9616C14.0486 71.0515 14.1751 71.102 14.307 71.102Z" stroke="#F6899E" stroke-miterlimit="10"/>
<path d="M14.3071 78.7754H17.7885V96.5203H16.4676C16.4676 96.5203 16.2965 83.5713 14.3071 78.7754Z" stroke="#F6899E" stroke-miterlimit="10"/>
<line x1="18.5" y1="100" x2="18.5" y2="2.18557e-08" stroke="#F6899E"/>
</svg>
