<svg width="1613" height="813" viewBox="0 0 1613 813" fill="none" xmlns="http://www.w3.org/2000/svg">
<circle cx="1281" cy="411" r="268" fill="#FDF4F3"/>
<circle cx="1437" cy="143" r="100" fill="#FDF4F3"/>
<circle cx="822" cy="547" r="50" fill="#FDF4F3"/>
<circle cx="760.5" cy="68.5" r="31.5" fill="#FDF4F3"/>
<circle cx="976.5" cy="147.5" r="21.5" fill="#FDF4F3"/>
<circle cx="1342" cy="702" r="50" fill="#FDF4F3"/>
<mask id="mask0" mask-type="alpha" maskUnits="userSpaceOnUse" x="0" y="0" width="1730" height="813">
<rect width="1730" height="813" rx="60" fill="white"/>
</mask>
<g mask="url(#mask0)">
<path d="M1150.55 899.465C1187.82 899.465 1228.32 890.651 1267.69 873.975C1303.16 858.947 1325.79 842.767 1326.01 842.607L1327.07 841.848L1324.65 837.967L1323.45 838.829C1323.22 838.99 1300.63 855.039 1265.94 869.733C1238.86 881.205 1196.88 894.864 1150.63 894.864C1144.12 894.864 1137.61 894.59 1131.27 894.052C1057.12 887.742 950.662 770.279 922.26 683.838C914.615 660.568 909.494 629.446 927.789 611.983C940.93 631.211 956.23 647.641 972.116 659.564C991.466 674.094 1010.85 681.464 1029.71 681.464H1029.72C1033.86 681.463 1037.99 681.1 1042.06 680.378C1065.36 676.238 1069.38 665.42 1068.64 657.074C1067.53 644.491 1054.17 628.51 1033.76 615.359C1012.21 601.479 987.727 593.518 966.582 593.518C951.573 593.518 938.842 597.452 928.712 605.217C913.778 582.424 902.892 557.222 896.535 530.724C890.195 503.107 891.239 479.991 899.554 463.873C907.533 448.405 921.881 440.093 942.209 439.159C956.468 487.922 1001.64 517.819 1028.03 517.819C1039.6 517.819 1047.02 511.96 1048.37 501.745C1049.5 493.26 1045.76 483.821 1037.55 474.451C1017.92 452.04 977.619 434.487 945.798 434.487H945.589C941.289 417.376 941.39 399.455 945.883 382.394C958.958 330.723 976.361 304.669 988.658 291.911C1000.82 279.296 1011.04 278.932 1012.17 278.932C1012.27 278.936 1012.38 278.93 1012.48 278.916L1013.94 278.687L1012.7 273.105L1011.25 273.672C1011.15 273.695 1011 273.718 1010.81 273.752C1001.94 275.264 993.466 280.233 985.61 288.522C972.781 302.061 954.725 329.135 941.544 381.234C936.946 398.71 936.753 417.052 940.982 434.621C919.44 435.841 904.17 444.932 895.581 461.663C886.838 478.694 885.632 502.783 892.096 531.329C898.574 558.668 909.785 584.664 925.22 608.141C908.216 623.801 905.98 650.328 918.58 687.008C932.758 728.293 966.157 779.808 1005.74 821.448C1050.11 868.129 1094.56 895.536 1130.9 898.627C1137.32 899.189 1143.93 899.465 1150.55 899.465ZM966.479 598.207C986.347 598.207 1010.46 605.949 1030.97 618.914C1050.38 631.186 1063.06 645.779 1064.05 656.996C1065.11 669.038 1052.26 673.889 1041.29 675.837C1037.47 676.514 1033.6 676.855 1029.72 676.855C996.936 676.855 960.194 651.525 931.248 609.026C940.552 601.852 952.396 598.212 966.479 598.212V598.207ZM947.014 439.519C969.617 437.954 1004.52 452.448 1023.14 467.164C1037.69 478.668 1045.27 491.047 1043.93 501.127C1042.6 511.151 1034.49 513.257 1027.92 513.257C1015.28 513.257 998.104 505.46 983.1 492.906C966.243 478.9 953.726 460.382 947.014 439.52V439.519Z" fill="#381A3F"/>
<path d="M1127.03 257.906C1127.03 257.906 1111.84 260.58 1090.55 286.077C1069.27 311.574 1024.71 357.443 1017.74 349.087C1010.76 340.731 1038.76 275.61 1044.06 269.258C1049.37 262.906 1059.84 267.639 1065.91 260.365C1071.97 253.091 1064.79 234.043 1064.79 234.043L1047.28 242.759C1047.28 242.759 994.223 318.149 990.855 350.091C987.487 382.033 1012.14 384.715 1036.22 380.02C1060.31 375.324 1104 330.365 1104 330.365L1127.03 257.906Z" fill="#C08F73"/>
<path d="M1201.59 213.768C1201.59 213.768 1204.11 225.353 1198.23 228.707C1192.35 232.061 1187.87 227.13 1187.87 227.13C1187.87 227.13 1189.18 242.251 1170.9 244.537C1161.6 245.701 1157.01 240.496 1157.01 240.496C1157.01 240.496 1147.54 250.395 1134.84 240.496C1122.14 230.596 1124.86 223.374 1124.86 223.374C1121.78 222.378 1119.01 220.594 1116.84 218.199C1114.66 215.804 1113.15 212.883 1112.45 209.723C1110.98 202.663 1111.33 195.346 1113.46 188.456C1113.46 188.456 1102 172.568 1104.78 160.154C1107.56 147.74 1111.41 142.488 1111.41 142.488C1111.41 142.488 1108.61 130.409 1118.41 123.363C1128.22 116.317 1141.48 121.017 1141.48 121.017C1144.71 116.469 1149.3 113.073 1154.6 111.322C1159.89 109.572 1165.6 109.559 1170.9 111.287C1190.39 116.99 1191.79 126.384 1191.79 126.384C1191.79 126.384 1210.07 128.398 1213.11 138.799C1216.15 149.2 1213.11 159.935 1213.11 159.935C1213.11 159.935 1220.91 160.766 1219.23 168.57C1217.55 176.375 1213.11 178.783 1213.11 178.783C1213.11 178.783 1222.53 183.53 1219.47 190.211C1218.72 192.045 1217.36 193.561 1215.62 194.498C1213.87 195.435 1211.85 195.734 1209.91 195.345C1209.91 195.345 1212.9 208.215 1210.7 210.857C1208.49 213.5 1201.59 213.768 1201.59 213.768Z" fill="#1B2752"/>
<path d="M1158.83 146.735C1156.64 143.52 1153.71 140.882 1150.28 139.046C1146.85 137.21 1143.02 136.232 1139.13 136.193C1134.55 136.193 1127.03 142.131 1127.03 142.131C1127.03 142.131 1119.83 135.579 1114.36 142.131C1108.89 148.683 1114.36 152.886 1114.36 152.886C1114.36 152.886 1104.27 155.571 1100.35 160.268C1096.43 164.965 1100.07 174.803 1103.71 174.803C1103.71 174.803 1099.51 180.385 1103.99 188.612C1108.48 196.839 1117.72 195.342 1117.72 195.342C1116.79 197.189 1116.53 199.301 1116.99 201.315C1117.45 203.33 1118.6 205.122 1120.24 206.384C1126.1 211.27 1138.16 206.504 1140.4 198.484C1140.4 198.484 1147.41 200.528 1150.91 192.812C1154.4 185.096 1149.56 177.113 1149.56 177.113C1149.56 177.113 1157.59 168.32 1157.59 160.603C1157.59 152.886 1146.56 150.388 1146.56 150.388C1146.56 150.388 1164.71 146.735 1158.83 146.735Z" fill="#BA6060"/>
<path d="M1171.73 214.044C1172.91 210.151 1175.16 248.373 1169.61 266.586C1168.69 269.585 1150.53 289.831 1142.05 279.6C1145.99 271.082 1148.31 261.902 1148.88 252.534C1149.96 236.561 1141.99 228.538 1141.99 228.538C1141.99 228.538 1170.58 217.797 1171.73 214.044Z" fill="#DAB196"/>
<path d="M1171.73 214.046C1170.58 217.799 1141.99 228.54 1141.99 228.54C1144.93 231.968 1146.97 236.077 1147.91 240.493C1155.27 240.21 1167 237.65 1173.19 231.68C1173.16 220.507 1172.32 212.12 1171.73 214.046Z" fill="#C08F73"/>
<path d="M1139.49 149.441C1134.79 152.632 1126.42 161.667 1127.11 169.28C1127.8 176.893 1121.98 186.939 1124.2 202.67C1126.42 218.402 1134.27 228.191 1137.98 229.811C1141.69 231.431 1165.73 227.699 1171.9 217.001C1178.08 206.302 1196.24 191.921 1180.88 164.586C1165.52 137.251 1148.73 143.166 1139.49 149.441Z" fill="#DAB196"/>
<path d="M1139.23 187.804C1137.66 189.28 1135.71 190.304 1133.61 190.769C1134.61 193.088 1135.77 195.333 1137.09 197.485C1136.74 195.646 1136.28 193.83 1135.71 192.046C1139.63 191.003 1142.36 187.124 1142.82 182.928C1141.93 184.756 1140.71 186.407 1139.23 187.804Z" fill="black"/>
<path d="M1147.75 181.619C1149.28 178.602 1152.35 176.206 1155.23 177.441C1158.19 178.807 1158.93 182.23 1161.8 183.295C1158.96 184.007 1156.85 180.151 1154.68 179.276C1152.58 178.317 1150.06 179.918 1147.75 181.619Z" fill="black"/>
<path d="M1138.05 183.27C1136.52 180.258 1133.44 177.872 1130.56 179.116C1127.6 180.492 1126.87 183.917 1124.01 184.991C1126.85 185.694 1128.95 181.831 1131.12 180.95C1133.22 179.978 1135.75 181.577 1138.05 183.27Z" fill="black"/>
<path d="M1156.03 165.162C1158.94 164.843 1161.78 166.865 1163.74 169.398C1158.53 165.763 1155.81 166.601 1152.81 168.863C1149.78 171.126 1149.34 172.76 1148.5 171.641C1147.41 170.173 1152.32 165.721 1156.03 165.162Z" fill="black"/>
<path d="M1132.26 170.772C1130.71 170.582 1128.92 171.918 1127.03 172.836C1130.42 167.481 1134.32 167.043 1137.61 173.297C1138.14 174.319 1136.94 175.365 1136.3 174.446C1136.3 174.446 1133.18 170.884 1132.26 170.772Z" fill="black"/>
<path d="M1144.9 206.796C1144.9 206.796 1132.38 202.949 1132.38 204.962C1132.38 206.974 1133.61 212.028 1133.61 213.767C1133.61 215.506 1134.52 218.027 1138.64 218.027C1142.76 218.027 1144.9 209.316 1144.9 206.796Z" fill="black"/>
<path d="M1144.9 206.796C1144.86 207.782 1144.72 208.761 1144.48 209.718C1141.75 208.728 1135.6 206.755 1132.74 207.974C1132.56 206.98 1132.44 205.973 1132.39 204.962C1132.39 202.949 1144.9 206.796 1144.9 206.796Z" fill="white"/>
<path d="M1168.97 260.368C1175.82 263.099 1182.02 267.262 1187.14 272.579C1192.26 277.896 1196.18 284.245 1198.65 291.2C1207.05 314.935 1136.33 418.738 1144.9 464.367C1144.9 464.367 1194.16 529.307 1199.48 617.049C1204.81 704.79 1202.57 709.486 1208.17 716.195C1213.77 722.905 1235.06 787.994 1237.58 813.156C1240.09 838.318 1243.88 904.582 1248.78 910.453C1253.68 916.324 1261.38 950.378 1254.94 950.378C1248.5 950.378 1245.55 928.739 1239.54 921.523C1233.52 914.308 1230.68 910.212 1234.89 905.18C1239.09 900.148 1191.37 806.783 1185.21 791.348C1179.05 775.914 1177.93 752.095 1170.64 733.978C1163.36 715.86 1155.52 697.738 1155.52 697.738C1155.52 697.738 1141.94 582.828 1137.04 576.957C1132.13 571.085 1111.83 571.923 1111.83 571.923C1111.83 571.923 1108 662.746 1102.97 711.729C1096.55 732.014 1094.44 753.414 1096.76 774.562C1100.68 809.454 1095.46 922.686 1098.82 935.771C1102.18 948.857 1109.32 968.482 1102.18 968.482C1095.04 968.482 1092.73 970.412 1089.43 966.47C1086.14 962.528 1091.39 946.843 1089.43 939.797C1087.48 932.751 1089.59 924.704 1088.32 923.189C1087.28 921.935 1065.6 831.117 1058.2 789.409C1056.43 779.421 1055.9 769.251 1056.64 759.134C1057.55 746.552 1058.84 727.616 1058.84 720.797C1058.84 710.229 1060.58 506.494 1063.95 496.429C1067.31 486.364 1082.01 464.221 1084.96 440.064C1087.9 415.908 1079.89 358.537 1082.21 333.374C1084.53 308.211 1118.7 261.937 1127.03 257.896C1135.35 253.855 1168.97 260.368 1168.97 260.368Z" fill="#DAB196"/>
<path d="M1059.24 675.895L1106.39 670.428C1105.35 685.399 1104.19 699.807 1102.96 711.733C1102.96 711.733 1101.98 714.442 1100.75 719.224C1085.89 719.324 1071.54 719.645 1058.85 720.286C1058.86 716.173 1058.99 699.022 1059.24 675.895Z" fill="#C08F73"/>
<path d="M1201.84 659.357C1204.24 706.678 1203.66 710.785 1208.17 716.194C1208.87 717.035 1182.85 720.275 1164.87 719.859C1159.75 707.501 1155.52 697.741 1155.52 697.741C1155.52 697.741 1153.86 683.706 1151.5 665.196L1201.84 659.357Z" fill="#C08F73"/>
<path d="M1150.57 144.569C1150.57 144.569 1169.39 153.579 1163.74 156.185C1158.09 158.791 1161.7 169.401 1165.19 169.401C1168.69 169.401 1164.95 176.73 1161.6 179.763C1158.26 182.797 1164.57 189.9 1167.91 189.9C1171.25 189.9 1159.59 193.305 1165.19 201.205C1170.8 209.104 1179.9 204.739 1179.9 204.739C1179.27 205.744 1178.94 206.906 1178.94 208.091C1178.94 209.277 1179.27 210.438 1179.9 211.444C1182.14 214.703 1198.31 219.648 1198.31 209.871C1198.31 200.094 1193.67 200.005 1193.67 200.005C1193.67 200.005 1201.29 197.69 1202.76 191.196C1204.24 184.701 1195.27 184.701 1195.27 184.701C1195.27 184.701 1205.78 180.738 1202.93 172.838C1200.08 164.939 1194.31 165.525 1194.31 165.525C1194.31 165.525 1207.41 151.16 1193.03 142.907C1184.92 138.25 1179.36 141.684 1179.36 141.684C1179.36 141.684 1178.89 136.425 1167.06 134.858C1155.23 133.291 1150.57 144.569 1150.57 144.569Z" fill="#862C2A"/>
<path d="M1009.62 281.384C1010.19 281.382 1010.76 281.243 1011.27 280.979L1086.6 242.454C1087.68 241.786 1088.5 240.759 1088.9 239.553C1089.31 238.347 1089.28 237.037 1088.82 235.85C1087.9 233.294 1085.44 232.104 1083.3 233.197L1007.97 271.721C1006.89 272.39 1006.08 273.416 1005.67 274.623C1005.27 275.829 1005.3 277.14 1005.76 278.326C1006 279.174 1006.51 279.924 1007.2 280.472C1007.89 281.02 1008.74 281.339 1009.62 281.384V281.384Z" fill="black"/>
<path d="M1067.31 231.729C1071.2 235.942 1067.1 254.12 1065.77 255.715C1064.44 257.309 1062.55 242.63 1062.55 242.63C1062.55 242.63 1062.97 260.411 1059.89 261.418C1056.81 262.424 1057.31 246.488 1057.31 246.488C1057.31 246.488 1055.83 259.33 1052.75 261.464C1049.67 263.598 1052.75 247.494 1052.75 247.494C1052.75 247.494 1049.53 260.245 1047.29 260.245C1045.05 260.245 1046.83 248.287 1046.83 244.535C1046.83 240.783 1051.28 240.03 1053.03 237.932C1055.86 235.042 1059.45 233.008 1063.39 232.066C1066.52 231.468 1066.62 230.983 1067.31 231.729Z" fill="#DAB196"/>
<path d="M1081.44 239.702C1086.93 251.15 1098.46 256.519 1107.2 251.695C1115.94 246.872 1118.59 233.678 1113.1 222.234C1107.62 210.79 1096.08 205.418 1087.34 210.241C1078.6 215.064 1075.96 228.254 1081.44 239.702Z" fill="#59565F"/>
<path d="M1078.58 227.131C1076.89 244.178 1094.22 260.405 1107.2 251.698C1093.2 257.162 1079.92 243.002 1078.58 227.131Z" fill="#161618"/>
<path d="M1161.87 312.409C1135.12 306.492 1100.91 300.053 1092.88 303.78C1092.88 303.78 1076.98 314.382 1076.98 341.891C1076.98 369.399 1080.05 455.365 1074.81 460.982C1069.58 466.6 1058.19 503.886 1053.63 528.95C1049.08 554.014 1044.52 711.73 1044.52 711.73H1209.11C1209.11 711.73 1204.56 584.578 1195.45 546.678C1186.33 508.777 1147.76 459.872 1147.76 459.872L1186.46 355.619C1191.44 336.294 1180.16 316.458 1161.87 312.409Z" fill="url(#paint0_linear)"/>
<path d="M1197.06 287.244C1197.06 287.244 1198.65 291.199 1209.11 329.62C1219.67 368.357 1227.73 410.992 1247.21 410.992C1266.69 410.992 1294.51 376.228 1302.06 367.181C1309.62 358.134 1321.55 358.914 1325.44 350.037C1327.86 344.496 1327.21 329.504 1328.8 327.598C1330.39 325.692 1334.47 332.881 1334.47 335.751C1334.47 337.77 1329.05 354.98 1333.42 349.741C1337.8 344.502 1356.52 324.003 1360.23 324.003C1363.94 324.003 1338.33 352.682 1339.65 357.126C1340.97 361.569 1377.72 346.544 1382.62 349.084C1387.53 351.623 1342.74 364.324 1343.93 369.562C1345.13 374.8 1376.93 381.308 1374.67 387.499C1372.42 393.69 1345.59 377.738 1343.4 380.355C1341.22 382.973 1359.82 400.54 1355.99 405.123C1354.47 406.949 1340.36 388.138 1336.38 387.345C1332.41 386.553 1308.29 389.561 1308.29 389.561C1308.29 389.561 1252.38 456.709 1232.1 453.85C1211.83 450.991 1184.32 345.634 1181.53 326.108C1178.75 306.582 1197.06 287.244 1197.06 287.244Z" fill="#DAB196"/>
<path d="M1107.88 221.622C1107.95 221.621 1108.02 221.602 1108.09 221.565C1108.15 221.529 1108.2 221.476 1108.24 221.413C1108.3 221.31 1108.32 221.188 1108.3 221.071C1108.27 220.953 1108.21 220.849 1108.11 220.779C1108 220.708 1097.7 213.669 1087.79 217.602C1087.68 217.649 1087.6 217.737 1087.55 217.846C1087.5 217.955 1087.5 218.078 1087.54 218.19C1087.56 218.245 1087.59 218.295 1087.62 218.339C1087.66 218.383 1087.71 218.419 1087.76 218.444C1087.81 218.469 1087.87 218.484 1087.92 218.487C1087.98 218.49 1088.04 218.481 1088.09 218.461C1097.59 214.695 1107.54 221.479 1107.65 221.549C1107.72 221.597 1107.8 221.622 1107.88 221.622V221.622Z" fill="#2D2B30"/>
<path d="M1107.24 226.76C1107.31 226.76 1107.38 226.74 1107.45 226.703C1107.51 226.666 1107.56 226.614 1107.6 226.55C1107.66 226.448 1107.68 226.326 1107.66 226.208C1107.63 226.091 1107.56 225.987 1107.47 225.917C1107.36 225.845 1097.06 218.807 1087.15 222.737C1087.04 222.785 1086.96 222.872 1086.91 222.981C1086.86 223.091 1086.86 223.214 1086.9 223.325C1086.92 223.38 1086.94 223.432 1086.98 223.476C1087.02 223.52 1087.06 223.556 1087.12 223.581C1087.17 223.607 1087.22 223.621 1087.28 223.624C1087.34 223.627 1087.4 223.618 1087.45 223.598C1096.97 219.825 1106.9 226.617 1107.01 226.687C1107.07 226.734 1107.16 226.76 1107.24 226.76V226.76Z" fill="#2D2B30"/>
<path d="M1105.87 232.789C1105.94 232.789 1106.01 232.769 1106.08 232.732C1106.14 232.696 1106.19 232.643 1106.23 232.58C1106.29 232.477 1106.31 232.355 1106.29 232.237C1106.26 232.12 1106.19 232.016 1106.1 231.946C1105.99 231.874 1095.69 224.835 1085.78 228.768C1085.67 228.816 1085.59 228.904 1085.54 229.013C1085.49 229.122 1085.49 229.244 1085.53 229.356C1085.55 229.411 1085.57 229.462 1085.61 229.506C1085.65 229.55 1085.69 229.586 1085.74 229.612C1085.8 229.637 1085.85 229.652 1085.91 229.654C1085.97 229.657 1086.02 229.648 1086.08 229.627C1095.58 225.861 1105.53 232.646 1105.63 232.716C1105.7 232.764 1105.79 232.79 1105.87 232.789V232.789Z" fill="#2D2B30"/>
<path d="M1098.85 237.054C1098.91 237.053 1098.98 237.037 1099.03 237.008C1099.09 236.979 1099.14 236.937 1099.18 236.885C1099.26 236.785 1106.94 226.6 1104.43 215.585C1104.42 215.528 1104.4 215.474 1104.36 215.425C1104.33 215.377 1104.29 215.336 1104.24 215.305C1104.19 215.273 1104.14 215.252 1104.08 215.242C1104.02 215.233 1103.96 215.235 1103.91 215.249C1103.79 215.283 1103.7 215.36 1103.64 215.463C1103.58 215.566 1103.57 215.688 1103.6 215.803C1106 226.362 1098.59 236.205 1098.51 236.304C1098.44 236.4 1098.4 236.521 1098.41 236.642C1098.42 236.762 1098.48 236.874 1098.57 236.956C1098.65 237.022 1098.75 237.056 1098.85 237.054Z" fill="#2D2B30"/>
<path d="M1094.17 235.785C1094.23 235.784 1094.3 235.769 1094.35 235.74C1094.41 235.711 1094.46 235.669 1094.5 235.618C1094.58 235.516 1102.26 225.332 1099.75 214.317C1099.74 214.26 1099.72 214.206 1099.69 214.158C1099.65 214.11 1099.61 214.068 1099.56 214.037C1099.51 214.005 1099.46 213.984 1099.4 213.975C1099.34 213.965 1099.29 213.967 1099.23 213.981C1099.12 214.015 1099.02 214.092 1098.96 214.195C1098.9 214.298 1098.89 214.42 1098.91 214.535C1101.33 225.109 1093.91 234.937 1093.83 235.035C1093.76 235.131 1093.72 235.251 1093.73 235.372C1093.74 235.493 1093.8 235.605 1093.89 235.687C1093.97 235.753 1094.07 235.788 1094.17 235.785V235.785Z" fill="#2D2B30"/>
<path d="M1088.74 233.642C1088.8 233.642 1088.87 233.626 1088.92 233.597C1088.98 233.568 1089.03 233.526 1089.07 233.474C1089.15 233.372 1096.83 223.189 1094.32 212.174C1094.31 212.117 1094.29 212.063 1094.26 212.016C1094.22 211.968 1094.18 211.927 1094.13 211.895C1094.09 211.864 1094.03 211.843 1093.98 211.833C1093.92 211.823 1093.86 211.824 1093.8 211.837C1093.69 211.871 1093.59 211.948 1093.54 212.051C1093.48 212.155 1093.46 212.276 1093.49 212.391C1095.9 222.966 1088.48 232.794 1088.41 232.892C1088.33 232.987 1088.3 233.106 1088.31 233.225C1088.32 233.345 1088.38 233.456 1088.46 233.537C1088.54 233.604 1088.64 233.642 1088.74 233.642V233.642Z" fill="#2D2B30"/>
<path opacity="0.47" d="M1151.66 494.139C1151.7 494.646 1151.88 495.131 1152.19 495.536C1152.5 495.941 1152.91 496.247 1153.39 496.416C1153.87 496.586 1154.39 496.612 1154.88 496.491C1155.38 496.37 1155.83 496.108 1156.17 495.736C1156.52 495.364 1156.75 494.899 1156.83 494.398C1156.92 493.898 1156.86 493.382 1156.65 492.917C1156.45 492.451 1156.12 492.055 1155.69 491.776C1155.27 491.498 1154.77 491.351 1154.26 491.352C1153.55 491.377 1152.87 491.685 1152.38 492.208C1151.9 492.73 1151.64 493.425 1151.66 494.139V494.139Z" fill="#FFFF00"/>
<path opacity="0.47" d="M1054.79 698.152C1054.83 698.659 1055.01 699.145 1055.32 699.549C1055.63 699.954 1056.05 700.26 1056.53 700.43C1057 700.599 1057.52 700.626 1058.02 700.505C1058.51 700.384 1058.96 700.121 1059.3 699.749C1059.65 699.378 1059.88 698.913 1059.97 698.412C1060.05 697.911 1059.99 697.396 1059.79 696.93C1059.58 696.464 1059.25 696.068 1058.82 695.79C1058.4 695.512 1057.9 695.364 1057.39 695.365C1056.68 695.391 1056 695.7 1055.52 696.222C1055.03 696.744 1054.77 697.439 1054.79 698.152V698.152Z" fill="#FFFF00"/>
<path opacity="0.61" d="M1153.32 511.416C1153.35 511.923 1153.53 512.408 1153.84 512.813C1154.15 513.218 1154.57 513.524 1155.05 513.693C1155.52 513.863 1156.04 513.889 1156.54 513.768C1157.03 513.648 1157.48 513.385 1157.82 513.014C1158.17 512.642 1158.4 512.177 1158.49 511.676C1158.57 511.176 1158.51 510.661 1158.31 510.195C1158.1 509.729 1157.77 509.333 1157.34 509.054C1156.92 508.776 1156.42 508.628 1155.91 508.629C1155.2 508.655 1154.53 508.963 1154.04 509.485C1153.55 510.008 1153.29 510.702 1153.32 511.416V511.416Z" fill="#FFFF00"/>
<path opacity="0.61" d="M1160.79 399.395C1159.36 399.395 1158.19 398.147 1158.19 396.607C1158.19 395.067 1159.36 393.818 1160.79 393.818C1162.23 393.818 1163.39 395.067 1163.39 396.607C1163.39 398.147 1162.23 399.395 1160.79 399.395Z" fill="#FFFF00"/>
<path opacity="0.61" d="M1163.03 566.091C1163.07 566.598 1163.25 567.083 1163.56 567.488C1163.87 567.892 1164.29 568.198 1164.76 568.368C1165.24 568.537 1165.76 568.563 1166.26 568.442C1166.75 568.321 1167.2 568.058 1167.54 567.687C1167.89 567.315 1168.12 566.85 1168.2 566.349C1168.29 565.848 1168.23 565.333 1168.02 564.868C1167.82 564.402 1167.49 564.006 1167.06 563.728C1166.64 563.45 1166.14 563.302 1165.63 563.303C1164.92 563.329 1164.24 563.637 1163.75 564.16C1163.27 564.683 1163.01 565.377 1163.03 566.091V566.091Z" fill="#FFFF00"/>
<path opacity="0.61" d="M1057.39 615.564C1057.42 616.071 1057.61 616.556 1057.91 616.961C1058.22 617.365 1058.64 617.671 1059.12 617.84C1059.6 618.01 1060.12 618.036 1060.61 617.915C1061.1 617.794 1061.55 617.531 1061.9 617.159C1062.24 616.788 1062.47 616.323 1062.56 615.822C1062.65 615.321 1062.58 614.806 1062.38 614.34C1062.18 613.875 1061.84 613.478 1061.42 613.2C1060.99 612.922 1060.49 612.775 1059.99 612.775C1059.27 612.802 1058.6 613.11 1058.11 613.633C1057.62 614.156 1057.36 614.85 1057.39 615.564V615.564Z" fill="#FFFF00"/>
<path opacity="0.61" d="M1056.25 587.027C1056.29 587.534 1056.47 588.02 1056.78 588.425C1057.08 588.829 1057.5 589.135 1057.98 589.305C1058.46 589.475 1058.98 589.501 1059.47 589.38C1059.97 589.259 1060.41 588.996 1060.76 588.625C1061.11 588.253 1061.34 587.788 1061.42 587.287C1061.51 586.786 1061.45 586.271 1061.24 585.805C1061.04 585.339 1060.7 584.943 1060.28 584.665C1059.85 584.387 1059.36 584.239 1058.85 584.24C1058.13 584.266 1057.46 584.575 1056.97 585.097C1056.49 585.619 1056.23 586.314 1056.25 587.027V587.027Z" fill="#FFFF00"/>
<path opacity="0.47" d="M1143.83 512.486C1143.86 512.992 1144.05 513.478 1144.35 513.882C1144.66 514.287 1145.08 514.593 1145.56 514.762C1146.04 514.932 1146.56 514.957 1147.05 514.837C1147.54 514.716 1147.99 514.453 1148.34 514.081C1148.68 513.709 1148.91 513.244 1149 512.744C1149.08 512.243 1149.02 511.728 1148.82 511.262C1148.61 510.796 1148.28 510.4 1147.85 510.122C1147.43 509.844 1146.93 509.696 1146.42 509.697C1145.71 509.723 1145.04 510.032 1144.55 510.554C1144.06 511.077 1143.8 511.772 1143.83 512.486V512.486Z" fill="#FFFF00"/>
<path opacity="0.47" d="M1175.77 548.671C1174.34 548.671 1173.17 547.422 1173.17 545.882C1173.17 544.342 1174.34 543.094 1175.77 543.094C1177.21 543.094 1178.37 544.342 1178.37 545.882C1178.37 547.422 1177.21 548.671 1175.77 548.671Z" fill="#FFFF00"/>
<path opacity="0.47" d="M1158.55 541.959C1158.58 542.466 1158.77 542.952 1159.07 543.356C1159.38 543.761 1159.8 544.067 1160.28 544.237C1160.76 544.406 1161.28 544.432 1161.77 544.311C1162.26 544.19 1162.71 543.928 1163.06 543.556C1163.4 543.184 1163.64 542.719 1163.72 542.218C1163.81 541.717 1163.74 541.202 1163.54 540.736C1163.34 540.27 1163 539.874 1162.58 539.596C1162.15 539.318 1161.65 539.171 1161.14 539.172C1160.43 539.199 1159.76 539.507 1159.27 540.029C1158.78 540.552 1158.53 541.245 1158.55 541.959Z" fill="#FFFF00"/>
<path opacity="0.47" d="M1160.79 502.125C1160.82 502.632 1161.01 503.117 1161.31 503.522C1161.62 503.927 1162.04 504.233 1162.52 504.402C1163 504.572 1163.52 504.598 1164.01 504.477C1164.5 504.357 1164.95 504.094 1165.3 503.722C1165.64 503.351 1165.87 502.886 1165.96 502.385C1166.05 501.884 1165.98 501.369 1165.78 500.903C1165.58 500.437 1165.24 500.041 1164.82 499.763C1164.39 499.485 1163.89 499.337 1163.39 499.338C1162.67 499.364 1162 499.672 1161.51 500.195C1161.02 500.717 1160.76 501.411 1160.79 502.125V502.125Z" fill="#FFFF00"/>
<path opacity="0.47" d="M1141.23 444.059C1141.27 444.566 1141.45 445.051 1141.76 445.456C1142.07 445.861 1142.48 446.167 1142.96 446.336C1143.44 446.506 1143.96 446.532 1144.45 446.411C1144.95 446.29 1145.4 446.028 1145.74 445.656C1146.09 445.284 1146.32 444.819 1146.4 444.318C1146.49 443.817 1146.43 443.303 1146.22 442.837C1146.02 442.371 1145.69 441.975 1145.26 441.697C1144.84 441.418 1144.34 441.271 1143.83 441.271C1143.12 441.298 1142.44 441.606 1141.96 442.128C1141.47 442.651 1141.21 443.345 1141.23 444.059V444.059Z" fill="#FFFF00"/>
<path opacity="0.47" d="M1135.32 484C1135.38 484.828 1135.68 485.622 1136.18 486.282C1136.69 486.943 1137.37 487.442 1138.15 487.719C1138.94 487.996 1139.78 488.038 1140.59 487.84C1141.4 487.642 1142.13 487.214 1142.7 486.606C1143.26 485.999 1143.64 485.239 1143.78 484.42C1143.92 483.602 1143.82 482.761 1143.48 481.999C1143.15 481.238 1142.61 480.59 1141.91 480.135C1141.22 479.68 1140.41 479.437 1139.57 479.438C1138.41 479.481 1137.3 479.985 1136.51 480.84C1135.71 481.696 1135.28 482.832 1135.32 484Z" fill="#FFFF00"/>
<path opacity="0.47" d="M1131.06 455.748C1131.12 456.576 1131.42 457.369 1131.92 458.03C1132.43 458.691 1133.11 459.19 1133.89 459.467C1134.68 459.744 1135.52 459.786 1136.33 459.588C1137.14 459.391 1137.87 458.962 1138.43 458.355C1139 457.747 1139.38 456.988 1139.52 456.169C1139.66 455.351 1139.56 454.509 1139.23 453.748C1138.89 452.987 1138.35 452.339 1137.65 451.883C1136.96 451.428 1136.15 451.186 1135.32 451.186C1134.15 451.228 1133.04 451.733 1132.25 452.588C1131.45 453.443 1131.02 454.58 1131.06 455.748V455.748Z" fill="#FFFF00"/>
<path opacity="0.47" d="M1150 521.156C1150.06 521.985 1150.36 522.778 1150.87 523.438C1151.37 524.099 1152.05 524.599 1152.84 524.875C1153.62 525.152 1154.47 525.194 1155.27 524.997C1156.08 524.799 1156.81 524.37 1157.38 523.763C1157.94 523.155 1158.32 522.396 1158.46 521.578C1158.6 520.759 1158.5 519.918 1158.17 519.156C1157.84 518.395 1157.29 517.747 1156.59 517.292C1155.9 516.836 1155.09 516.594 1154.26 516.594C1153.09 516.636 1151.98 517.14 1151.19 517.996C1150.39 518.851 1149.97 519.988 1150 521.156V521.156Z" fill="#FFFF00"/>
<path opacity="0.47" d="M1062.58 570.66C1062.64 571.488 1062.94 572.282 1063.44 572.942C1063.95 573.603 1064.63 574.102 1065.42 574.379C1066.2 574.656 1067.04 574.698 1067.85 574.5C1068.66 574.303 1069.39 573.873 1069.96 573.266C1070.52 572.658 1070.9 571.899 1071.04 571.081C1071.18 570.262 1071.08 569.42 1070.75 568.659C1070.41 567.898 1069.87 567.25 1069.17 566.795C1068.48 566.34 1067.67 566.097 1066.84 566.098C1065.67 566.141 1064.56 566.645 1063.77 567.5C1062.97 568.356 1062.54 569.492 1062.58 570.66Z" fill="#FFFF00"/>
<path opacity="0.47" d="M1164.67 534.609C1164.73 535.438 1165.03 536.231 1165.53 536.892C1166.03 537.552 1166.72 538.052 1167.5 538.328C1168.29 538.605 1169.13 538.647 1169.94 538.45C1170.75 538.252 1171.48 537.823 1172.04 537.215C1172.61 536.608 1172.99 535.848 1173.13 535.03C1173.27 534.211 1173.16 533.37 1172.83 532.608C1172.5 531.847 1171.95 531.199 1171.26 530.744C1170.57 530.289 1169.75 530.047 1168.92 530.047C1167.75 530.09 1166.65 530.594 1165.85 531.45C1165.06 532.305 1164.63 533.441 1164.67 534.609Z" fill="#FFFF00"/>
<path opacity="0.47" d="M1059.79 669.648C1059.85 670.477 1060.15 671.27 1060.65 671.93C1061.15 672.591 1061.84 673.091 1062.62 673.367C1063.4 673.644 1064.25 673.686 1065.06 673.489C1065.86 673.291 1066.6 672.862 1067.16 672.255C1067.73 671.648 1068.1 670.888 1068.25 670.07C1068.39 669.251 1068.28 668.41 1067.95 667.649C1067.62 666.887 1067.08 666.239 1066.38 665.784C1065.69 665.328 1064.87 665.086 1064.04 665.086C1062.88 665.129 1061.77 665.633 1060.97 666.488C1060.18 667.344 1059.75 668.48 1059.79 669.648V669.648Z" fill="#FFFF00"/>
<path opacity="0.62" d="M1139.57 496.935C1139.61 497.372 1139.76 497.79 1140.03 498.139C1140.29 498.487 1140.66 498.75 1141.07 498.896C1141.48 499.042 1141.93 499.064 1142.35 498.96C1142.78 498.856 1143.16 498.63 1143.46 498.309C1143.76 497.989 1143.96 497.588 1144.03 497.156C1144.11 496.725 1144.05 496.281 1143.88 495.879C1143.71 495.478 1143.42 495.136 1143.05 494.896C1142.68 494.655 1142.26 494.527 1141.82 494.527C1141.2 494.549 1140.62 494.816 1140.2 495.267C1139.78 495.718 1139.55 496.318 1139.57 496.935Z" fill="#FFFF00"/>
<path opacity="0.62" d="M1137.33 437.328C1137.36 437.765 1137.52 438.183 1137.79 438.531C1138.05 438.88 1138.41 439.143 1138.83 439.289C1139.24 439.434 1139.69 439.456 1140.11 439.352C1140.54 439.248 1140.92 439.021 1141.22 438.701C1141.52 438.381 1141.72 437.98 1141.79 437.549C1141.86 437.117 1141.81 436.673 1141.64 436.272C1141.46 435.871 1141.17 435.529 1140.81 435.289C1140.44 435.049 1140.01 434.922 1139.57 434.922C1138.96 434.945 1138.38 435.211 1137.96 435.662C1137.54 436.113 1137.31 436.712 1137.33 437.328Z" fill="#FFFF00"/>
<path opacity="0.62" d="M1137.33 471.338C1137.36 471.775 1137.52 472.193 1137.79 472.541C1138.05 472.889 1138.41 473.152 1138.83 473.298C1139.24 473.444 1139.69 473.466 1140.11 473.362C1140.54 473.257 1140.92 473.031 1141.22 472.711C1141.52 472.39 1141.72 471.99 1141.79 471.558C1141.86 471.127 1141.81 470.683 1141.64 470.282C1141.46 469.88 1141.17 469.539 1140.81 469.299C1140.44 469.059 1140.01 468.931 1139.57 468.932C1138.96 468.954 1138.38 469.22 1137.96 469.671C1137.54 470.122 1137.31 470.722 1137.33 471.338V471.338Z" fill="#FFFF00"/>
<path opacity="0.62" d="M1056.61 637.067C1056.64 637.504 1056.8 637.922 1057.06 638.269C1057.33 638.617 1057.69 638.88 1058.1 639.026C1058.52 639.171 1058.96 639.193 1059.39 639.088C1059.81 638.983 1060.2 638.757 1060.49 638.436C1060.79 638.116 1060.99 637.715 1061.06 637.284C1061.14 636.853 1061.08 636.409 1060.91 636.008C1060.73 635.607 1060.45 635.265 1060.08 635.025C1059.71 634.786 1059.29 634.658 1058.85 634.658C1058.23 634.681 1057.65 634.947 1057.23 635.399C1056.81 635.85 1056.59 636.451 1056.61 637.067V637.067Z" fill="#FFFF00"/>
<path opacity="0.25" d="M1166.68 522.453C1166.71 522.89 1166.87 523.309 1167.13 523.657C1167.4 524.006 1167.76 524.27 1168.17 524.416C1168.59 524.562 1169.03 524.584 1169.46 524.48C1169.88 524.375 1170.27 524.149 1170.57 523.829C1170.87 523.508 1171.07 523.107 1171.14 522.676C1171.21 522.244 1171.16 521.8 1170.99 521.398C1170.81 520.996 1170.52 520.655 1170.16 520.414C1169.79 520.174 1169.36 520.047 1168.92 520.047C1168.31 520.07 1167.72 520.336 1167.3 520.787C1166.88 521.238 1166.66 521.837 1166.68 522.453V522.453Z" fill="#FFFF00"/>
<path opacity="0.25" d="M1055.15 676.622C1055.18 677.059 1055.34 677.477 1055.6 677.825C1055.87 678.173 1056.23 678.436 1056.64 678.582C1057.05 678.727 1057.5 678.749 1057.93 678.645C1058.35 678.54 1058.74 678.314 1059.03 677.993C1059.33 677.673 1059.53 677.272 1059.61 676.841C1059.68 676.41 1059.63 675.966 1059.45 675.565C1059.28 675.163 1058.99 674.822 1058.62 674.582C1058.25 674.342 1057.83 674.215 1057.39 674.215C1056.77 674.238 1056.19 674.504 1055.77 674.956C1055.35 675.407 1055.13 676.006 1055.15 676.622V676.622Z" fill="#FFFF00"/>
<path opacity="0.25" d="M1163.74 548.285C1163.77 548.722 1163.93 549.141 1164.19 549.489C1164.46 549.838 1164.82 550.101 1165.23 550.248C1165.65 550.394 1166.09 550.416 1166.52 550.312C1166.94 550.208 1167.33 549.981 1167.63 549.661C1167.93 549.341 1168.13 548.94 1168.2 548.508C1168.28 548.077 1168.22 547.633 1168.05 547.231C1167.87 546.829 1167.58 546.487 1167.22 546.247C1166.85 546.007 1166.42 545.879 1165.98 545.879C1165.37 545.901 1164.79 546.167 1164.37 546.618C1163.94 547.07 1163.72 547.669 1163.74 548.285Z" fill="#FFFF00"/>
<path opacity="0.25" d="M1065.31 583.73C1065.36 584.511 1065.64 585.26 1066.12 585.883C1066.59 586.507 1067.24 586.979 1067.98 587.24C1068.72 587.502 1069.51 587.542 1070.28 587.355C1071.04 587.169 1071.73 586.765 1072.26 586.192C1072.8 585.619 1073.15 584.902 1073.28 584.13C1073.42 583.358 1073.32 582.564 1073.01 581.845C1072.7 581.127 1072.18 580.515 1071.52 580.086C1070.87 579.656 1070.1 579.428 1069.32 579.428C1068.22 579.47 1067.18 579.945 1066.43 580.751C1065.67 581.557 1065.27 582.628 1065.31 583.73V583.73Z" fill="#FFFF00"/>
<path opacity="0.25" d="M1065.31 637.067C1065.36 637.849 1065.64 638.598 1066.12 639.221C1066.59 639.845 1067.24 640.317 1067.98 640.578C1068.72 640.84 1069.51 640.88 1070.28 640.694C1071.04 640.507 1071.73 640.103 1072.26 639.53C1072.8 638.957 1073.15 638.24 1073.28 637.468C1073.42 636.696 1073.32 635.902 1073.01 635.183C1072.7 634.465 1072.18 633.853 1071.52 633.424C1070.87 632.994 1070.1 632.765 1069.32 632.766C1068.22 632.807 1067.18 633.283 1066.43 634.089C1065.67 634.895 1065.27 635.966 1065.31 637.067V637.067Z" fill="#FFFF00"/>
<path opacity="0.25" d="M1154.61 406.384C1154.64 406.821 1154.8 407.239 1155.07 407.587C1155.33 407.935 1155.7 408.198 1156.11 408.343C1156.52 408.489 1156.97 408.511 1157.39 408.406C1157.82 408.302 1158.2 408.075 1158.5 407.755C1158.8 407.435 1159 407.034 1159.07 406.603C1159.14 406.171 1159.09 405.728 1158.92 405.326C1158.74 404.925 1158.45 404.584 1158.09 404.344C1157.72 404.104 1157.29 403.976 1156.85 403.977C1156.24 403.999 1155.66 404.266 1155.24 404.717C1154.82 405.168 1154.59 405.768 1154.61 406.384Z" fill="#FFFF00"/>
<path opacity="0.25" d="M1166.91 515.695C1165.68 515.695 1164.67 514.617 1164.67 513.287C1164.67 511.957 1165.68 510.879 1166.91 510.879C1168.15 510.879 1169.16 511.957 1169.16 513.287C1169.16 514.617 1168.15 515.695 1166.91 515.695Z" fill="#FFFF00"/>
<path opacity="0.25" d="M1061.8 602.348C1061.83 602.785 1061.99 603.203 1062.26 603.551C1062.52 603.899 1062.88 604.162 1063.29 604.308C1063.71 604.454 1064.15 604.476 1064.58 604.372C1065 604.267 1065.39 604.041 1065.69 603.721C1065.99 603.401 1066.18 603 1066.26 602.569C1066.33 602.137 1066.28 601.694 1066.1 601.292C1065.93 600.891 1065.64 600.549 1065.28 600.309C1064.91 600.069 1064.48 599.941 1064.04 599.941C1063.43 599.964 1062.84 600.23 1062.42 600.681C1062 601.132 1061.78 601.732 1061.8 602.348Z" fill="#FFFF00"/>
<path opacity="0.25" d="M1133.08 445.662C1133.11 446.098 1133.27 446.516 1133.53 446.864C1133.8 447.212 1134.16 447.475 1134.57 447.621C1134.99 447.766 1135.43 447.788 1135.86 447.684C1136.28 447.58 1136.67 447.353 1136.97 447.033C1137.27 446.713 1137.46 446.312 1137.54 445.881C1137.61 445.45 1137.56 445.006 1137.38 444.605C1137.21 444.203 1136.92 443.862 1136.55 443.622C1136.19 443.382 1135.76 443.254 1135.32 443.254C1134.71 443.276 1134.12 443.542 1133.7 443.994C1133.28 444.445 1133.06 445.045 1133.08 445.662Z" fill="#FFFF00"/>
<path opacity="0.25" d="M1145.67 414.026C1145.7 414.463 1145.85 414.881 1146.12 415.23C1146.38 415.578 1146.75 415.842 1147.16 415.988C1147.57 416.134 1148.02 416.156 1148.44 416.052C1148.87 415.947 1149.26 415.721 1149.55 415.401C1149.85 415.08 1150.05 414.68 1150.13 414.248C1150.2 413.816 1150.15 413.372 1149.97 412.97C1149.8 412.569 1149.51 412.227 1149.14 411.987C1148.77 411.747 1148.35 411.619 1147.91 411.619C1147.29 411.642 1146.71 411.908 1146.29 412.359C1145.87 412.81 1145.64 413.409 1145.67 414.026V414.026Z" fill="#FFFF00"/>
<path opacity="0.25" d="M1146.75 487.982C1146.79 488.583 1147.01 489.159 1147.38 489.638C1147.74 490.117 1148.24 490.48 1148.81 490.68C1149.38 490.881 1149.99 490.911 1150.57 490.768C1151.16 490.624 1151.69 490.313 1152.1 489.872C1152.51 489.431 1152.78 488.88 1152.89 488.286C1152.99 487.692 1152.91 487.082 1152.67 486.529C1152.43 485.977 1152.04 485.506 1151.53 485.176C1151.03 484.846 1150.44 484.67 1149.84 484.67C1148.99 484.701 1148.19 485.067 1147.61 485.688C1147.03 486.309 1146.72 487.134 1146.75 487.982V487.982Z" fill="#FFFF00"/>
<path opacity="0.62" d="M1147.9 503.697C1147.93 504.133 1148.09 504.551 1148.36 504.899C1148.62 505.247 1148.98 505.51 1149.4 505.656C1149.81 505.801 1150.26 505.823 1150.68 505.719C1151.11 505.615 1151.49 505.389 1151.79 505.068C1152.09 504.748 1152.29 504.348 1152.36 503.917C1152.43 503.486 1152.38 503.042 1152.21 502.641C1152.03 502.239 1151.74 501.898 1151.38 501.658C1151.01 501.417 1150.59 501.289 1150.15 501.289C1149.53 501.311 1148.95 501.578 1148.53 502.029C1148.11 502.48 1147.88 503.08 1147.9 503.697V503.697Z" fill="#FFFF00"/>
<path opacity="0.62" d="M1141.82 421.975C1141.85 422.411 1142.01 422.829 1142.27 423.178C1142.54 423.526 1142.9 423.789 1143.31 423.935C1143.72 424.081 1144.17 424.103 1144.6 423.998C1145.02 423.894 1145.41 423.668 1145.7 423.348C1146 423.027 1146.2 422.627 1146.28 422.196C1146.35 421.764 1146.3 421.321 1146.12 420.919C1145.95 420.518 1145.66 420.176 1145.29 419.936C1144.93 419.696 1144.5 419.568 1144.06 419.568C1143.44 419.591 1142.86 419.857 1142.44 420.308C1142.02 420.759 1141.8 421.359 1141.82 421.975V421.975Z" fill="#FFFF00"/>
<path opacity="0.62" d="M1143.42 432.513C1143.45 432.95 1143.61 433.368 1143.88 433.716C1144.14 434.064 1144.5 434.327 1144.92 434.472C1145.33 434.618 1145.77 434.64 1146.2 434.535C1146.62 434.431 1147.01 434.204 1147.31 433.884C1147.61 433.564 1147.8 433.163 1147.88 432.732C1147.95 432.3 1147.9 431.857 1147.72 431.455C1147.55 431.054 1147.26 430.713 1146.89 430.473C1146.53 430.233 1146.1 430.105 1145.66 430.105C1145.05 430.128 1144.46 430.394 1144.04 430.846C1143.62 431.297 1143.4 431.897 1143.42 432.513V432.513Z" fill="#FFFF00"/>
<path opacity="0.62" d="M1156.86 379.426C1156.89 379.863 1157.04 380.281 1157.31 380.63C1157.57 380.978 1157.94 381.242 1158.35 381.388C1158.76 381.534 1159.21 381.557 1159.63 381.452C1160.06 381.348 1160.44 381.122 1160.74 380.802C1161.04 380.481 1161.24 380.081 1161.31 379.649C1161.39 379.217 1161.34 378.773 1161.16 378.372C1160.99 377.97 1160.7 377.628 1160.33 377.388C1159.97 377.148 1159.54 377.02 1159.1 377.02C1158.48 377.042 1157.9 377.308 1157.48 377.759C1157.06 378.21 1156.83 378.81 1156.86 379.426V379.426Z" fill="#FFFF00"/>
<path opacity="0.62" d="M1166.92 555.044C1166.95 555.481 1167.11 555.899 1167.37 556.247C1167.64 556.595 1168 556.859 1168.41 557.005C1168.82 557.151 1169.27 557.173 1169.69 557.069C1170.12 556.965 1170.5 556.739 1170.8 556.419C1171.1 556.098 1171.3 555.698 1171.37 555.267C1171.45 554.835 1171.4 554.391 1171.22 553.99C1171.05 553.589 1170.76 553.247 1170.39 553.007C1170.03 552.767 1169.6 552.639 1169.16 552.639C1168.54 552.662 1167.96 552.928 1167.54 553.378C1167.12 553.829 1166.9 554.428 1166.92 555.044V555.044Z" fill="#FFFF00"/>
<circle cx="634" cy="752" r="105" fill="#FDF4F3"/>
</g>
<defs>
<linearGradient id="paint0_linear" x1="1097.18" y1="401.661" x2="1153.52" y2="751.971" gradientUnits="userSpaceOnUse">
<stop stop-color="#A80C42"/>
<stop offset="0.296875" stop-color="#BD4258"/>
<stop offset="1" stop-color="#F67B92"/>
</linearGradient>
</defs>
</svg>
