<svg viewBox="0 0 206 205" fill="none" xmlns="http://www.w3.org/2000/svg">
<g filter="url(#filter0_d)">
<path d="M133.435 79.3521H131.879C133.663 77.894 134.909 75.884 135.422 73.6397C135.934 71.3953 135.682 69.0446 134.707 66.9589C133.731 64.8733 132.087 63.1716 130.035 62.1227C127.982 61.0739 125.639 60.7377 123.373 61.1673C121.257 61.5372 119.313 62.5676 117.82 64.1103C116.327 65.6531 115.363 67.6287 115.066 69.7531C114.781 71.5375 114.971 73.3652 115.617 75.0531C116.263 76.7409 117.342 78.2294 118.747 79.3693H118.403C116.328 79.3694 114.29 79.9135 112.493 80.9472C110.695 81.9809 109.201 83.4678 108.16 85.2592L105.812 89.3203L99.9212 85.7572C98.4942 84.9231 96.7978 84.6771 95.1921 85.0715C93.5863 85.4658 92.1978 86.4695 91.3212 87.8693C90.8803 88.5797 90.5851 89.3706 90.4528 90.1958C90.3205 91.0211 90.3538 91.8644 90.5506 92.6768C90.7474 93.4891 91.1039 94.2543 91.5994 94.928C92.0948 95.6017 92.7194 96.1704 93.4368 96.6011L104.006 103.041C105.497 103.918 107.251 104.239 108.956 103.947C110.662 103.654 112.208 102.767 113.32 101.444V111.927C113.32 112.496 113.547 113.042 113.95 113.445C114.353 113.847 114.9 114.073 115.47 114.073C116.04 114.073 116.587 113.847 116.99 113.445C117.394 113.042 117.62 112.496 117.62 111.927V95.2445C117.62 94.7976 117.481 94.3618 117.221 93.9978C116.961 93.6339 116.594 93.36 116.17 93.2144C115.747 93.0689 115.289 93.0588 114.86 93.1857C114.43 93.3126 114.051 93.5701 113.776 93.9223L110.086 98.636C109.639 99.2045 109 99.5918 108.289 99.7259C107.577 99.8601 106.841 99.7322 106.216 99.3658L95.6556 92.8834C95.4264 92.7487 95.2259 92.5702 95.0658 92.3581C94.9056 92.1461 94.7889 91.9046 94.7222 91.6474C94.6555 91.3903 94.6402 91.1226 94.6771 90.8596C94.7141 90.5966 94.8026 90.3434 94.9375 90.1145C95.0725 89.8856 95.2513 89.6855 95.4637 89.5256C95.6761 89.3657 95.918 89.2491 96.1756 89.1826C96.4331 89.116 96.7013 89.1007 96.9647 89.1376C97.2282 89.1745 97.4818 89.2628 97.711 89.3976L105.451 94.1198C105.696 94.2691 105.969 94.3678 106.253 94.4102C106.537 94.4525 106.826 94.4376 107.105 94.3664C107.383 94.2952 107.644 94.1691 107.872 93.9955C108.101 93.8219 108.292 93.6043 108.435 93.3557L111.875 87.3971C112.535 86.258 113.483 85.312 114.624 84.6535C115.765 83.995 117.059 83.6473 118.377 83.6451H119.804C120.656 83.6452 121.484 83.3705 122.167 82.862C122.849 82.3535 123.348 81.6384 123.59 80.8234C123.832 80.0084 123.803 79.1372 123.508 78.3397C123.214 77.5423 122.669 76.8614 121.954 76.3986C120.973 75.7635 120.199 74.8569 119.726 73.7896C119.252 72.7224 119.1 71.5405 119.288 70.3885C119.464 69.1542 120.026 68.007 120.894 67.1109C121.762 66.2149 122.892 65.6161 124.122 65.4001C125.502 65.1337 126.932 65.3536 128.167 66.0224C129.403 66.6911 130.368 67.7672 130.898 69.0671C131.428 70.367 131.489 71.8101 131.072 73.1503C130.655 74.4904 129.785 75.6445 128.611 76.4158C127.899 76.8809 127.357 77.5629 127.066 78.3603C126.774 79.1578 126.748 80.028 126.991 80.8414C127.235 81.6549 127.735 82.368 128.417 82.8748C129.1 83.3815 129.928 83.6547 130.778 83.6536H133.418C135.495 83.6559 137.487 84.4807 138.956 85.9471C140.424 87.4134 141.251 89.4016 141.253 91.4754V107.96C141.253 108.484 141.044 108.986 140.673 109.357C140.303 109.727 139.799 109.935 139.275 109.935C138.75 109.935 138.247 109.727 137.876 109.357C137.505 108.986 137.297 108.484 137.297 107.96V95.0814C137.297 94.5121 137.07 93.9662 136.667 93.5636C136.264 93.1611 135.717 92.9349 135.147 92.9349C134.577 92.9349 134.03 93.1611 133.627 93.5636C133.223 93.9662 132.997 94.5121 132.997 95.0814V107.96C132.997 108.783 133.159 109.598 133.475 110.359C133.79 111.119 134.253 111.81 134.836 112.392C135.419 112.974 136.111 113.436 136.872 113.751C137.634 114.066 138.45 114.228 139.275 114.228C140.099 114.228 140.916 114.066 141.677 113.751C142.439 113.436 143.131 112.974 143.714 112.392C144.297 111.81 144.759 111.119 145.075 110.359C145.39 109.598 145.553 108.783 145.553 107.96V91.4668C145.551 88.2574 144.274 85.1799 142.002 82.909C139.731 80.638 136.65 79.3589 133.435 79.3521Z" fill="#F67B92"/>
<path d="M62.5799 144.862C63.1501 144.862 63.697 144.636 64.1002 144.234C64.5034 143.831 64.7299 143.285 64.7299 142.716V140.329C64.7322 138.884 65.3083 137.498 66.3319 136.476C67.3556 135.454 68.7433 134.879 70.1909 134.877C71.0506 134.875 71.8869 134.597 72.5762 134.084C73.2655 133.571 73.7714 132.851 74.0191 132.029C74.2669 131.207 74.2433 130.328 73.952 129.52C73.6606 128.713 73.1169 128.02 72.4011 127.545C71.6546 127.044 71.0424 126.368 70.6181 125.576C70.1938 124.784 69.9704 123.901 69.9673 123.003C69.9983 121.585 70.5665 120.231 71.5576 119.214C72.5486 118.198 73.8888 117.594 75.3079 117.525C76.5019 117.487 77.6758 117.839 78.6522 118.526C79.6287 119.213 80.3548 120.198 80.7209 121.333C81.087 122.469 81.0732 123.692 80.6816 124.819C80.29 125.945 79.5419 126.914 78.5501 127.579C77.8376 128.056 77.2972 128.749 77.0086 129.556C76.7199 130.362 76.6982 131.24 76.9466 132.06C77.195 132.88 77.7004 133.599 78.3885 134.11C79.0765 134.622 79.9109 134.9 80.7689 134.903C82.2166 134.905 83.6043 135.48 84.6279 136.502C85.6516 137.524 86.2277 138.91 86.2299 140.355V142.742C86.2299 143.311 86.4564 143.857 86.8597 144.259C87.2629 144.662 87.8097 144.888 88.3799 144.888C88.9501 144.888 89.497 144.662 89.9002 144.259C90.3034 143.857 90.5299 143.311 90.5299 142.742V140.329C90.5322 138.884 91.1083 137.498 92.1319 136.476C93.1556 135.454 94.5433 134.879 95.9909 134.877C96.8506 134.875 97.6869 134.597 98.3762 134.084C99.0655 133.571 99.5714 132.851 99.8191 132.029C100.067 131.207 100.043 130.328 99.752 129.52C99.4606 128.713 98.9169 128.02 98.2011 127.545C97.4557 127.043 96.8448 126.367 96.4219 125.575C95.9991 124.783 95.7773 123.9 95.7759 123.003C95.8069 121.585 96.3751 120.231 97.3662 119.214C98.3572 118.198 99.6974 117.594 101.117 117.525C102.311 117.487 103.484 117.839 104.461 118.526C105.437 119.213 106.163 120.198 106.529 121.333C106.896 122.469 106.882 123.692 106.49 124.819C106.099 125.945 105.35 126.914 104.359 127.579C103.646 128.056 103.106 128.749 102.817 129.556C102.529 130.362 102.507 131.24 102.755 132.06C103.004 132.88 103.509 133.599 104.197 134.11C104.885 134.622 105.72 134.9 106.578 134.903C108.025 134.905 109.413 135.48 110.437 136.502C111.46 137.524 112.036 138.91 112.039 140.355V142.742C112.039 143.311 112.265 143.857 112.668 144.259C113.071 144.662 113.618 144.888 114.189 144.888C114.759 144.888 115.306 144.662 115.709 144.259C116.112 143.857 116.339 143.311 116.339 142.742V140.329C116.341 138.884 116.917 137.498 117.941 136.476C118.964 135.454 120.352 134.879 121.8 134.877C122.659 134.875 123.495 134.597 124.185 134.084C124.874 133.571 125.38 132.851 125.628 132.029C125.875 131.207 125.852 130.328 125.561 129.52C125.269 128.713 124.726 128.02 124.01 127.545C123.263 127.044 122.65 126.369 122.226 125.577C121.801 124.785 121.578 123.901 121.576 123.003C121.607 121.585 122.175 120.231 123.166 119.214C124.157 118.198 125.497 117.594 126.917 117.525C128.111 117.487 129.284 117.839 130.261 118.526C131.237 119.213 131.963 120.198 132.329 121.333C132.696 122.469 132.682 123.692 132.29 124.819C131.899 125.945 131.15 126.914 130.159 127.579C129.446 128.056 128.906 128.749 128.617 129.556C128.329 130.362 128.307 131.24 128.555 132.06C128.804 132.88 129.309 133.599 129.997 134.11C130.685 134.622 131.52 134.9 132.378 134.903C133.825 134.905 135.213 135.48 136.237 136.502C137.26 137.524 137.836 138.91 137.839 140.355V142.742C137.839 143.311 138.065 143.857 138.468 144.259C138.871 144.662 139.418 144.888 139.989 144.888C140.559 144.888 141.106 144.662 141.509 144.259C141.912 143.857 142.139 143.311 142.139 142.742V140.329C142.135 137.892 141.219 135.545 139.571 133.748C137.922 131.951 135.66 130.835 133.229 130.618C134.814 129.349 135.965 127.619 136.524 125.669C137.082 123.718 137.02 121.642 136.346 119.728C135.672 117.814 134.419 116.156 132.761 114.983C131.103 113.811 129.121 113.181 127.089 113.181C125.056 113.181 123.074 113.811 121.416 114.983C119.758 116.156 118.505 117.814 117.831 119.728C117.157 121.642 117.095 123.718 117.654 125.669C118.212 127.619 119.363 129.349 120.948 130.618C119.633 130.734 118.355 131.114 117.192 131.737C116.028 132.36 115.004 133.212 114.18 134.242C113.357 133.213 112.334 132.361 111.172 131.739C110.01 131.116 108.734 130.735 107.42 130.618C109.003 129.349 110.151 127.621 110.708 125.672C111.265 123.723 111.202 121.65 110.528 119.739C109.854 117.827 108.602 116.172 106.946 115C105.289 113.829 103.31 113.2 101.28 113.2C99.2501 113.2 97.2704 113.829 95.6139 115C93.9574 116.172 92.7058 117.827 92.032 119.739C91.3581 121.65 91.2951 123.723 91.8518 125.672C92.4084 127.621 93.5572 129.349 95.1395 130.618C93.826 130.735 92.5497 131.116 91.3879 131.739C90.226 132.361 89.2027 133.213 88.3799 134.242C87.5571 133.213 86.5339 132.361 85.372 131.739C84.2102 131.116 82.9339 130.735 81.6203 130.618C83.2027 129.349 84.3515 127.621 84.9081 125.672C85.4647 123.723 85.4018 121.65 84.7279 119.739C84.054 117.827 82.8025 116.172 81.146 115C79.4895 113.829 77.5097 113.2 75.4799 113.2C73.4501 113.2 71.4704 113.829 69.8139 115C68.1574 116.172 66.9058 117.827 66.232 119.739C65.5581 121.65 65.4951 123.723 66.0518 125.672C66.6084 127.621 67.7572 129.349 69.3395 130.618C66.9084 130.835 64.6463 131.951 62.9977 133.748C61.3491 135.545 60.4332 137.892 60.4299 140.329V142.716C60.4299 143.285 60.6564 143.831 61.0597 144.234C61.2593 144.433 61.4963 144.591 61.7572 144.699C62.018 144.807 62.2976 144.862 62.5799 144.862Z" fill="#F67B92"/>
<path d="M67.4389 65.289H111.299C111.869 65.289 112.416 65.0629 112.819 64.6603C113.222 64.2578 113.449 63.7118 113.449 63.1426C113.449 62.5733 113.222 62.0273 112.819 61.6248C112.416 61.2222 111.869 60.9961 111.299 60.9961H67.4389C65.5822 60.9984 63.8021 61.7351 62.4884 63.0451C61.1747 64.355 60.4345 66.1313 60.4299 67.985V101.753C60.4322 103.608 61.1714 105.387 62.4853 106.699C63.7993 108.01 65.5807 108.748 67.4389 108.751H98.5107C99.0809 108.751 99.6278 108.524 100.031 108.122C100.434 107.719 100.661 107.173 100.661 106.604C100.661 106.035 100.434 105.489 100.031 105.086C99.6278 104.684 99.0809 104.458 98.5107 104.458H67.4389C66.7205 104.458 66.0314 104.173 65.5234 103.666C65.0153 103.158 64.7299 102.47 64.7299 101.753V67.985C64.7322 67.2692 65.0186 66.5835 65.5264 66.0781C66.0342 65.5728 66.7219 65.289 67.4389 65.289Z" fill="#F67B92"/>
</g>
<defs>
<filter id="filter0_d" x="0.429932" y="0.985352" width="205.123" height="203.903" filterUnits="userSpaceOnUse" color-interpolation-filters="sRGB">
<feFlood flood-opacity="0" result="BackgroundImageFix"/>
<feColorMatrix in="SourceAlpha" type="matrix" values="0 0 0 0 0 0 0 0 0 0 0 0 0 0 0 0 0 0 127 0"/>
<feOffset/>
<feGaussianBlur stdDeviation="30"/>
<feColorMatrix type="matrix" values="0 0 0 0 0.992157 0 0 0 0 0.368627 0 0 0 0 0.352941 0 0 0 0.4 0"/>
<feBlend mode="normal" in2="BackgroundImageFix" result="effect1_dropShadow"/>
<feBlend mode="normal" in="SourceGraphic" in2="effect1_dropShadow" result="shape"/>
</filter>
</defs>
</svg>
