<svg width="32" height="20" viewBox="0 0 32 20" fill="none" xmlns="http://www.w3.org/2000/svg">
<path d="M26.5533 11.372C26.036 10.7186 26.184 10.428 26.5533 9.84397C26.56 9.8373 30.8307 3.93597 31.2707 1.93464L31.2733 1.9333C31.492 1.20397 31.2733 0.667969 30.216 0.667969H26.7173C25.8267 0.667969 25.416 1.12797 25.196 1.64264C25.196 1.64264 23.4147 5.90664 20.8947 8.67064C20.0813 9.4693 19.7053 9.7253 19.2613 9.7253C19.0427 9.7253 18.7027 9.4693 18.7027 8.73997V1.9333C18.7027 1.05864 18.4533 0.667969 17.716 0.667969H12.2147C11.656 0.667969 11.324 1.07597 11.324 1.45597C11.324 2.2853 12.584 2.47597 12.7147 4.8093V9.87197C12.7147 10.9813 12.5133 11.1853 12.0667 11.1853C10.8773 11.1853 7.99067 6.90397 6.28 2.00397C5.93467 1.0533 5.59733 0.669302 4.7 0.669302H1.2C0.201333 0.669302 0 1.1293 0 1.64397C0 2.5533 1.18933 7.07464 5.53067 13.048C8.424 17.1253 12.4987 19.3346 16.2053 19.3346C18.4333 19.3346 18.7053 18.844 18.7053 18C18.7053 14.104 18.504 13.736 19.62 13.736C20.1373 13.736 21.028 13.992 23.108 15.9586C25.4853 18.2906 25.876 19.3346 27.2067 19.3346H30.7053C31.7027 19.3346 32.208 18.844 31.9173 17.876C31.252 15.84 26.756 11.652 26.5533 11.372Z" fill="#4B729F"/>
</svg>
