<svg width="33" height="25" viewBox="0 0 33 25" fill="none" xmlns="http://www.w3.org/2000/svg">
<path d="M32.3201 4.57829C31.9397 3.16461 30.8251 2.05028 29.4117 1.66961C26.8293 0.962891 16.4997 0.962891 16.4997 0.962891C16.4997 0.962891 6.17035 0.962891 3.58796 1.64267C2.20172 2.02309 1.05995 3.16486 0.679524 4.57829C0 7.16044 0 12.5156 0 12.5156C0 12.5156 0 17.8976 0.679524 20.4528C1.0602 21.8663 2.17453 22.9808 3.58821 23.3615C6.19755 24.0682 16.4999 24.0682 16.4999 24.0682C16.4999 24.0682 26.8293 24.0682 29.4117 23.3885C30.8253 23.008 31.9397 21.8935 32.3203 20.48C32.9999 17.8976 32.9999 12.5428 32.9999 12.5428C32.9999 12.5428 33.0271 7.16044 32.3201 4.57829Z" fill="#FF0000"/>
<path d="M13.2108 17.4629L21.8005 12.5156L13.2108 7.56836V17.4629Z" fill="white"/>
</svg>
