<svg width="20" height="12" viewBox="0 0 20 12" fill="none" xmlns="http://www.w3.org/2000/svg">
<path opacity="0.2" d="M17.8806 4.45627C19.9501 1.65445 19.4911 1.60196 20 0.726562H16.0341C16.0341 0.726562 15.7523 1.70511 15.6662 1.88028C14.9045 3.4295 13.196 5.75403 12.1626 5.99161C11.1452 6.22568 11.2802 3.8212 11.3429 2.77963C11.402 1.81421 11.3919 1.47638 11.3635 1.3096C11.322 1.06592 11.1176 0.888153 10.8722 0.857178C10.3664 0.793091 9.44855 0.702454 8.42072 0.750061L7.50122 0.780579C7.86377 1.59158 8.10867 1.34302 8.24219 2.28128C8.39294 3.37976 8.33359 6.05264 7.25174 6.05264C5.51743 6.05264 3.57071 0.843903 3.50876 0.726562H0L0.321045 1.52994C2.90848 8.00729 6.14456 11.0073 10.5722 11.2568L11.1484 11.2734L11.1896 10.7139C11.2518 9.84979 11.6853 8.6059 12.4542 8.6059C13.5902 8.6059 13.9185 8.93671 14.6677 9.86246C15.388 10.7501 15.8844 11.2734 17.0468 11.2734H20L19.5789 10.4266C18.9212 9.10623 17.6021 7.97433 17.0869 7.31775C16.9003 7.07056 16.7166 6.67978 16.9067 6.20706C17.0622 5.79538 17.5252 4.93677 17.8806 4.45627Z" fill="black"/>
</svg>
