<svg width="114" height="122" viewBox="0 0 114 122" fill="none" xmlns="http://www.w3.org/2000/svg">
<circle opacity="0.07" cx="42" cy="80" r="42" fill="#8EA8FF"/>
<path d="M89.8439 65.738L71.8168 60.7311V56.3956L75.6156 57.5354L77.6223 57.5942C82.1424 57.5942 85.8195 53.9171 85.8195 49.397C85.8195 48.5629 86.0171 47.7294 86.3897 46.9835L88.0867 43.5874C89.9403 43.5006 91.4206 41.9649 91.4206 40.0909C91.4206 39.3394 91.1731 38.5942 90.7205 37.9905L90.1981 37.2944C88.2768 34.7339 87.2198 31.5607 87.2198 28.3581C87.2198 26.8895 86.8485 25.479 86.1586 24.2291L86.6222 23.7656C89.7167 20.671 91.4206 16.5571 91.4206 12.1799C91.4206 8.658 90.2569 5.16554 88.1442 2.34791L86.3781 0L85.4763 0.225629C78.157 2.05527 70.5649 2.98377 62.91 2.98377H62.1408C49.7182 2.98377 39.6107 13.0913 39.6107 25.5145C39.6107 29.3345 40.5912 33.1175 42.5076 36.5567L47.3963 43.8226C48.8218 45.9387 49.9534 48.2422 50.7609 50.666C51.7242 53.5561 52.2131 56.5652 52.2131 59.6105V60.7311L34.186 65.738C29.9599 66.9134 27.0083 70.7962 27.0083 75.183V86.9998H97.0217V75.183C97.0217 70.7962 94.07 66.9134 89.8439 65.738ZM70.6586 63.3156L71.6726 63.5973L69.5988 71.8936L64.3506 67.5212L70.6586 63.3156ZM87.9575 38.975L88.4785 39.6697C88.5708 39.7927 88.62 39.9384 88.62 40.0909C88.62 40.4778 88.3062 40.791 87.9199 40.791H86.3542L83.8859 45.7302C83.3185 46.8611 83.019 48.1301 83.019 49.397C83.019 52.3726 80.5979 54.7937 77.6223 54.7937H76.2234L62.417 50.6517L61.6129 53.3346L69.0163 55.5553V61.0463L62.015 65.7134L55.0136 61.0463V59.6105C55.0136 58.282 54.9042 56.9617 54.7367 55.651L55.2529 55.1342C58.7105 51.6766 60.6147 47.0799 60.6147 42.1913V40.791H57.8142C56.2696 40.791 55.0136 39.535 55.0136 37.9905C55.0136 36.4459 56.2696 35.1899 57.8142 35.1899H60.6147V31.9723C60.6147 29.8493 61.3442 27.7674 62.6707 26.1094C64.4627 23.8715 67.1333 22.5875 69.9995 22.5875H78.6486C80.1904 22.5875 81.6399 23.1885 82.7291 24.2777C83.8189 25.3675 84.4192 26.8177 84.4192 28.3581C84.4192 32.1631 85.6753 35.9324 87.9575 38.975ZM53.3713 63.3156L59.6794 67.5212L54.4311 71.8936L52.3574 63.5973L53.3713 63.3156ZM49.7196 42.2603L44.8938 35.0949C43.27 32.1726 42.4112 28.8593 42.4112 25.5145C42.4112 14.6358 51.2627 5.78431 62.1408 5.78431H62.91C70.4993 5.78431 78.0298 4.8982 85.2554 3.16291L85.9036 4.0285C87.6553 6.36547 88.62 9.25968 88.62 12.1799C88.62 15.8077 87.2075 19.2188 84.6421 21.7855L84.4056 22.0221C82.8241 20.5828 80.7996 19.787 78.6486 19.787H69.9995C66.2773 19.787 62.8101 21.4532 60.4848 24.3604C58.7625 26.5128 57.8142 29.2149 57.8142 31.9723V32.3894C54.7251 32.3894 52.2131 34.9014 52.2131 37.9905C52.2131 41.0583 54.693 43.558 57.7526 43.5915C57.4682 46.7886 56.2081 49.7806 54.1234 52.227C53.9217 51.4038 53.6879 50.5874 53.4185 49.7806C52.531 47.1161 51.2846 44.5857 49.7196 42.2603ZM94.2211 84.1993H29.8088V75.183C29.8088 72.0509 31.9174 69.2756 34.9368 68.4367L49.658 64.348L52.797 76.9012L62.015 69.2196L71.2329 76.9026L74.3726 64.3494L89.0932 68.4381C92.1125 69.2756 94.2211 72.0495 94.2211 75.183V84.1993Z" fill="url(#paint0_linear)"/>
<path d="M108.082 29.7305L106.102 31.7105C109.277 34.8837 111.024 39.1036 111.024 43.5916C111.024 48.0796 109.277 52.3002 106.102 55.4734L108.082 57.4528C111.786 53.7511 113.825 48.8289 113.825 43.5916C113.825 38.355 111.786 33.4328 108.082 29.7305Z" fill="url(#paint1_linear)"/>
<path d="M104.123 33.6904L102.143 35.6705C104.258 37.7859 105.423 40.5995 105.423 43.5914C105.423 46.5841 104.258 49.3969 102.143 51.5131L104.123 53.4931C106.766 50.8492 108.224 47.3314 108.224 43.5914C108.224 39.8515 106.766 36.3344 104.123 33.6904Z" fill="url(#paint2_linear)"/>
<path d="M100.163 37.6509L98.1826 39.6303C99.2397 40.6894 99.8222 42.0965 99.8222 43.5918C99.8222 45.0878 99.2397 46.4949 98.1826 47.5533L100.163 49.5333C101.749 47.9457 102.623 45.8364 102.623 43.5918C102.623 41.3471 101.749 39.2385 100.163 37.6509Z" fill="url(#paint3_linear)"/>
<defs>
<linearGradient id="paint0_linear" x1="62.015" y1="0" x2="62.015" y2="86.9998" gradientUnits="userSpaceOnUse">
<stop stop-color="#4D71EE"/>
<stop offset="1" stop-color="#4DC7EE"/>
</linearGradient>
<linearGradient id="paint1_linear" x1="109.964" y1="29.7305" x2="109.964" y2="57.4528" gradientUnits="userSpaceOnUse">
<stop stop-color="#4D71EE"/>
<stop offset="1" stop-color="#4DC7EE"/>
</linearGradient>
<linearGradient id="paint2_linear" x1="105.183" y1="33.6904" x2="105.183" y2="53.4931" gradientUnits="userSpaceOnUse">
<stop stop-color="#4D71EE"/>
<stop offset="1" stop-color="#4DC7EE"/>
</linearGradient>
<linearGradient id="paint3_linear" x1="100.403" y1="37.6509" x2="100.403" y2="49.5333" gradientUnits="userSpaceOnUse">
<stop stop-color="#4D71EE"/>
<stop offset="1" stop-color="#4DC7EE"/>
</linearGradient>
</defs>
</svg>
