<svg width="229" height="198" viewBox="0 0 229 198" fill="none" xmlns="http://www.w3.org/2000/svg">
<g filter="url(#filter0_d)">
<path d="M124.1 93.518H115.691C108.505 93.518 102.696 87.704 102.696 80.513V78.218C102.696 63.836 91.0762 52.208 76.7049 52.208C62.3336 52.208 50.7143 63.836 50.7143 78.218V142.631C50.7143 145.538 53.1605 147.986 56.0653 147.986H141.376C144.281 147.986 146.727 145.538 146.727 142.631V116.315C146.88 103.769 136.636 93.518 124.1 93.518ZM76.7049 56C88.4772 56 98.8734 66.437 98.8734 78.218V80.513C98.8734 90.152 105.295 97.3333 114.926 97.3333H123.335C133.426 97.3333 142.98 106.217 142.98 116.315V124.667L54.6824 124.82V78.524C54.6824 66.59 64.9327 56 76.7049 56ZM141.642 144H56.3314C55.8728 144 54.6824 143.243 54.6824 142.784V128.861H62.9452V135.593C62.9452 136.817 64.0154 137.888 65.2385 137.888C66.4616 137.888 67.5318 136.817 67.5318 135.593V128.861H72.1183V135.593C72.1183 136.817 73.1885 137.888 74.4116 137.888C75.6347 137.888 76.7049 136.817 76.7049 135.593V128.861H87.407V135.593C87.407 136.817 88.4772 137.888 89.7002 137.888C90.9233 137.888 91.9935 136.817 91.9935 135.593V128.861H96.5801V135.593C96.5801 136.817 97.6503 137.888 98.8734 137.888C100.096 137.888 101.167 136.817 101.167 135.593V128.861H105.753V135.593C105.753 136.817 106.823 137.888 108.047 137.888C109.27 137.888 110.34 136.817 110.34 135.593V128.861H121.042V135.593C121.042 136.817 122.112 137.888 123.335 137.888C124.558 137.888 125.628 136.817 125.628 135.593V128.861H130.215V135.593C130.215 136.817 131.285 137.888 132.508 137.888C133.731 137.888 134.802 136.817 134.802 135.593V128.861L142.827 128.708V142.631C142.98 143.09 142.101 144 141.642 144Z" fill="#F67B92"/>
<path d="M67.5318 100.25C68.1433 100.25 68.7549 100.097 69.2135 99.6379L75.9405 92.9059C76.8578 91.9879 76.8578 90.6109 75.9405 89.6929C75.0232 88.7749 73.6472 88.7749 72.7299 89.6929L66.0029 96.4249C65.0856 97.3429 65.0856 98.7199 66.0029 99.6379C66.4616 99.9439 66.9202 100.25 67.5318 100.25Z" fill="#F67B92"/>
<path d="M67.5318 114.938C68.1433 114.938 68.7549 114.785 69.2135 114.326L90.1589 93.3649C91.0762 92.4469 91.0762 91.0699 90.1589 90.1519C89.2416 89.2339 87.8656 89.2339 86.9483 90.1519L66.0029 111.113C65.0856 112.031 65.0856 113.408 66.0029 114.326C66.4616 114.785 66.9202 114.938 67.5318 114.938Z" fill="#F67B92"/>
<path d="M125.122 63.814C121.322 63.814 118.23 60.7155 118.23 56.907C118.23 53.0985 121.322 50 125.122 50C128.923 50 132.015 53.0985 132.015 56.907C132.015 60.7155 128.923 63.814 125.122 63.814ZM125.122 53.4535C123.222 53.4535 121.676 55.0027 121.676 56.907C121.676 58.8112 123.222 60.3605 125.122 60.3605C127.022 60.3605 128.568 58.8112 128.568 56.907C128.568 55.0027 127.022 53.4535 125.122 53.4535Z" fill="#F67B92"/>
<path d="M172 97C168.14 97 165 93.8598 165 90C165 86.1402 168.14 83 172 83C175.86 83 179 86.1402 179 90C179 93.8598 175.86 97 172 97ZM172 86.5C170.07 86.5 168.5 88.0701 168.5 90C168.5 91.9299 170.07 93.5 172 93.5C173.93 93.5 175.5 91.9299 175.5 90C175.5 88.0701 173.93 86.5 172 86.5Z" fill="#F67B92"/>
</g>
<defs>
<filter id="filter0_d" x="0.714294" y="0" width="228.286" height="197.986" filterUnits="userSpaceOnUse" color-interpolation-filters="sRGB">
<feFlood flood-opacity="0" result="BackgroundImageFix"/>
<feColorMatrix in="SourceAlpha" type="matrix" values="0 0 0 0 0 0 0 0 0 0 0 0 0 0 0 0 0 0 127 0"/>
<feOffset/>
<feGaussianBlur stdDeviation="25"/>
<feColorMatrix type="matrix" values="0 0 0 0 0.992157 0 0 0 0 0.368627 0 0 0 0 0.352941 0 0 0 0.5 0"/>
<feBlend mode="normal" in2="BackgroundImageFix" result="effect1_dropShadow"/>
<feBlend mode="normal" in="SourceGraphic" in2="effect1_dropShadow" result="shape"/>
</filter>
</defs>
</svg>
