<svg width="40" height="44" viewBox="0 0 40 44" fill="none" xmlns="http://www.w3.org/2000/svg">
<path d="M33.3184 19.7506C32.7522 19.7506 32.293 20.213 32.293 20.7835V22.1609C32.293 28.9888 26.7785 34.5436 20.0001 34.5436C13.2218 34.5436 7.7074 28.9886 7.7074 22.1608V20.7835C7.7074 20.2129 7.24817 19.7505 6.68195 19.7505C6.11556 19.7505 5.65649 20.2129 5.65649 20.7835V22.1608C5.65649 29.7805 11.5424 36.0407 18.9747 36.5721V41.9342H13.6705C13.1043 41.9342 12.645 42.3966 12.645 42.9672C12.645 43.5377 13.1042 44.0001 13.6705 44.0001H26.3296C26.8959 44.0001 27.3551 43.5377 27.3551 42.9672C27.3551 42.3966 26.8959 41.9342 26.3296 41.9342H21.0255V36.5721C28.4578 36.0407 34.3437 29.7804 34.3437 22.1608V20.7835C34.3439 20.213 33.8846 19.7506 33.3184 19.7506Z" fill="#F67B92"/>
<path d="M20.6835 0H19.3168C14.629 0 10.8152 3.84174 10.8152 8.56391V22.849C10.8152 27.5712 14.629 31.4129 19.3168 31.4129H20.6835C25.3713 31.4129 29.1851 27.5712 29.1851 22.849V8.56391C29.1851 3.84174 25.3713 0 20.6835 0ZM27.1343 11.2452H23.4171C22.8507 11.2452 22.3916 11.7076 22.3916 12.2781C22.3916 12.8487 22.8507 13.3111 23.4171 13.3111H27.1343V16.1864H23.4171C22.8507 16.1864 22.3916 16.6488 22.3916 17.2194C22.3916 17.7899 22.8507 18.2523 23.4171 18.2523H27.1343V21.1278H23.4171C22.8507 21.1278 22.3916 21.5902 22.3916 22.1607C22.3916 22.7313 22.8507 23.1937 23.4171 23.1937H27.1251C26.9467 26.6171 24.1258 29.3471 20.6836 29.3471H19.3169C15.8747 29.3471 13.0538 26.6171 12.8754 23.1937H16.5834C17.1498 23.1937 17.6089 22.7313 17.6089 22.1607C17.6089 21.5902 17.1498 21.1278 16.5834 21.1278H12.8662V18.2523H16.5834C17.1498 18.2523 17.6089 17.7899 17.6089 17.2194C17.6089 16.6488 17.1498 16.1864 16.5834 16.1864H12.8662V13.3111H16.5834C17.1498 13.3111 17.6089 12.8487 17.6089 12.2781C17.6089 11.7076 17.1498 11.2452 16.5834 11.2452H12.8662V8.56391C12.8662 5.98889 14.3609 3.75881 16.5222 2.70789V5.62829C16.5222 6.19883 16.9813 6.66126 17.5476 6.66126C18.1139 6.66126 18.5731 6.19883 18.5731 5.62829V2.11045C18.8173 2.082 21.1832 2.082 21.4274 2.11045V5.62829C21.4274 6.19883 21.8865 6.66126 22.4529 6.66126C23.0191 6.66126 23.4783 6.19883 23.4783 5.62829V2.70789C25.6396 3.75881 27.1343 5.98872 27.1343 8.56383V11.2452Z" fill="#F67B92"/>
<path d="M6.97997 16.0768C7.67583 16.0768 8.23997 15.5356 8.23997 14.868V8.82403C8.23997 8.15645 7.67583 7.61523 6.97997 7.61523C6.28411 7.61523 5.71997 8.15645 5.71997 8.82403V14.868C5.71997 15.5356 6.28411 16.0768 6.97997 16.0768Z" fill="#F67B92"/>
<path d="M1.93993 3.38477C1.24408 3.38477 0.679932 3.96464 0.679932 4.6799V19.0127C0.679932 19.728 1.24408 20.3078 1.93993 20.3078C2.63579 20.3078 3.19993 19.728 3.19993 19.0127V4.6799C3.19993 3.96464 2.63579 3.38477 1.93993 3.38477Z" fill="#F67B92"/>
<path d="M33.02 7.61523C32.3242 7.61523 31.76 8.15645 31.76 8.82403V14.868C31.76 15.5356 32.3242 16.0768 33.02 16.0768C33.7159 16.0768 34.28 15.5356 34.28 14.868V8.82403C34.28 8.15645 33.7159 7.61523 33.02 7.61523Z" fill="#F67B92"/>
<path d="M38.06 3.38477C37.3642 3.38477 36.8 3.96464 36.8 4.6799V19.0127C36.8 19.728 37.3642 20.3078 38.06 20.3078C38.7559 20.3078 39.32 19.728 39.32 19.0127V4.6799C39.32 3.96464 38.7559 3.38477 38.06 3.38477Z" fill="#F67B92"/>
</svg>
