<svg width="109" height="122" viewBox="0 0 109 122" fill="none" xmlns="http://www.w3.org/2000/svg">
<circle opacity="0.07" cx="42" cy="80" r="42" fill="#8EA8FF"/>
<path d="M89.1406 52.4C89.1406 44.7655 83.4335 38.2462 75.8657 37.2366L68.2812 36.2256V35.0422C70.4075 33.8073 72.0902 31.8938 73.0247 29.5938H73.8438C76.9115 29.5938 79.4062 27.099 79.4062 24.0312C79.4062 22.8701 79.0461 21.7937 78.4356 20.901L79.0044 18.516C79.2714 17.3966 79.4062 16.2479 79.4062 15.102C79.4062 6.99053 72.8063 0.390625 64.6948 0.390625H60.7427C52.6312 0.390625 46.0312 6.99053 46.0312 15.102C46.0312 16.2479 46.1661 17.3952 46.4331 18.516L47.0019 20.8996C46.3914 21.7923 46.0312 22.8701 46.0312 24.0312C46.0312 27.099 48.526 29.5938 51.5938 29.5938H52.4128C53.3473 31.8938 55.03 33.8073 57.1562 35.0422V36.2256L49.5718 37.238C42.004 38.2476 36.2969 44.7655 36.2969 52.4V62.9688C36.2969 65.6916 37.4233 68.153 39.2325 69.9219H22.3906V78.2656H25.1719V86.6094H27.9531V78.2656H103.047V86.6094H105.828V78.2656H108.609V69.9219H89.1406V52.4ZM86.3594 52.4V69.9219H80.7969V50.4531H78.0156V69.9219H69.5648C69.6288 69.6535 69.6719 69.3768 69.6719 69.0875V65.1937C69.6719 63.4888 68.4815 62.0635 66.8906 61.6852V51.3125C67.7459 50.3349 68.2812 49.0708 68.2812 47.6719C68.2812 47.473 68.2437 47.2867 68.2228 47.0934L75.4944 44.3664L74.3638 39.8427L75.4986 39.9942C81.6897 40.8203 86.3594 46.1533 86.3594 52.4ZM55.7656 63.5445L57.3509 61.9592C57.9503 61.3626 59.0614 61.5406 59.4383 62.2985L60.4687 64.3594H66.0563C66.5165 64.3594 66.8906 64.7335 66.8906 65.1937V69.0875C66.8906 69.5478 66.5165 69.9219 66.0563 69.9219H55.7656V63.5445ZM54.0399 39.4477L57.6889 38.961C58.0296 39.9317 58.5928 41.2792 59.5078 43.144C58.9905 43.5111 58.5385 43.9631 58.1728 44.4818L53.2416 42.6336L54.0399 39.4477ZM65.5 47.6719C65.5 49.2057 64.2526 50.4531 62.7188 50.4531C61.1849 50.4531 59.9375 49.2057 59.9375 47.6719C59.9375 46.138 61.1849 44.8906 62.7188 44.8906C64.2526 44.8906 65.5 46.138 65.5 47.6719ZM62.7188 53.2344C63.2013 53.2344 63.6616 53.1537 64.1094 53.0369V61.5781H62.1875L61.9261 61.0553C61.7634 60.7298 61.5604 60.4378 61.3281 60.175V53.0369C61.7759 53.1537 62.2362 53.2344 62.7188 53.2344ZM71.3976 39.4477L72.1945 42.6336L67.2633 44.4818C66.8976 43.9631 66.4456 43.5111 65.9283 43.144C66.8433 41.2792 67.4065 39.9317 67.7473 38.961L71.3976 39.4477ZM73.8438 26.8125H73.7478C73.8048 26.3564 73.8438 25.8933 73.8438 25.4219V21.25C75.3776 21.25 76.625 22.4974 76.625 24.0312C76.625 25.5651 75.3776 26.8125 73.8438 26.8125ZM60.7427 3.17188H64.6948C71.2725 3.17188 76.625 8.52439 76.625 15.102C76.625 16.0324 76.5151 16.9641 76.2996 17.8694L76.0465 18.9277C75.3707 18.6356 74.6267 18.4688 73.8438 18.4688H73.6018C73.0428 16.8556 71.5256 15.6875 69.7247 15.6875H65.532C64.7644 15.6875 64.0148 15.5429 63.3028 15.2578L58.2938 13.2553C57.7153 13.0231 57.1048 12.9062 56.4832 12.9062C53.7868 12.9062 51.5938 15.0993 51.5938 17.7957V18.4688C50.8108 18.4688 50.0668 18.6356 49.3896 18.929L49.1365 17.8722C48.9224 16.9641 48.8125 16.0324 48.8125 15.102C48.8125 8.52439 54.165 3.17188 60.7427 3.17188ZM51.5938 26.8125C50.0599 26.8125 48.8125 25.5651 48.8125 24.0312C48.8125 22.4974 50.0599 21.25 51.5938 21.25V25.4219C51.5938 25.8933 51.6327 26.3564 51.6897 26.8125H51.5938ZM54.375 25.4219V17.7957C54.375 16.6331 55.3206 15.6875 56.4832 15.6875C56.7516 15.6875 57.0158 15.7376 57.2661 15.8377L62.2724 17.8402C63.3139 18.2574 64.4125 18.4674 65.5348 18.4674H69.7275C70.4631 18.4688 71.0625 19.0681 71.0625 19.8051V25.4219C71.0625 30.0235 67.3203 33.7656 62.7188 33.7656C58.1172 33.7656 54.375 30.0235 54.375 25.4219ZM62.7188 36.5469C63.6811 36.5469 64.6086 36.412 65.5 36.1811V36.5469C65.5 36.7583 65.3874 37.982 63.3084 42.1692C63.1123 42.1483 62.9204 42.1094 62.7188 42.1094C62.5171 42.1094 62.3252 42.1483 62.1291 42.1692C60.0501 37.982 59.9375 36.7583 59.9375 36.5469V36.1811C60.8289 36.412 61.7564 36.5469 62.7188 36.5469ZM39.0781 62.9688V52.4C39.0781 46.1533 43.7478 40.8203 49.9403 39.9928L51.075 39.8413L49.9445 44.365L57.216 47.092C57.1938 47.2867 57.1562 47.473 57.1562 47.6719C57.1562 49.0695 57.6916 50.3335 58.5469 51.3125V58.8163C58.4551 58.8094 58.3647 58.7969 58.2729 58.7969C57.1813 58.7969 56.1564 59.2224 55.3846 59.9928L53.7993 61.5781H47.7598C47.6458 61.5781 47.5359 61.6045 47.4219 61.6115V50.4531H44.6406V62.5377C44.3528 62.7337 44.0774 62.9548 43.8257 63.2079L42.2668 64.7668L44.2332 66.7332L45.7921 65.1743C46.3191 64.6486 47.0172 64.3594 47.7598 64.3594H52.9844V69.9219H46.0312C42.1973 69.9219 39.0781 66.8027 39.0781 62.9688ZM105.828 75.4844H25.1719V72.7031H46.0312H66.0563H105.828V75.4844Z" fill="url(#paint0_linear)"/>
<path d="M104.438 0.390625H84.9688C82.6687 0.390625 80.7969 2.26241 80.7969 4.5625V18.7079C80.7969 21.6422 83.1846 24.0312 86.1216 24.0312C87.5428 24.0312 88.8792 23.4778 89.886 22.4724L92.4976 19.8594H104.438C106.738 19.8594 108.609 17.9876 108.609 15.6875V4.5625C108.609 2.26241 106.738 0.390625 104.438 0.390625ZM105.828 15.6875C105.828 16.4551 105.204 17.0781 104.438 17.0781H91.3462L87.9197 20.506C87.4385 20.9858 86.8002 21.25 86.1216 21.25C84.7184 21.25 83.5781 20.1097 83.5781 18.7079V4.5625C83.5781 3.79487 84.2025 3.17188 84.9688 3.17188H104.438C105.204 3.17188 105.828 3.79487 105.828 4.5625V15.6875Z" fill="url(#paint1_linear)"/>
<path d="M87.75 8.73438H90.5312V11.5156H87.75V8.73438Z" fill="url(#paint2_linear)"/>
<path d="M93.3125 8.73438H96.0938V11.5156H93.3125V8.73438Z" fill="url(#paint3_linear)"/>
<path d="M98.875 8.73438H101.656V11.5156H98.875V8.73438Z" fill="url(#paint4_linear)"/>
<path d="M69.6719 53.2344H75.2344V56.0156H69.6719V53.2344Z" fill="url(#paint5_linear)"/>
<defs>
<linearGradient id="paint0_linear" x1="65.5" y1="0.390625" x2="65.5" y2="86.6094" gradientUnits="userSpaceOnUse">
<stop stop-color="#4D71EE"/>
<stop offset="1" stop-color="#4DC7EE"/>
</linearGradient>
<linearGradient id="paint1_linear" x1="94.7031" y1="0.390625" x2="94.7031" y2="24.0312" gradientUnits="userSpaceOnUse">
<stop stop-color="#4D71EE"/>
<stop offset="1" stop-color="#4DC7EE"/>
</linearGradient>
<linearGradient id="paint2_linear" x1="89.1406" y1="8.73438" x2="89.1406" y2="11.5156" gradientUnits="userSpaceOnUse">
<stop stop-color="#4D71EE"/>
<stop offset="1" stop-color="#4DC7EE"/>
</linearGradient>
<linearGradient id="paint3_linear" x1="94.7031" y1="8.73438" x2="94.7031" y2="11.5156" gradientUnits="userSpaceOnUse">
<stop stop-color="#4D71EE"/>
<stop offset="1" stop-color="#4DC7EE"/>
</linearGradient>
<linearGradient id="paint4_linear" x1="100.266" y1="8.73438" x2="100.266" y2="11.5156" gradientUnits="userSpaceOnUse">
<stop stop-color="#4D71EE"/>
<stop offset="1" stop-color="#4DC7EE"/>
</linearGradient>
<linearGradient id="paint5_linear" x1="72.4531" y1="53.2344" x2="72.4531" y2="56.0156" gradientUnits="userSpaceOnUse">
<stop stop-color="#4D71EE"/>
<stop offset="1" stop-color="#4DC7EE"/>
</linearGradient>
</defs>
</svg>
