<svg width="18" height="18" viewBox="0 0 18 18" fill="none" xmlns="http://www.w3.org/2000/svg">
<rect width="18" height="18" rx="3" fill="#F67B92"/>
<path fill-rule="evenodd" clip-rule="evenodd" d="M14.8115 5.18179C14.7544 5.1224 14.6861 5.07516 14.6108 5.04294C14.5354 5.01072 14.4545 4.99414 14.3727 4.99414C14.291 4.99414 14.2101 5.01072 14.1347 5.04294C14.0594 5.07516 13.9911 5.1224 13.934 5.18179L7.74996 11.4757L4.04954 7.70696C3.99223 7.64583 3.92345 7.59699 3.84724 7.5633C3.77103 7.52962 3.68896 7.51181 3.60585 7.51087C3.52275 7.50994 3.4403 7.5259 3.36338 7.55786C3.28646 7.58983 3.21662 7.63713 3.15799 7.69696C3.09937 7.7568 3.05314 7.82793 3.02204 7.90621C2.99093 7.98449 2.97557 8.06831 2.97688 8.15271C2.9782 8.23711 2.99615 8.32041 3.02968 8.39766C3.0632 8.4749 3.11161 8.54453 3.17207 8.60245L7.31122 12.8168C7.36852 12.8759 7.43682 12.9228 7.51214 12.9548C7.58746 12.9868 7.66831 13.0033 7.74996 13.0033C7.83161 13.0033 7.91244 12.9868 7.98776 12.9548C8.06308 12.9228 8.13138 12.8759 8.18869 12.8168L14.8115 6.07302C14.8692 6.01456 14.915 5.94511 14.9462 5.86864C14.9775 5.79218 14.9935 5.71017 14.9935 5.62738C14.9935 5.54459 14.9775 5.46263 14.9462 5.38616C14.915 5.3097 14.8692 5.24025 14.8115 5.18179Z" fill="white"/>
</svg>
