<svg width="208" height="195" viewBox="0 0 208 195" fill="none" xmlns="http://www.w3.org/2000/svg">
<g filter="url(#filter0_d)">
<path d="M94.767 119.826C95.4987 119.094 95.4987 117.906 94.767 117.174L89.049 111.456C88.3166 110.724 87.1293 110.724 86.3969 111.456C85.6652 112.188 85.6652 113.376 86.3969 114.108L92.1149 119.826C92.4811 120.192 92.9609 120.375 93.4406 120.375C93.9211 120.375 94.4008 120.192 94.767 119.826Z" fill="#F67B92"/>
<path d="M81.1257 116.727C80.394 117.46 80.394 118.646 81.1257 119.379L86.8437 125.098C87.2099 125.464 87.6896 125.647 88.1694 125.647C88.6498 125.647 89.1296 125.464 89.4958 125.098C90.2275 124.365 90.2275 123.178 89.4958 122.445L83.777 116.727C83.0453 115.996 81.8588 115.996 81.1257 116.727Z" fill="#F67B92"/>
<path d="M156.385 51.7457C154.689 50.0494 152.113 49.6407 149.976 50.7284L135.031 58.3316C134.357 58.6744 133.955 59.3885 134.011 60.1422L134.22 62.9444L108.681 88.484C107.847 85.265 108.756 81.8189 111.156 79.4203C114.032 76.544 115.232 72.4542 114.364 68.4801C114.044 67.0094 112.947 65.8324 111.502 65.4083C110.059 64.9842 108.499 65.3827 107.434 66.4476L103.429 70.4517C97.9238 75.9574 93.6875 82.4232 90.8376 89.669C89.6365 92.7225 86.7405 94.7096 83.4599 94.733L79.302 94.7623C77.9756 94.7718 76.6499 94.9329 75.3601 95.2428C74.353 95.4845 73.7326 96.4967 73.9743 97.5037C74.1809 98.3636 74.9492 98.9415 75.7959 98.9415C75.9409 98.9415 76.0881 98.9239 76.2353 98.8888C77.2468 98.6463 78.2876 98.5196 79.3283 98.5123L83.4863 98.483C88.3071 98.4486 92.5625 95.5277 94.3269 91.0416C96.987 84.2777 100.942 78.2425 106.081 73.1038L110.086 69.099C110.187 68.9972 110.308 68.9664 110.447 69.0067C110.584 69.047 110.67 69.1392 110.701 69.2791C111.294 72.0001 110.473 74.7994 108.504 76.7682C104.727 80.5453 103.593 86.1798 105.614 91.1244C105.655 91.224 105.705 91.3162 105.76 91.4049L98.5866 98.5782L98.2929 98.2838C97.5605 97.5521 96.3733 97.5521 95.6408 98.2838L90.3696 103.555C89.6379 104.287 89.6379 105.475 90.3696 106.207L99.9812 115.819C100.347 116.184 100.827 116.367 101.307 116.367C101.787 116.367 102.266 116.184 102.633 115.819L107.904 110.547C108.636 109.815 108.636 108.628 107.904 107.895L107.61 107.602L114.802 100.409C118.657 103.679 123.479 105.576 128.573 105.79L130.717 105.88C131.114 105.897 131.276 106.165 131.338 106.324C131.4 106.483 131.462 106.791 131.182 107.071C129.277 108.975 126.89 110.324 124.276 110.973L117.23 112.72C112.661 113.854 109.222 117.589 108.47 122.237L107.467 128.43C107.006 131.282 105.682 133.868 103.64 135.91L103.399 136.151C98.0703 141.48 89.3999 141.48 84.0715 136.151L77.071 129.152L69.7615 121.841C66.3747 118.455 65.019 113.649 66.1338 108.986C66.3747 107.979 65.7536 106.967 64.7466 106.726C63.7417 106.485 62.728 107.107 62.487 108.114C61.0669 114.055 62.7947 120.178 67.1094 124.493L74.4197 131.803L81.4201 138.803C84.8149 142.198 89.2746 143.895 93.7344 143.895C98.1948 143.895 102.655 142.198 106.05 138.803L106.291 138.561C108.894 135.959 110.581 132.663 111.169 129.029L112.171 122.836C112.683 119.673 115.024 117.13 118.134 116.359L125.179 114.612C128.454 113.799 131.447 112.108 133.833 109.722C135.1 108.455 135.482 106.631 134.832 104.962C134.181 103.293 132.665 102.209 130.875 102.133L128.73 102.043C124.58 101.869 120.644 100.356 117.465 97.7454L143.283 71.9276L146.749 71.4757C147.346 71.398 147.869 71.0377 148.156 70.5089L151.365 64.5755L156.385 59.5562C158.538 57.4029 158.538 53.899 156.385 51.7457ZM134.666 75.2411L130.947 71.5211L135.722 66.7457L139.442 70.4657L134.666 75.2411ZM127.24 82.6685L123.52 78.9486L128.295 74.1732L132.015 77.8932L127.24 82.6685ZM119.812 90.0953L116.092 86.3753L120.868 81.5999L124.588 85.3199L119.812 90.0953ZM113.423 96.485C113.423 96.4857 113.422 96.4857 113.422 96.4864C113.421 96.4871 113.421 96.4871 113.42 96.4879L112.385 97.5228L108.666 93.8028L113.441 89.0267L117.161 92.7474L113.423 96.485ZM101.307 111.841L94.3474 104.881L96.9665 102.261L103.927 109.221L101.307 111.841ZM101.238 101.23L106.013 96.4542L109.734 100.174L104.959 104.95L101.238 101.23ZM153.734 56.9049L148.521 62.1175C148.393 62.2457 148.284 62.3922 148.198 62.5511L145.314 67.8817L142.525 68.2457L138.041 63.7625L137.844 61.1075L151.676 54.0704C152.362 53.721 153.189 53.8521 153.734 54.3971C154.425 55.0885 154.425 56.2135 153.734 56.9049Z" fill="#F67B92"/>
<path d="M101.697 128.63C102.189 128.63 102.671 128.429 103.021 128.081C103.37 127.732 103.569 127.249 103.569 126.755C103.569 126.26 103.37 125.779 103.021 125.429C102.671 125.081 102.189 124.88 101.697 124.88C101.201 124.88 100.719 125.081 100.369 125.429C100.02 125.779 99.8215 126.26 99.8215 126.755C99.8215 127.249 100.02 127.732 100.369 128.081C100.719 128.429 101.201 128.63 101.697 128.63Z" fill="#F67B92"/>
<path d="M98.093 131.821C97.5994 131.821 97.1182 132.02 96.7673 132.371C96.4187 132.719 96.218 133.201 96.218 133.696C96.218 134.189 96.418 134.673 96.7673 135.021C97.116 135.37 97.5994 135.571 98.093 135.571C98.5874 135.571 99.0715 135.37 99.4202 135.021C99.7688 134.671 99.968 134.189 99.968 133.696C99.968 133.203 99.7688 132.719 99.4202 132.371C99.0693 132.02 98.5859 131.821 98.093 131.821Z" fill="#F67B92"/>
<path d="M89.5977 131.963C89.249 132.312 89.0483 132.796 89.0483 133.289C89.0483 133.782 89.249 134.266 89.5977 134.615C89.9463 134.963 90.4304 135.164 90.9233 135.164C91.4163 135.164 91.9004 134.963 92.249 134.615C92.5977 134.266 92.7983 133.782 92.7983 133.289C92.7983 132.796 92.5977 132.312 92.249 131.963C91.9004 131.615 91.4163 131.414 90.9233 131.414C90.4282 131.414 89.9463 131.615 89.5977 131.963Z" fill="#F67B92"/>
<path d="M68.4358 103.064C68.9294 103.064 69.4128 102.863 69.7615 102.515C70.1101 102.164 70.3108 101.682 70.3108 101.189C70.3108 100.696 70.1101 100.212 69.7615 99.8618C69.4128 99.5132 68.9294 99.3125 68.4358 99.3125C67.9429 99.3125 67.4587 99.5125 67.1108 99.8618C66.7615 100.212 66.5608 100.694 66.5608 101.189C66.5608 101.682 66.7615 102.166 67.1108 102.515C67.4587 102.863 67.9429 103.064 68.4358 103.064Z" fill="#F67B92"/>
<path d="M144.684 144.429C140.998 144.429 138 141.417 138 137.715C138 134.012 140.998 131 144.684 131C148.369 131 151.367 134.012 151.367 137.715C151.367 141.417 148.369 144.429 144.684 144.429ZM144.684 134.357C142.841 134.357 141.342 135.863 141.342 137.715C141.342 139.566 142.841 141.072 144.684 141.072C146.526 141.072 148.025 139.566 148.025 137.715C148.025 135.863 146.526 134.357 144.684 134.357Z" fill="#F67B92"/>
<path d="M56.5 65.0605C52.9159 65.0605 50 62.131 50 58.5302C50 54.9295 52.9159 52 56.5 52C60.0841 52 63 54.9295 63 58.5302C63 62.131 60.0841 65.0605 56.5 65.0605ZM56.5 55.2651C54.7079 55.2651 53.25 56.7298 53.25 58.5302C53.25 60.3306 54.7079 61.7954 56.5 61.7954C58.292 61.7954 59.75 60.3306 59.75 58.5302C59.75 56.7298 58.292 55.2651 56.5 55.2651Z" fill="#F67B92"/>
</g>
<defs>
<filter id="filter0_d" x="0" y="0.125" width="208" height="194.304" filterUnits="userSpaceOnUse" color-interpolation-filters="sRGB">
<feFlood flood-opacity="0" result="BackgroundImageFix"/>
<feColorMatrix in="SourceAlpha" type="matrix" values="0 0 0 0 0 0 0 0 0 0 0 0 0 0 0 0 0 0 127 0"/>
<feOffset/>
<feGaussianBlur stdDeviation="25"/>
<feColorMatrix type="matrix" values="0 0 0 0 0.992157 0 0 0 0 0.368627 0 0 0 0 0.352941 0 0 0 0.5 0"/>
<feBlend mode="normal" in2="BackgroundImageFix" result="effect1_dropShadow"/>
<feBlend mode="normal" in="SourceGraphic" in2="effect1_dropShadow" result="shape"/>
</filter>
</defs>
</svg>
