<svg width="29" height="34" viewBox="0 0 29 34" fill="none" xmlns="http://www.w3.org/2000/svg">
<path fill-rule="evenodd" clip-rule="evenodd" d="M14.5 0C10.6846 0.0920064 7.05191 1.58698 4.35315 4.17576C1.65438 6.76455 0.0959151 10.2492 0 13.9091C0.135259 16.1565 0.37499 17.6047 1.48718 19.587C1.52101 19.6488 1.96475 20.4541 2.00503 20.5159C10.5498 33.6304 13.3851 34 14.5 34C16.2392 34 18.125 32.8254 22.5902 26.8368C24.9191 23.715 26.912 20.6473 26.9958 20.5159C27.0361 20.4541 27.0723 20.3923 27.1061 20.3305C28.2182 18.3482 28.8646 16.1564 29 13.9091C28.9041 10.2492 27.3456 6.76455 24.6469 4.17576C21.9481 1.58698 18.3154 0.0920064 14.5 0ZM26 20.3305C26 20.3305 18.2179 33 14.5 33C10.7821 33 3 20.3305 3 20.3305C1.88462 18.4827 1 16.5 1 13.9091C1 9.51197 3.84543 6.25948 5 5C7.29177 2.5 11.2953 1 14.5 1C17.7047 1 21.7339 2.82628 24 5C26.2661 7.17372 28 11 28 13.9091C28 15.5 27.5 18 26 20.3305Z" fill="#F77B92"/>
<path d="M20.3205 13.674C20.3205 16.8648 17.7174 19.4566 14.5 19.4566C11.2825 19.4566 8.67944 16.8648 8.67944 13.674C8.67944 10.4832 11.2825 7.89136 14.5 7.89136C17.7174 7.89136 20.3205 10.4832 20.3205 13.674Z" stroke="#F67B92"/>
</svg>
