<svg width="65" height="65" viewBox="0 0 65 65" fill="none" xmlns="http://www.w3.org/2000/svg">
<path d="M7.01485 54.3168H34.8168C34.6881 53.5446 34.6238 52.7079 34.6238 51.8713C34.6238 51.4208 34.6238 51.0347 34.6881 50.5842H7.01485C5.21287 50.5842 3.73267 49.104 3.73267 47.302V24.198H49.5545V35.1386C50.198 35.0743 50.7772 35.0099 51.4208 35.0099C52.0644 35.0099 52.6436 35.0743 53.2871 35.1386V14.2228C53.2871 10.3614 50.1337 7.20792 46.2723 7.20792H39.0644V1.86634C39.0644 0.836634 38.2277 0 37.198 0C36.1683 0 35.3317 0.836634 35.3317 1.86634V7.20792H17.9554V1.86634C17.9554 0.836634 17.1188 0 16.0891 0C15.0594 0 14.2228 0.836634 14.2228 1.86634V7.20792H7.01485C3.15347 7.20792 0 10.3614 0 14.2228V47.302C0 51.1634 3.15347 54.3168 7.01485 54.3168ZM3.73267 14.2228C3.73267 12.4208 5.21287 10.9406 7.01485 10.9406H14.2228V13.5149C14.2228 14.5446 15.0594 15.3812 16.0891 15.3812C17.1188 15.3812 17.9554 14.5446 17.9554 13.5149V10.9406H35.2673V13.5149C35.2673 14.5446 36.104 15.3812 37.1337 15.3812C38.1634 15.3812 39 14.5446 39 13.5149V10.9406H46.2079C48.0099 10.9406 49.4901 12.4208 49.4901 14.2228V20.4653H3.73267V14.2228Z" fill="url(#paint0_linear)"/>
<path d="M14.3515 26.9652C10.7475 26.9652 7.78714 29.9256 7.78714 33.4652C7.78714 37.0048 10.7475 39.9652 14.3515 39.9652C17.9555 39.9652 20.9158 37.0048 20.9158 33.4652C20.9158 29.9256 17.9555 26.9652 14.3515 26.9652ZM14.3515 36.2969C12.8069 36.2969 11.5842 35.0098 11.5842 33.4652C11.5842 31.9207 12.8713 30.6335 14.3515 30.6335C15.8317 30.6335 17.1188 31.9207 17.1188 33.4652C17.1188 35.0098 15.896 36.2969 14.3515 36.2969Z" fill="url(#paint1_linear)"/>
<path d="M17.1188 42.797H11.5198C10.4901 42.797 9.65347 43.6337 9.65347 44.6634C9.65347 45.6931 10.4901 46.5297 11.5198 46.5297H17.1188C18.1485 46.5297 18.9851 45.6931 18.9851 44.6634C18.9851 43.6337 18.1485 42.797 17.1188 42.797Z" fill="url(#paint2_linear)"/>
<path d="M30.3762 42.797H24.7772C23.7475 42.797 22.9109 43.6337 22.9109 44.6634C22.9109 45.6931 23.7475 46.5297 24.7772 46.5297H30.3762C31.4059 46.5297 32.2426 45.6931 32.2426 44.6634C32.2426 43.6337 31.4059 42.797 30.3762 42.797Z" fill="url(#paint3_linear)"/>
<path d="M30.3762 31.6633H24.7772C23.7475 31.6633 22.9109 32.4999 22.9109 33.5296C22.9109 34.5593 23.7475 35.396 24.7772 35.396H30.3762C31.4059 35.396 32.2426 34.5593 32.2426 33.5296C32.2426 32.4999 31.4059 31.6633 30.3762 31.6633Z" fill="url(#paint4_linear)"/>
<path d="M45.5 33.5296C45.5 32.4999 44.6634 31.6633 43.6337 31.6633H37.9703C36.9406 31.6633 36.104 32.4999 36.104 33.5296C36.104 34.5593 36.9406 35.396 37.9703 35.396H43.5693C44.6634 35.396 45.5 34.5593 45.5 33.5296Z" fill="url(#paint5_linear)"/>
<path d="M51.4208 64.9357C58.6287 64.9357 64.4852 59.0793 64.4852 51.8714C64.4852 44.6634 58.6287 38.807 51.4208 38.807C44.2129 38.807 38.3564 44.6634 38.3564 51.8714C38.3564 59.0793 44.2129 64.9357 51.4208 64.9357ZM51.4208 42.5397C56.5693 42.5397 60.7525 46.7228 60.7525 51.8714C60.7525 57.0199 56.5693 61.203 51.4208 61.203C46.2723 61.203 42.0891 57.0199 42.0891 51.8714C42.0891 46.7228 46.2723 42.5397 51.4208 42.5397Z" fill="url(#paint6_linear)"/>
<path d="M48.3317 56.2474C48.7178 56.6335 49.1683 56.7622 49.6832 56.7622C50.198 56.7622 50.6485 56.5692 51.0347 56.2474L56.6337 50.6484C57.3416 49.9405 57.3416 48.7177 56.6337 48.0098C55.9258 47.3018 54.703 47.3018 53.9951 48.0098L49.7475 52.2573L48.4604 50.9702C47.7525 50.2622 46.5297 50.2622 45.8218 50.9702C45.1139 51.6781 45.1139 52.9009 45.8218 53.6088L48.3317 56.2474Z" fill="url(#paint7_linear)"/>
<defs>
<linearGradient id="paint0_linear" x1="32" y1="-5.71258e-08" x2="32" y2="64" gradientUnits="userSpaceOnUse">
<stop stop-color="#4D75EE"/>
<stop offset="1" stop-color="#4DC4EE"/>
</linearGradient>
<linearGradient id="paint1_linear" x1="32" y1="-5.71258e-08" x2="32" y2="64" gradientUnits="userSpaceOnUse">
<stop stop-color="#4D75EE"/>
<stop offset="1" stop-color="#4DC4EE"/>
</linearGradient>
<linearGradient id="paint2_linear" x1="32" y1="-5.71258e-08" x2="32" y2="64" gradientUnits="userSpaceOnUse">
<stop stop-color="#4D75EE"/>
<stop offset="1" stop-color="#4DC4EE"/>
</linearGradient>
<linearGradient id="paint3_linear" x1="32" y1="-5.71258e-08" x2="32" y2="64" gradientUnits="userSpaceOnUse">
<stop stop-color="#4D75EE"/>
<stop offset="1" stop-color="#4DC4EE"/>
</linearGradient>
<linearGradient id="paint4_linear" x1="32" y1="-5.71258e-08" x2="32" y2="64" gradientUnits="userSpaceOnUse">
<stop stop-color="#4D75EE"/>
<stop offset="1" stop-color="#4DC4EE"/>
</linearGradient>
<linearGradient id="paint5_linear" x1="32" y1="-5.71258e-08" x2="32" y2="64" gradientUnits="userSpaceOnUse">
<stop stop-color="#4D75EE"/>
<stop offset="1" stop-color="#4DC4EE"/>
</linearGradient>
<linearGradient id="paint6_linear" x1="32" y1="-5.71258e-08" x2="32" y2="64" gradientUnits="userSpaceOnUse">
<stop stop-color="#4D75EE"/>
<stop offset="1" stop-color="#4DC4EE"/>
</linearGradient>
<linearGradient id="paint7_linear" x1="32" y1="-5.71258e-08" x2="32" y2="64" gradientUnits="userSpaceOnUse">
<stop stop-color="#4D75EE"/>
<stop offset="1" stop-color="#4DC4EE"/>
</linearGradient>
</defs>
</svg>
