<svg width="159" height="131" viewBox="0 0 159 131" fill="none" xmlns="http://www.w3.org/2000/svg">
<g opacity="0.25">
<g clip-path="url(#clip0)">
<path fill-rule="evenodd" clip-rule="evenodd" d="M155.138 17.4229C153.206 10.3243 148.057 5.16178 140.976 3.22582C124.239 -1.29142 33.4737 -1.29142 16.7368 3.22582C9.65584 5.16178 4.50604 10.3243 2.57487 17.4229C-1.93121 34.2012 -1.93121 93.5707 2.57487 109.704C4.50604 116.802 9.65584 121.965 16.7368 123.901C33.4737 128.418 124.239 128.418 140.976 123.901C148.057 121.965 153.206 116.802 155.138 109.704C159.644 92.9253 159.644 33.5559 155.138 17.4229ZM57.2915 84.5362V43.2357C57.2915 40.0091 60.5101 38.0731 63.085 40.0091L98.4899 60.6593C101.065 61.95 101.065 65.8219 98.4899 67.7578L63.085 88.4081C60.5101 89.6987 57.2915 87.7628 57.2915 85.1815V84.5362Z" fill="white"/>
</g>
</g>
<g clip-path="url(#clip1)">
<path fill-rule="evenodd" clip-rule="evenodd" d="M138.964 27.6994C137.445 22.1181 133.397 18.059 127.83 16.5368C114.672 12.9851 43.3158 12.9851 30.1579 16.5368C24.5911 18.059 20.5425 22.1181 19.0243 27.6994C15.4818 40.8915 15.4818 87.5713 19.0243 100.256C20.5425 105.837 24.5911 109.896 30.1579 111.419C43.3158 114.97 114.672 114.97 127.83 111.419C133.397 109.896 137.445 105.837 138.964 100.256C142.506 87.0639 142.506 40.3841 138.964 27.6994ZM62.0405 80.4679V47.995C62.0405 45.458 64.5709 43.9359 66.5952 45.458L94.4292 61.6945C96.4535 62.7093 96.4535 65.7536 94.4292 67.2758L66.5952 83.5122C64.5709 84.527 62.0405 83.0048 62.0405 80.9753V80.4679Z" fill="white"/>
</g>
<defs>
<clipPath id="clip0">
<rect width="159" height="131" fill="white"/>
</clipPath>
<clipPath id="clip1">
<rect x="17" y="14" width="125" height="103" fill="white"/>
</clipPath>
</defs>
</svg>
