<svg width="223" height="206" viewBox="0 0 223 206" fill="none" xmlns="http://www.w3.org/2000/svg">
<g filter="url(#filter0_d)">
<path d="M73.3929 150.047L77.1243 144.03C74.2861 139.374 73.1254 133.886 73.8347 128.479C74.5247 125.432 75.8941 122.58 77.8405 120.137C79.7869 117.694 82.2601 115.722 85.0754 114.368L87.0723 108.578C87.1902 108.236 87.4096 107.938 87.7011 107.724C87.9927 107.51 88.3425 107.391 88.704 107.381C89.0715 107.332 89.4447 107.415 89.756 107.617C90.0673 107.818 90.2963 108.125 90.4017 108.48C91.0314 109.994 92.917 113.244 94.7435 113.61C95.001 113.665 95.7873 113.812 97.0153 112.597C97.7842 111.839 100.119 109.528 100.119 108.658C100.115 108.105 98.8661 106.88 97.5441 105.582L96.8726 104.921C96.5984 104.648 96.4208 104.294 96.3667 103.911C96.3127 103.529 96.3853 103.139 96.5734 102.801C96.7644 102.463 97.0587 102.195 97.4131 102.037C97.7674 101.879 98.1633 101.838 98.5425 101.921C99.5101 102.071 100.5 101.969 101.417 101.625C102.333 101.281 103.146 100.705 103.775 99.9548C104.098 99.6034 104.474 99.1301 104.913 98.5838C108.173 94.5215 115.736 85.1412 127.589 92.7089L150.675 71.2575C150.812 70.3149 151.078 69.3956 151.465 68.5252C151.752 67.9398 151.947 67.3142 152.046 66.67L149.545 64.1928C149.375 64.0291 149.239 63.8333 149.145 63.6167C149.051 63.4001 149.002 63.167 148.999 62.931C148.996 62.695 149.04 62.4608 149.128 62.2419C149.216 62.0231 149.347 61.824 149.513 61.6562C149.679 61.4883 149.877 61.3552 150.095 61.2644C150.312 61.1736 150.546 61.127 150.782 61.1273C151.018 61.1276 151.252 61.1748 151.469 61.2662C151.687 61.3575 151.884 61.4912 152.05 61.6594L154.586 64.1719C154.622 64.2201 154.656 64.2703 154.687 64.3222L156.931 63.5906V61.4604L154.617 59.1748C154.447 59.0112 154.311 58.8154 154.218 58.5987C154.124 58.3821 154.074 58.1491 154.071 57.9131C154.068 57.6771 154.112 57.4428 154.201 57.224C154.289 57.0051 154.42 56.806 154.586 56.6382C154.752 56.4704 154.949 56.3372 155.167 56.2464C155.385 56.1557 155.619 56.1091 155.855 56.1094C156.091 56.1097 156.324 56.1569 156.542 56.2482C156.759 56.3396 156.957 56.4733 157.122 56.6415L159.443 58.9347H168.86C169.094 58.9346 169.326 58.9806 169.542 59.07C169.758 59.1595 169.954 59.2908 170.12 59.4562C170.285 59.6217 170.417 59.8182 170.506 60.0344C170.595 60.2506 170.641 60.4824 170.641 60.7164V70.0123L172.346 71.6988C172.516 71.8625 172.652 72.0583 172.745 72.2748C172.839 72.4914 172.888 72.7244 172.891 72.9603C172.894 73.1963 172.85 73.4304 172.762 73.6492C172.673 73.868 172.543 74.067 172.377 74.2347C172.211 74.4025 172.013 74.5356 171.796 74.6264C171.578 74.7172 171.344 74.7638 171.108 74.7636C170.872 74.7633 170.639 74.7162 170.421 74.625C170.204 74.5337 170.007 74.4002 169.841 74.2321L168.128 72.5374H165.879L165.169 74.6379L167.27 76.7167C167.44 76.8804 167.576 77.0762 167.669 77.2928C167.763 77.5093 167.813 77.7423 167.815 77.9783C167.818 78.2142 167.774 78.4483 167.686 78.6671C167.598 78.8859 167.467 79.0849 167.301 79.2527C167.135 79.4204 166.937 79.5535 166.72 79.6443C166.502 79.7351 166.268 79.7817 166.032 79.7815C165.797 79.7812 165.563 79.7341 165.346 79.6429C165.128 79.5517 164.931 79.4181 164.765 79.25L163.027 77.5305L158.34 78.6204L136.668 101.355C145.63 113.72 135.736 121.528 131.447 124.888C130.897 125.32 130.417 125.692 130.066 126.012C129.318 126.618 128.741 127.409 128.393 128.306C128.044 129.203 127.936 130.176 128.079 131.127C128.176 131.505 128.147 131.904 127.996 132.264C127.845 132.623 127.58 132.923 127.242 133.117C126.904 133.312 126.511 133.39 126.125 133.34C125.738 133.289 125.378 133.114 125.101 132.84L124.426 132.171C121.128 128.893 121.132 128.893 117.28 132.697C116.063 133.901 116.212 134.653 116.261 134.896C116.623 136.699 119.914 138.567 121.455 139.19C121.792 139.327 122.078 139.564 122.277 139.869C122.475 140.173 122.576 140.531 122.565 140.894C122.554 141.258 122.433 141.609 122.217 141.902C122.002 142.194 121.702 142.414 121.358 142.531L115.496 144.511C114.107 147.299 112.115 149.742 109.663 151.662C107.211 153.581 104.361 154.93 101.322 155.608C100.228 155.804 99.1184 155.902 98.0067 155.9C93.1241 155.72 88.3779 154.241 84.2564 151.616L78.4756 155.124C78.1357 155.33 77.7369 155.416 77.3425 155.37C76.948 155.323 76.5804 155.146 76.2977 154.867L73.6537 152.253C73.3666 151.97 73.1845 151.597 73.1371 151.196C73.0898 150.795 73.1799 150.39 73.3929 150.047ZM90.4573 138.766L93.6336 136.88L91.821 135.087L89.9389 138.254L90.4573 138.766ZM87.5004 140.852L81.8122 144.814C82.3929 145.661 82.8522 146.246 83.0362 146.472C83.156 146.567 83.3853 146.743 83.6805 146.961L87.845 141.193L87.5004 140.852ZM162.911 70.185C163.03 69.8318 163.257 69.5249 163.56 69.3076C163.862 69.0904 164.226 68.9737 164.598 68.974H167.079V62.4981H160.493V64.8852C160.493 65.2611 160.374 65.6272 160.154 65.9315C159.933 66.2359 159.622 66.4628 159.265 66.5799L155.49 67.8083C155.306 68.5349 155.056 69.2432 154.742 69.924C154.532 70.3792 154.355 70.849 154.213 71.3299L157.971 75.0465L161.551 74.2112L162.911 70.185ZM152.384 74.5312L110.517 113.432L115.516 118.377L154.923 77.0438L152.384 74.5312ZM100.703 152.097C103.327 151.458 105.772 150.232 107.855 148.513C109.938 146.794 111.605 144.625 112.73 142.169C112.945 141.783 113.296 141.492 113.715 141.351L116.411 140.439C114.644 139.33 113.349 137.608 112.772 135.603C112.603 134.6 112.699 133.57 113.051 132.616C113.402 131.662 113.997 130.817 114.776 130.164C119.573 125.424 121.612 125.024 124.847 127.703C125.373 126.021 126.354 124.518 127.683 123.36C128.083 122.999 128.626 122.574 129.248 122.083C134.725 117.789 139.979 112.504 134.169 103.977L116.846 122.149C116.683 122.321 116.487 122.458 116.27 122.554C116.053 122.649 115.82 122.699 115.583 122.703H115.555C115.086 122.703 114.636 122.518 114.303 122.188L106.691 114.661C106.52 114.492 106.384 114.29 106.294 114.068C106.203 113.845 106.158 113.606 106.162 113.366C106.166 113.126 106.218 112.889 106.316 112.669C106.414 112.45 106.556 112.252 106.732 112.089L124.893 95.2142C116.888 90.6315 111.832 95.6533 107.689 100.815C107.195 101.434 106.764 101.966 106.398 102.363C105.239 103.662 103.751 104.624 102.091 105.147C103.044 106.073 103.612 107.324 103.681 108.651C103.685 110.649 102.283 112.399 99.5202 115.131C98.8538 115.906 97.9977 116.496 97.0355 116.841C96.0733 117.187 95.0379 117.278 94.0304 117.104C92.0151 116.526 90.2804 115.231 89.1527 113.464L88.2203 116.171C88.0756 116.59 87.7805 116.939 87.3923 117.152C84.9172 118.245 82.7248 119.89 80.9828 121.96C79.2408 124.031 77.9952 126.473 77.3415 129.099C76.7941 133.492 77.716 137.944 79.9635 141.758L86.3672 137.299L89.9216 131.308C90.0593 131.075 90.2483 130.877 90.4743 130.728C90.7003 130.579 90.9572 130.483 91.2257 130.449C91.4941 130.414 91.7668 130.441 92.0232 130.528C92.2795 130.615 92.5126 130.759 92.7048 130.95L97.7772 135.968C97.9707 136.159 98.1177 136.393 98.2069 136.65C98.2961 136.907 98.3252 137.181 98.292 137.451C98.2587 137.722 98.164 137.98 98.015 138.208C97.8661 138.436 97.6669 138.627 97.4328 138.766L91.4126 142.34L86.6755 148.9C90.8438 151.549 95.7987 152.679 100.703 152.097ZM77.8147 151.356L80.9632 149.445L79.102 147.601L77.1675 150.719L77.8147 151.356Z" fill="#F67B92"/>
<path d="M95.2584 125.942C95.4229 125.776 95.6185 125.644 95.8341 125.553C96.0497 125.462 96.281 125.415 96.5149 125.414C96.7488 125.412 96.9807 125.457 97.1972 125.545C97.4138 125.634 97.6109 125.764 97.7771 125.929L102.853 130.95C103.023 131.114 103.159 131.309 103.252 131.526C103.346 131.742 103.396 131.975 103.398 132.211C103.401 132.447 103.357 132.681 103.269 132.9C103.181 133.119 103.05 133.318 102.884 133.486C102.718 133.654 102.52 133.787 102.303 133.877C102.085 133.968 101.851 134.015 101.615 134.015C101.38 134.014 101.146 133.967 100.929 133.876C100.711 133.785 100.514 133.651 100.348 133.483L95.2724 128.462C95.106 128.297 94.9737 128.102 94.883 127.886C94.7923 127.67 94.7449 127.439 94.7436 127.205C94.7423 126.971 94.7871 126.739 94.8755 126.523C94.9638 126.306 95.0939 126.109 95.2584 125.942Z" fill="#F67B92"/>
<path d="M109.731 127.508C110.487 127.034 111.199 126.493 111.857 125.89C111.665 125.573 111.523 125.476 111.387 125.486C110.987 125.724 110.509 125.795 110.056 125.684C109.604 125.574 109.213 125.29 108.967 124.895C108.721 124.499 108.64 124.022 108.741 123.568C108.843 123.113 109.118 122.716 109.508 122.462C109.94 122.19 110.424 122.01 110.929 121.935C111.434 121.86 111.949 121.892 112.441 122.027C113.062 122.226 113.631 122.559 114.108 123.002C114.585 123.445 114.959 123.988 115.204 124.592C116.487 127.243 113.735 129.102 111.725 130.462C110.657 131.183 108.667 132.526 108.792 133.176C108.825 133.372 108.831 133.571 108.809 133.768C108.792 133.904 108.812 134.043 108.868 134.168C109.055 134.263 109.265 134.302 109.474 134.28C109.519 134.28 109.571 134.272 109.606 134.276C110.074 134.276 110.524 134.46 110.858 134.789C111.191 135.118 111.382 135.565 111.388 136.034C111.395 136.502 111.216 136.954 110.892 137.292C110.567 137.63 110.123 137.827 109.655 137.839L109.477 137.843C108.907 137.894 108.332 137.819 107.794 137.622C107.256 137.426 106.768 137.113 106.365 136.706C105.961 136.299 105.653 135.809 105.461 135.269C105.268 134.729 105.198 134.154 105.254 133.584C104.888 130.779 107.567 128.969 109.731 127.508Z" fill="#F67B92"/>
<path d="M103.869 117.998C103.248 118.65 102.692 119.361 102.209 120.121C100.825 122.125 99.134 124.578 96.6048 124.578C96.4337 124.579 96.2628 124.567 96.0934 124.544C95.0175 124.628 93.9511 124.288 93.1223 123.597C92.6572 123.163 92.2973 122.629 92.07 122.035C91.8427 121.441 91.754 120.803 91.8107 120.17C91.8235 119.706 92.0168 119.265 92.3494 118.941C92.6821 118.618 93.1279 118.436 93.5919 118.437H93.6406C94.1129 118.45 94.5607 118.65 94.8855 118.993C95.2104 119.336 95.3858 119.794 95.3732 120.267C95.3404 120.489 95.3756 120.716 95.4741 120.918C95.5974 120.984 95.7388 121.01 95.8777 120.991C96.0822 120.961 96.2901 120.965 96.4935 121.001C97.2345 121.106 98.5496 119.157 99.2801 118.095C100.644 116.119 102.502 113.398 105.167 114.661C105.777 114.9 106.326 115.271 106.775 115.749C107.223 116.226 107.561 116.797 107.762 117.42C107.893 117.912 107.92 118.426 107.842 118.929C107.764 119.433 107.583 119.914 107.31 120.343C107.048 120.736 106.641 121.009 106.179 121.103C105.716 121.197 105.235 121.103 104.841 120.844C104.447 120.584 104.172 120.178 104.076 119.716C103.98 119.254 104.07 118.773 104.328 118.377C104.21 118.214 104.052 118.083 103.869 117.998Z" fill="#F67B92"/>
<path d="M169.65 103.156C169.985 102.828 170.436 102.645 170.906 102.647C171.375 102.649 171.824 102.837 172.156 103.169C172.488 103.501 172.675 103.95 172.678 104.419C172.68 104.889 172.497 105.34 172.169 105.675L160.945 116.901L163.4 119.359L167.228 115.53C167.564 115.202 168.015 115.019 168.484 115.021C168.953 115.024 169.403 115.211 169.734 115.543C170.066 115.875 170.254 116.324 170.256 116.794C170.258 117.263 170.076 117.714 169.747 118.05L132.428 155.378C132.263 155.544 132.066 155.675 131.85 155.764C131.634 155.854 131.403 155.9 131.169 155.9H121.215C120.863 155.9 120.519 155.795 120.226 155.6C119.933 155.404 119.705 155.126 119.57 154.8C119.435 154.475 119.4 154.116 119.468 153.771C119.537 153.425 119.707 153.108 119.956 152.859L169.65 103.156ZM130.431 152.337L160.882 121.879L158.426 119.421L125.515 152.337H130.431Z" fill="#F67B92"/>
<path d="M124.9 61.6135C128.043 61.6135 130.6 59.0672 130.6 55.9374C130.6 52.8075 128.043 50.2612 124.9 50.2612C121.757 50.2612 119.2 52.8075 119.2 55.9374C119.2 59.0672 121.757 61.6135 124.9 61.6135ZM124.9 53.0993C126.471 53.0993 127.75 54.3725 127.75 55.9374C127.75 57.5023 126.471 58.7754 124.9 58.7754C123.328 58.7754 122.05 57.5023 122.05 55.9374C122.05 54.3725 123.328 53.0993 124.9 53.0993Z" fill="#F67B92"/>
<path d="M55.5 106C58.5327 106 61 103.533 61 100.5C61 97.4673 58.5327 95 55.5 95C52.4673 95 50 97.4673 50 100.5C50 103.533 52.4673 106 55.5 106ZM55.5 97.75C57.0163 97.75 58.25 98.9837 58.25 100.5C58.25 102.016 57.0163 103.25 55.5 103.25C53.9836 103.25 52.75 102.016 52.75 100.5C52.75 98.9837 53.9836 97.75 55.5 97.75Z" fill="#F67B92"/>
</g>
<defs>
<filter id="filter0_d" x="0" y="0.26123" width="222.891" height="205.639" filterUnits="userSpaceOnUse" color-interpolation-filters="sRGB">
<feFlood flood-opacity="0" result="BackgroundImageFix"/>
<feColorMatrix in="SourceAlpha" type="matrix" values="0 0 0 0 0 0 0 0 0 0 0 0 0 0 0 0 0 0 127 0"/>
<feOffset/>
<feGaussianBlur stdDeviation="25"/>
<feColorMatrix type="matrix" values="0 0 0 0 0.992157 0 0 0 0 0.368627 0 0 0 0 0.352941 0 0 0 0.5 0"/>
<feBlend mode="normal" in2="BackgroundImageFix" result="effect1_dropShadow"/>
<feBlend mode="normal" in="SourceGraphic" in2="effect1_dropShadow" result="shape"/>
</filter>
</defs>
</svg>
