<svg width="267" height="209" viewBox="0 0 267 209" fill="none" xmlns="http://www.w3.org/2000/svg">
<g filter="url(#filter0_d)">
<path d="M211 131C207.692 131 205 128.084 205 124.5C205 120.916 207.692 118 211 118C214.308 118 217 120.916 217 124.5C217 128.084 214.308 131 211 131ZM211 121.25C209.346 121.25 208 122.708 208 124.5C208 126.292 209.346 127.75 211 127.75C212.654 127.75 214 126.292 214 124.5C214 122.708 212.654 121.25 211 121.25Z" fill="#F67B92"/>
<path d="M56.5 81C52.9159 81 50 78.0841 50 74.5C50 70.9159 52.9159 68 56.5 68C60.0841 68 63 70.9159 63 74.5C63 78.0841 60.0841 81 56.5 81ZM56.5 71.25C54.7079 71.25 53.25 72.7079 53.25 74.5C53.25 76.292 54.7079 77.75 56.5 77.75C58.292 77.75 59.75 76.292 59.75 74.5C59.75 72.7079 58.292 71.25 56.5 71.25Z" fill="#F67B92"/>
<path d="M160.482 127.071H166.096C169.1 127.071 171.545 124.627 171.545 121.622V109.423C171.545 106.418 169.1 103.974 166.096 103.974H163.737V92.359C163.737 92.3382 163.738 92.3174 163.738 92.2966C163.738 92.2748 163.737 92.2549 163.737 92.2341V89.2295C163.737 86.2239 161.292 83.7803 158.288 83.7803H150.456C149.452 83.7803 148.639 84.5929 148.639 85.5967C148.639 86.5995 149.452 87.4131 150.456 87.4131H158.288C159.289 87.4131 160.104 88.2276 160.104 89.2295V90.4802H137.794V89.2295C137.794 88.2276 138.608 87.4131 139.61 87.4131H142.926C143.929 87.4131 144.742 86.5995 144.742 85.5967C144.742 84.5929 143.929 83.7803 142.926 83.7803H139.61C136.605 83.7803 134.161 86.2239 134.161 89.2295V96.2529H129.84V89.2295C129.84 86.2239 127.396 83.7803 124.391 83.7803H105.713C102.709 83.7803 100.264 86.2239 100.264 89.2295V92.2341C100.263 92.2549 100.263 92.2748 100.263 92.2966C100.263 92.3174 100.263 92.3382 100.264 92.359V103.974H92.0297C89.025 103.974 86.5804 106.418 86.5804 109.423V118.146C86.5804 119.15 87.394 119.963 88.3969 119.963C89.4006 119.963 90.2133 119.15 90.2133 118.146V114.443H108.072C105.089 118.963 103.352 124.373 103.352 130.182C103.352 133.976 104.094 137.602 105.44 140.919H92.0297C91.0278 140.919 90.2133 140.104 90.2133 139.103V125.679C90.2133 124.675 89.4006 123.862 88.3969 123.862C87.394 123.862 86.5804 124.675 86.5804 125.679V139.103C86.5804 142.108 89.025 144.552 92.0297 144.552H107.223C107.33 144.735 107.439 144.917 107.549 145.098L105.024 153.888C104.684 155.069 104.913 156.308 105.652 157.288C106.39 158.269 107.517 158.831 108.745 158.831C110.103 158.831 111.378 158.106 112.07 156.944L114.51 152.858C119.351 156.601 125.42 158.831 132 158.831C138.58 158.831 144.649 156.601 149.491 152.858L151.928 156.941C152.622 158.107 153.896 158.831 155.255 158.831C156.482 158.831 157.61 158.269 158.348 157.289C159.086 156.308 159.316 155.069 158.977 153.888L156.452 145.098C159.114 140.751 160.649 135.642 160.649 130.182C160.649 129.131 160.592 128.093 160.482 127.071ZM166.096 123.438H159.848C159.062 120.19 157.719 117.157 155.929 114.443H167.912V121.622C167.912 122.624 167.097 123.438 166.096 123.438ZM167.912 109.423V110.811H153.09C152.82 110.516 152.543 110.229 152.262 109.946H158.288C160.137 109.946 161.775 109.02 162.76 107.606H166.096C167.097 107.606 167.912 108.422 167.912 109.423ZM137.794 94.113H160.103V104.497C160.103 105.499 159.289 106.313 158.287 106.313H147.829C144.831 104.318 141.438 102.872 137.794 102.121V99.8857H142.963C143.966 99.8857 144.779 99.0721 144.779 98.0693C144.779 97.0656 143.966 96.2529 142.963 96.2529H137.794V94.113ZM134.161 99.8857V101.613C133.448 101.56 132.728 101.533 132.001 101.533C131.273 101.533 130.554 101.56 129.84 101.613V99.8857H134.161ZM121.038 99.8857H126.207V102.121C122.563 102.873 119.17 104.319 116.172 106.313H105.713C104.711 106.313 103.897 105.499 103.897 104.497V94.113H126.207V96.2529H121.038C120.035 96.2529 119.222 97.0656 119.222 98.0693C119.222 99.0721 120.035 99.8857 121.038 99.8857ZM105.713 87.4131H124.391C125.393 87.4131 126.207 88.2276 126.207 89.2295V90.4802H103.897V89.2295C103.897 88.2276 104.711 87.4131 105.713 87.4131ZM90.2133 110.811V109.423C90.2133 108.421 91.0278 107.606 92.0297 107.606H101.241C102.226 109.02 103.864 109.946 105.713 109.946H111.74C111.458 110.229 111.181 110.516 110.911 110.811H90.2133ZM108.95 155.084C108.867 155.222 108.652 155.233 108.554 155.104C108.506 155.039 108.493 154.968 108.515 154.892L110.26 148.82C110.732 149.371 111.225 149.902 111.738 150.415L108.95 155.084ZM155.486 154.892C155.507 154.968 155.494 155.04 155.447 155.104C155.349 155.233 155.135 155.225 155.049 155.082L152.263 150.416C152.776 149.903 153.269 149.371 153.741 148.82L155.486 154.892ZM132.001 155.198C118.207 155.198 106.985 143.976 106.985 130.182C106.985 116.386 118.21 105.166 132.001 105.166C145.773 105.166 157.017 116.365 157.017 130.182C157.016 143.976 145.794 155.198 132.001 155.198Z" fill="#F67B92"/>
<path d="M82.8075 140.1V93.9737C82.8075 92.5139 83.1935 91.074 83.9248 89.8082L96.9907 67.1769L98.6027 68.1079C99.4712 68.6093 100.582 68.3113 101.083 67.4428C101.585 66.5743 101.288 65.4637 100.419 64.9613L97.2631 63.1402C97.2537 63.1336 97.2442 63.1279 97.2338 63.1231C97.2243 63.1175 97.2149 63.1118 97.2054 63.1071L84.7422 55.9105C84.5275 55.7866 84.4489 55.5955 84.4206 55.4923C84.3931 55.3892 84.3657 55.1839 84.4896 54.9692C84.6798 54.639 85.1027 54.5264 85.4319 54.7166L94.7826 60.1157C95.5716 60.5707 96.5744 60.372 97.1297 59.6502C97.6907 58.9208 98.7143 58.7184 99.5119 59.1781C100.308 59.6389 100.644 60.6265 100.293 61.477C99.9461 62.3181 100.276 63.2868 101.064 63.7419L110.415 69.1409C110.631 69.2649 110.708 69.456 110.737 69.56C110.764 69.6622 110.792 69.8675 110.668 70.0832C110.477 70.4124 110.055 70.525 109.725 70.3348L107.319 68.9451C106.45 68.4437 105.34 68.7417 104.837 69.6102C104.336 70.4786 104.634 71.5902 105.502 72.0917L107.909 73.4814C108.588 73.8731 109.33 74.0594 110.063 74.0594C111.558 74.0594 113.014 73.2837 113.813 71.8996C114.391 70.8996 114.545 69.7341 114.246 68.6197C113.947 67.5043 113.231 66.5724 112.231 65.9944L104.042 61.2661C104.171 59.7978 103.699 58.3295 102.745 57.2113L103.41 56.0619C103.911 55.1924 103.613 54.0818 102.744 53.5804C101.874 53.079 100.764 53.377 100.263 54.2455L99.5998 55.3949C98.1543 55.1272 96.6453 55.4526 95.4382 56.2993L87.2483 51.57C85.184 50.379 82.5351 51.0885 81.344 53.1528C80.766 54.1527 80.6127 55.3173 80.9126 56.4327C81.2106 57.5472 81.9258 58.48 82.9258 59.057L93.8451 65.3605L80.7792 87.9909C79.7291 89.8082 79.1747 91.8772 79.1747 93.9737V140.106L70.2308 156.129C69.7417 157.005 70.0558 158.112 70.9318 158.6C71.2119 158.757 71.5156 158.831 71.8155 158.831C72.4521 158.831 73.0699 158.496 73.4029 157.9L80.9921 144.302L88.5822 157.9C89.0713 158.776 90.1772 159.09 91.0533 158.601C91.9293 158.112 92.2425 157.005 91.7543 156.129L82.8075 140.1Z" fill="#F67B92"/>
<path d="M189.677 72.2349H180.221C179.598 70.8981 178.454 69.8622 177.069 69.3712V68.043C177.069 67.0402 176.256 66.2266 175.252 66.2266C174.248 66.2266 173.436 67.0402 173.436 68.043V69.3722C172.051 69.8632 170.908 70.8991 170.285 72.2349H160.829C158.446 72.2349 156.506 74.1743 156.506 76.5574C156.506 78.9405 158.446 80.8799 160.829 80.8799H173.436V140.105L164.492 156.129C164.003 157.005 164.316 158.112 165.192 158.6C166.068 159.089 167.175 158.776 167.664 157.899L175.253 144.302L182.843 157.899C183.175 158.495 183.794 158.831 184.431 158.831C184.731 158.831 185.034 158.756 185.314 158.6C186.19 158.111 186.503 157.005 186.015 156.129L177.069 140.1V80.8799H189.677C192.061 80.8799 194 78.9414 194 76.5574C194 74.1743 192.061 72.2349 189.677 72.2349ZM189.677 77.247H175.312C175.292 77.2461 175.272 77.2461 175.252 77.2461C175.232 77.2461 175.212 77.247 175.193 77.247H160.829C160.449 77.247 160.14 76.9377 160.14 76.5574C160.14 76.1771 160.448 75.8687 160.829 75.8687H171.627C172.537 75.8687 173.307 75.1941 173.427 74.2916C173.547 73.39 174.316 72.7079 175.224 72.6928H175.252H175.282C176.19 72.707 176.96 73.3891 177.08 74.2916C177.2 75.1941 177.97 75.8677 178.88 75.8677H189.678C190.058 75.8677 190.367 76.1771 190.367 76.5574C190.367 76.9377 190.058 77.247 189.677 77.247Z" fill="#F67B92"/>
</g>
<defs>
<filter id="filter0_d" x="0" y="0.992188" width="267" height="207.839" filterUnits="userSpaceOnUse" color-interpolation-filters="sRGB">
<feFlood flood-opacity="0" result="BackgroundImageFix"/>
<feColorMatrix in="SourceAlpha" type="matrix" values="0 0 0 0 0 0 0 0 0 0 0 0 0 0 0 0 0 0 127 0"/>
<feOffset/>
<feGaussianBlur stdDeviation="25"/>
<feColorMatrix type="matrix" values="0 0 0 0 0.992157 0 0 0 0 0.368627 0 0 0 0 0.352941 0 0 0 0.5 0"/>
<feBlend mode="normal" in2="BackgroundImageFix" result="effect1_dropShadow"/>
<feBlend mode="normal" in="SourceGraphic" in2="effect1_dropShadow" result="shape"/>
</filter>
</defs>
</svg>
