<svg width="232" height="209" viewBox="0 0 232 209" fill="none" xmlns="http://www.w3.org/2000/svg">
<g filter="url(#filter0_d)">
<path d="M143.403 123.86L144.712 122.562C151.191 116.159 151.205 105.764 144.744 99.3445C138.282 92.9245 127.792 92.9105 121.313 99.3134C121.302 99.3239 121.292 99.3345 121.281 99.3449L119.972 100.642L112.142 92.8845L114.754 90.2963C121.136 83.9708 129.803 80.4344 138.829 80.4738C139.743 81.1688 140.86 81.5502 142.013 81.5604C142.061 81.5604 142.115 81.5613 142.167 81.5604C143.611 81.5613 144.996 80.9897 146.013 79.9727L146.017 79.9702C148.164 77.8328 148.163 74.3772 146.015 72.2406L125.173 51.5894C124.144 50.5731 122.751 50.0017 121.298 50C119.831 50.0072 118.424 50.5772 117.373 51.5903C115.448 53.5096 115.232 56.5363 116.867 58.7044C116.906 67.65 113.337 76.2404 106.954 82.5665L104.342 85.1549L103.032 83.8572C100.872 81.7372 97.3918 81.7368 95.2315 83.8564C93.0822 85.9932 93.0822 89.4502 95.2315 91.587L96.5411 92.8848L88.7119 100.643L87.4022 99.3449C86.382 98.3161 84.9835 97.7419 83.5278 97.7547C80.4839 97.7404 78.0048 100.174 77.9904 103.19C77.9836 104.646 78.5635 106.044 79.6015 107.075L80.9111 108.372L65.2743 123.867C62.156 126.939 60.4078 131.119 60.4194 135.476C60.4181 144.543 67.8347 151.894 76.9848 151.895C81.3807 151.896 85.5966 150.165 88.7046 147.084L104.341 131.59L112.171 139.348L108.016 143.465C107.287 143.108 106.483 142.924 105.67 142.927C104.197 142.904 102.778 143.479 101.743 144.518C99.5928 146.653 99.5928 150.111 101.743 152.247L106.953 157.41C107.958 158.42 109.326 158.992 110.757 159C110.806 159 110.857 158.999 110.906 159C112.351 159.001 113.738 158.428 114.754 157.41C116.398 155.77 116.821 153.283 115.811 151.2L119.971 147.077L121.281 148.375C122.285 149.385 123.654 149.957 125.085 149.965C125.133 149.965 125.183 149.965 125.233 149.965C126.679 149.966 128.065 149.394 129.082 148.375C131.232 146.239 131.232 142.782 129.082 140.646L127.772 139.348L135.602 131.59L136.91 132.887C137.915 133.898 139.285 134.47 140.717 134.478C140.764 134.479 140.814 134.478 140.86 134.478C142.307 134.479 143.694 133.907 144.712 132.888L144.714 132.886C146.862 130.749 146.861 127.294 144.712 125.158L143.403 123.86ZM123.872 101.912C128.911 96.9184 137.082 96.9182 142.121 101.912C147.161 106.905 147.161 115.002 142.122 119.995L140.812 121.293L138.193 118.698L139.502 117.4C143.1 113.844 143.108 108.072 139.52 104.507C135.933 100.942 130.107 100.934 126.51 104.489C126.503 104.495 126.497 104.501 126.491 104.508L125.182 105.805L122.562 103.21L123.872 101.912ZM136.912 114.833L135.602 116.13L127.772 108.372L129.082 107.075C131.244 104.932 134.749 104.932 136.911 107.074C139.073 109.216 139.074 112.69 136.912 114.833ZM119.963 54.1583C120.309 53.8136 120.781 53.6232 121.272 53.6309H121.298C121.785 53.6062 122.256 53.7996 122.583 54.1574L143.422 74.8069C144.145 75.5241 144.146 76.6852 143.424 77.4032C143.078 77.7474 142.606 77.9376 142.116 77.9298H142.064C141.59 77.9283 141.137 77.7389 140.805 77.4041L119.964 56.7531C119.243 56.0359 119.242 54.8756 119.963 54.1583ZM109.544 85.1337C115.748 79.0256 119.592 70.9546 120.408 62.3265L135.179 76.9641C126.472 77.7715 118.327 81.5811 112.164 87.7289L109.552 90.3172L106.932 87.7219L109.544 85.1337ZM99.1317 95.4517L101.751 98.0472L93.9216 105.805L91.3024 103.21L99.1317 95.4517ZM109.551 121.293L106.932 118.698L114.761 110.939L117.381 113.535L109.551 121.293ZM119.971 116.102L127.801 123.86L119.971 131.618L112.142 123.86L119.971 116.102ZM104.342 116.13L96.5124 108.372L104.342 100.614L112.171 108.372L104.342 116.13ZM86.1141 144.517C81.0747 149.511 72.9043 149.511 67.865 144.517C62.8257 139.524 62.8257 131.428 67.865 126.434L83.5021 110.939L86.1214 113.535L76.9968 122.576L71.7868 127.739L70.4843 129.03C66.8916 132.59 66.8916 138.362 70.4843 141.922C74.077 145.482 79.9021 145.482 83.4948 141.922L84.7973 140.631L90.0073 135.469L99.1319 126.427L101.751 129.023L86.1141 144.517ZM75.6728 129.023L78.2921 126.427L86.1214 134.185L83.5021 136.781L75.6728 129.023ZM80.9111 139.348L80.9041 139.355C78.7401 141.495 75.2348 141.492 73.0748 139.347C70.9177 137.206 70.9177 133.738 73.0748 131.597L73.0819 131.59L80.9111 139.348ZM80.8826 123.86L88.7119 116.102L96.5411 123.86L88.7119 131.618L80.8826 123.86ZM112.164 154.843C111.815 155.198 111.33 155.39 110.83 155.369C110.349 155.365 109.888 155.176 109.545 154.843L104.335 149.68C103.613 148.963 103.613 147.802 104.335 147.084C104.685 146.73 105.17 146.539 105.67 146.558C106.154 146.546 106.62 146.737 106.954 147.084L112.164 152.247C112.885 152.964 112.885 154.125 112.164 154.843ZM113.459 148.396L110.84 145.801L114.761 141.915L117.381 144.51L113.459 148.396ZM126.491 145.808C126.133 146.149 125.654 146.338 125.157 146.335C124.676 146.333 124.214 146.144 123.872 145.808L121.267 143.227L116.057 138.064L105.637 127.739L100.427 122.576L90.0071 112.251L84.7973 107.089L82.1922 104.508C81.4754 103.788 81.4754 102.631 82.1922 101.912C82.5327 101.543 83.0248 101.349 83.5278 101.386C84.0094 101.385 84.4712 101.574 84.8115 101.912L87.4164 104.493L92.6264 109.656L103.046 119.981L108.256 125.144L118.676 135.469L123.886 140.631L126.491 143.213C127.213 143.93 127.213 145.091 126.491 145.808ZM125.181 136.781L122.562 134.185L130.391 126.427L133.011 129.023L125.181 136.781ZM142.12 130.321C141.774 130.665 141.303 130.854 140.814 130.847H140.789C140.305 130.855 139.839 130.665 139.502 130.32L136.898 127.739L136.525 127.37L97.8222 89.0199C97.1043 88.301 97.1043 87.1432 97.8222 86.4244C98.1677 86.08 98.64 85.8898 99.1302 85.8979H99.1578C99.6381 85.9036 100.098 86.0921 100.442 86.4244L103.046 89.0056L108.256 94.1682L108.257 94.1687L118.676 104.492L118.676 104.494L123.886 109.656L123.888 109.657L134.305 119.979L134.306 119.981L139.145 124.775L142.122 127.725C142.843 128.443 142.842 129.604 142.12 130.321Z" fill="#F67B92"/>
<path d="M57.6582 76.2859C53.4355 76.2859 50 72.8658 50 68.662C50 64.4582 53.4355 61.0381 57.6582 61.0381C61.881 61.0381 65.3165 64.4582 65.3165 68.662C65.3165 72.8658 61.881 76.2859 57.6582 76.2859ZM57.6582 64.85C55.5469 64.85 53.8291 66.5601 53.8291 68.662C53.8291 70.7639 55.5469 72.4739 57.6582 72.4739C59.7696 72.4739 61.4873 70.7639 61.4873 68.662C61.4873 66.5601 59.7696 64.85 57.6582 64.85Z" fill="#F67B92"/>
<path d="M174.5 118C170.365 118 167 114.411 167 110C167 105.589 170.365 102 174.5 102C178.635 102 182 105.589 182 110C182 114.411 178.635 118 174.5 118ZM174.5 106C172.432 106 170.75 107.794 170.75 110C170.75 112.206 172.432 114 174.5 114C176.568 114 178.25 112.206 178.25 110C178.25 107.794 176.568 106 174.5 106Z" fill="#F67B92"/>
</g>
<defs>
<filter id="filter0_d" x="0" y="0" width="232" height="209" filterUnits="userSpaceOnUse" color-interpolation-filters="sRGB">
<feFlood flood-opacity="0" result="BackgroundImageFix"/>
<feColorMatrix in="SourceAlpha" type="matrix" values="0 0 0 0 0 0 0 0 0 0 0 0 0 0 0 0 0 0 127 0"/>
<feOffset/>
<feGaussianBlur stdDeviation="25"/>
<feColorMatrix type="matrix" values="0 0 0 0 0.992157 0 0 0 0 0.368627 0 0 0 0 0.352941 0 0 0 0.5 0"/>
<feBlend mode="normal" in2="BackgroundImageFix" result="effect1_dropShadow"/>
<feBlend mode="normal" in="SourceGraphic" in2="effect1_dropShadow" result="shape"/>
</filter>
</defs>
</svg>
