<svg width="222" height="203" viewBox="0 0 222 203" fill="none" xmlns="http://www.w3.org/2000/svg">
<g filter="url(#filter0_d)">
<path d="M89.8399 104.178C98.0679 104.178 104.761 97.4936 104.761 89.2753C104.761 81.057 98.0679 74.373 89.8399 74.373C81.6102 74.373 74.9169 81.057 74.9169 89.2753C74.9169 97.4936 81.6102 104.178 89.8399 104.178ZM89.8399 78.5C95.5 78.5 100.5 82.9479 100.5 89.2753C100.5 95 95.5 100 89.8399 100C84.1798 100 79 95 79 89.2753C79 83.5507 83.5 78.5 89.8399 78.5Z" fill="#F67B92"/>
<path d="M119.42 90.579C127.648 90.579 134.341 83.895 134.341 75.6767C134.341 67.4584 127.648 60.7744 119.42 60.7744C111.19 60.7744 104.497 67.4584 104.497 75.6767C104.497 83.895 111.19 90.579 119.42 90.579ZM119.42 65C125.5 65 130 70 130 75.6767C130 82.0041 125.34 86.5 119.42 86.5C113.5 86.5 108.5 81.3534 108.5 75.6767C108.5 70 113.34 65 119.42 65Z" fill="#F67B92"/>
<path d="M144 103C143.114 103 141.465 103.201 140.615 103.331C135.216 96.4982 128.007 93.1885 119.418 93.1885C109.585 93.1885 100.873 98.8148 95.4912 107.436C93.6595 107.021 91.7712 106.786 89.8365 106.786C73.5264 106.786 60.2566 122.239 60.2566 141.226C60.2566 141.226 60.2566 142.999 61.3198 142.999C62.3831 142.999 117.923 142.999 118.387 142.999C118.851 142.999 119.42 142.37 119.42 141.226C119.42 140.083 118.743 133.052 117.566 129.343H127.5C130 135 136 139 143.714 139C154 139 161.5 131.5 161.5 121.119C161.5 110.739 153 103 144 103ZM64.5 139C65.2519 122.694 75.904 111 89.8365 111C103.771 111 114.248 122.694 115 139H64.5ZM126.5 125.914H116.295C112.768 117.687 107.612 111.863 100 109C104.791 101.8 111.103 97.5 119.418 97.5C126.436 97.5 131.32 99.6309 136 105C129.5 108 126 113.954 126 121.119C126.002 122.784 126.05 124.392 126.5 125.914ZM143.714 134.696C136.217 134.696 130.118 128.606 130.118 121.119C130.118 113.633 136.217 107.542 143.714 107.542C151.211 107.542 157.31 113.633 157.31 121.119C157.31 128.606 151.211 134.696 143.714 134.696Z" fill="#F67B92"/>
<path d="M146.671 129.846H142.71V117.236L138.819 118.373V115.373L146.307 112.783H146.671V129.846Z" fill="#F67B92"/>
</g>
<defs>
<filter id="filter0_d" x="0.256592" y="0.774414" width="221.243" height="202.225" filterUnits="userSpaceOnUse" color-interpolation-filters="sRGB">
<feFlood flood-opacity="0" result="BackgroundImageFix"/>
<feColorMatrix in="SourceAlpha" type="matrix" values="0 0 0 0 0 0 0 0 0 0 0 0 0 0 0 0 0 0 127 0"/>
<feOffset/>
<feGaussianBlur stdDeviation="30"/>
<feColorMatrix type="matrix" values="0 0 0 0 0.992157 0 0 0 0 0.368627 0 0 0 0 0.352941 0 0 0 0.4 0"/>
<feBlend mode="normal" in2="BackgroundImageFix" result="effect1_dropShadow"/>
<feBlend mode="normal" in="SourceGraphic" in2="effect1_dropShadow" result="shape"/>
</filter>
</defs>
</svg>
