<svg width="280" height="182" viewBox="0 0 280 182" fill="none" xmlns="http://www.w3.org/2000/svg">
<g filter="url(#filter0_d)">
<path d="M57 75C53.1402 75 50 71.8598 50 68C50 64.1402 53.1402 61 57 61C60.8598 61 64 64.1402 64 68C64 71.8598 60.8598 75 57 75ZM57 64.5C55.0701 64.5 53.5 66.0701 53.5 68C53.5 69.9299 55.0701 71.5 57 71.5C58.9299 71.5 60.5 69.9299 60.5 68C60.5 66.0701 58.9299 64.5 57 64.5Z" fill="#F67B92"/>
<path d="M223 118C219.14 118 216 114.86 216 111C216 107.14 219.14 104 223 104C226.86 104 230 107.14 230 111C230 114.86 226.86 118 223 118ZM223 107.5C221.07 107.5 219.5 109.07 219.5 111C219.5 112.93 221.07 114.5 223 114.5C224.93 114.5 226.5 112.93 226.5 111C226.5 109.07 224.93 107.5 223 107.5Z" fill="#F67B92"/>
<path d="M188.023 50.939H97.9766C94.6809 50.939 92 53.6145 92 56.9037V125.299C92 128.588 94.6809 131.263 97.9766 131.263H133.837C134.937 131.263 135.83 130.373 135.83 129.275C135.83 128.177 134.937 127.287 133.837 127.287H97.9766C96.8777 127.287 95.9844 126.395 95.9844 125.299V56.9037C95.9844 55.807 96.8777 54.9154 97.9766 54.9154H188.023C189.122 54.9154 190.016 55.807 190.016 56.9037V125.299C190.016 126.395 189.122 127.287 188.023 127.287H151.767C150.667 127.287 149.775 128.177 149.775 129.275C149.775 130.373 150.667 131.263 151.767 131.263H188.023C191.319 131.263 194 128.588 194 125.299V56.9037C194 53.6145 191.319 50.939 188.023 50.939Z" fill="#F67B92"/>
<path d="M141.805 108.995C142.905 108.995 143.797 108.105 143.797 107.007V91.1011C143.797 90.0029 142.905 89.1129 141.805 89.1129H139.812V65.6518C139.812 64.5536 138.921 63.6636 137.82 63.6636C136.72 63.6636 135.828 64.5536 135.828 65.6518V89.1129H133.836C132.736 89.1129 131.844 90.0029 131.844 91.1011V107.007C131.844 108.105 132.736 108.995 133.836 108.995H135.828V116.55C135.828 117.649 136.72 118.539 137.82 118.539C138.921 118.539 139.812 117.649 139.812 116.55V108.995H141.805ZM135.828 93.0894H139.812V105.019H135.828V93.0894Z" fill="#F67B92"/>
<path d="M105.945 118.539C107.046 118.539 107.938 117.649 107.938 116.55V93.0894H109.93C111.03 93.0894 111.922 92.1993 111.922 91.1011V75.1953C111.922 74.0971 111.03 73.2071 109.93 73.2071H107.938V65.6518C107.938 64.5536 107.046 63.6636 105.945 63.6636C104.845 63.6636 103.953 64.5536 103.953 65.6518V73.2071H101.961C100.861 73.2071 99.9688 74.0971 99.9688 75.1953V91.1011C99.9688 92.1993 100.861 93.0894 101.961 93.0894H103.953V116.55C103.953 117.649 104.845 118.539 105.945 118.539ZM103.953 77.1835H107.938V89.1129H103.953V77.1835Z" fill="#F67B92"/>
<path d="M121.883 118.539C122.983 118.539 123.875 117.649 123.875 116.55V101.042H125.867C126.968 101.042 127.859 100.152 127.859 99.054V83.1482C127.859 82.05 126.968 81.16 125.867 81.16H123.875V65.6518C123.875 64.5536 122.983 63.6636 121.883 63.6636C120.782 63.6636 119.891 64.5536 119.891 65.6518V81.16H117.898C116.798 81.16 115.906 82.05 115.906 83.1482V99.054C115.906 100.152 116.798 101.042 117.898 101.042H119.891V116.55C119.891 117.649 120.782 118.539 121.883 118.539ZM119.891 85.1364H123.875V97.0658H119.891V85.1364Z" fill="#F67B92"/>
<path d="M184.039 67.3764C184.563 67.3764 185.077 67.1636 185.448 66.7931C185.818 66.4234 186.031 65.9108 186.031 65.3881C186.031 64.8631 185.818 64.3521 185.448 63.9824C185.077 63.6104 184.563 63.3999 184.039 63.3999C183.515 63.3999 183.001 63.6104 182.631 63.9824C182.26 64.3521 182.047 64.8647 182.047 65.3881C182.047 65.9108 182.26 66.4219 182.631 66.7931C183.001 67.1636 183.515 67.3764 184.039 67.3764Z" fill="#F67B92"/>
<path d="M172.618 67.3764C173.142 67.3764 173.654 67.1636 174.026 66.7931C174.396 66.4219 174.61 65.9108 174.61 65.3881C174.61 64.8647 174.397 64.3521 174.026 63.9824C173.654 63.6104 173.142 63.3999 172.618 63.3999C172.092 63.3999 171.58 63.6104 171.21 63.9824C170.837 64.3521 170.626 64.8631 170.626 65.3881C170.626 65.9108 170.837 66.4234 171.21 66.7931C171.58 67.1636 172.092 67.3764 172.618 67.3764Z" fill="#F67B92"/>
<path d="M161.194 67.3764C161.719 67.3764 162.232 67.1636 162.603 66.7931C162.976 66.4234 163.186 65.9108 163.186 65.3881C163.186 64.8631 162.976 64.3521 162.603 63.9824C162.232 63.6104 161.719 63.3999 161.194 63.3999C160.671 63.3999 160.157 63.6104 159.787 63.9824C159.415 64.3497 159.202 64.8631 159.202 65.3881C159.202 65.9108 159.415 66.4234 159.787 66.7931C160.157 67.1636 160.671 67.3764 161.194 67.3764Z" fill="#F67B92"/>
<path d="M149.773 67.3764C150.297 67.3764 150.812 67.1636 151.182 66.7931C151.552 66.4234 151.766 65.9108 151.766 65.3881C151.766 64.8631 151.552 64.3521 151.182 63.9824C150.812 63.6104 150.297 63.3999 149.773 63.3999C149.25 63.3999 148.735 63.6104 148.365 63.9824C147.994 64.3521 147.781 64.8631 147.781 65.3881C147.781 65.9108 147.994 66.4234 148.365 66.7931C148.735 67.1636 149.25 67.3764 149.773 67.3764Z" fill="#F67B92"/>
<path d="M182.631 74.7462C183.001 75.1159 183.515 75.3295 184.039 75.3295C184.563 75.3295 185.077 75.1167 185.448 74.7462C185.818 74.375 186.031 73.8639 186.031 73.3413C186.031 72.8178 185.818 72.3052 185.448 71.9355C185.077 71.5635 184.563 71.353 184.039 71.353C183.515 71.353 183.001 71.5635 182.631 71.9355C182.26 72.3052 182.047 72.8178 182.047 73.3413C182.047 73.8639 182.26 74.375 182.631 74.7462Z" fill="#F67B92"/>
<path d="M171.21 74.7462C171.58 75.1159 172.092 75.3295 172.618 75.3295C173.142 75.3295 173.654 75.1167 174.026 74.7462C174.396 74.3765 174.61 73.8639 174.61 73.3413C174.61 72.8178 174.397 72.3052 174.026 71.9355C173.656 71.5658 173.142 71.353 172.618 71.353C172.092 71.353 171.578 71.5651 171.21 71.9355C170.837 72.3052 170.626 72.8178 170.626 73.3413C170.626 73.8639 170.837 74.3765 171.21 74.7462Z" fill="#F67B92"/>
<path d="M159.787 74.7462C160.157 75.1159 160.671 75.3295 161.194 75.3295C161.719 75.3295 162.232 75.1167 162.603 74.7462C162.976 74.3765 163.186 73.8639 163.186 73.3413C163.186 72.8178 162.976 72.3052 162.603 71.9355C162.232 71.5658 161.72 71.353 161.194 71.353C160.671 71.353 160.157 71.5651 159.787 71.9355C159.415 72.3052 159.202 72.8162 159.202 73.3413C159.202 73.8639 159.415 74.3765 159.787 74.7462Z" fill="#F67B92"/>
<path d="M148.365 74.7462C148.735 75.1159 149.25 75.3295 149.773 75.3295C150.297 75.3295 150.812 75.1167 151.182 74.7462C151.552 74.3765 151.766 73.8639 151.766 73.3413C151.766 72.8178 151.552 72.3052 151.182 71.9355C150.812 71.5658 150.297 71.353 149.773 71.353C149.247 71.353 148.735 71.5651 148.365 71.9355C147.994 72.3052 147.781 72.8178 147.781 73.3413C147.781 73.8639 147.994 74.3765 148.365 74.7462Z" fill="#F67B92"/>
<path d="M177.652 97.8861C182.272 97.8861 186.031 94.1341 186.031 89.5231C186.031 84.9114 182.273 81.1602 177.652 81.1602C173.031 81.1602 169.272 84.9114 169.272 89.5231C169.272 94.1341 173.031 97.8861 177.652 97.8861ZM177.652 85.1366C180.075 85.1366 182.047 87.1039 182.047 89.5231C182.047 91.9416 180.076 93.9097 177.652 93.9097C175.228 93.9097 173.256 91.9416 173.256 89.5231C173.256 87.1039 175.228 85.1366 177.652 85.1366Z" fill="#F67B92"/>
<path d="M177.652 118.539C182.273 118.539 186.031 114.788 186.031 110.176C186.031 105.565 182.273 101.813 177.652 101.813C173.031 101.813 169.272 105.565 169.272 110.176C169.272 114.788 173.031 118.539 177.652 118.539ZM177.652 105.79C180.075 105.79 182.047 107.758 182.047 110.176C182.047 112.596 180.076 114.563 177.652 114.563C175.228 114.563 173.256 112.596 173.256 110.176C173.256 107.758 175.228 105.79 177.652 105.79Z" fill="#F67B92"/>
<path d="M156.161 97.8861C160.781 97.8861 164.541 94.1341 164.541 89.5231C164.541 84.9114 160.782 81.1602 156.161 81.1602C151.54 81.1602 147.781 84.9114 147.781 89.5231C147.781 94.1341 151.54 97.8861 156.161 97.8861ZM156.161 85.1366C158.584 85.1366 160.556 87.1039 160.556 89.5231C160.556 91.9416 158.584 93.9097 156.161 93.9097C153.737 93.9097 151.766 91.9416 151.766 89.5231C151.766 87.1046 153.737 85.1366 156.161 85.1366Z" fill="#F67B92"/>
<path d="M156.161 118.539C160.781 118.539 164.541 114.788 164.541 110.176C164.541 105.565 160.782 101.813 156.161 101.813C151.541 101.813 147.781 105.565 147.781 110.176C147.781 114.788 151.54 118.539 156.161 118.539ZM156.161 105.79C158.584 105.79 160.556 107.758 160.556 110.176C160.556 112.596 158.584 114.563 156.161 114.563C153.738 114.563 151.766 112.596 151.766 110.176C151.766 107.758 153.737 105.79 156.161 105.79Z" fill="#F67B92"/>
<path d="M142.803 127.287C142.277 127.287 141.765 127.5 141.395 127.87C141.022 128.239 140.811 128.753 140.811 129.275C140.811 129.798 141.022 130.311 141.395 130.681C141.765 131.051 142.277 131.264 142.803 131.264C143.327 131.264 143.84 131.051 144.209 130.681C144.582 130.311 144.795 129.798 144.795 129.275C144.795 128.753 144.582 128.239 144.209 127.87C143.84 127.5 143.327 127.287 142.803 127.287Z" fill="#F67B92"/>
</g>
<defs>
<filter id="filter0_d" x="0" y="0.938965" width="280" height="180.325" filterUnits="userSpaceOnUse" color-interpolation-filters="sRGB">
<feFlood flood-opacity="0" result="BackgroundImageFix"/>
<feColorMatrix in="SourceAlpha" type="matrix" values="0 0 0 0 0 0 0 0 0 0 0 0 0 0 0 0 0 0 127 0"/>
<feOffset/>
<feGaussianBlur stdDeviation="25"/>
<feColorMatrix type="matrix" values="0 0 0 0 0.992157 0 0 0 0 0.368627 0 0 0 0 0.352941 0 0 0 0.5 0"/>
<feBlend mode="normal" in2="BackgroundImageFix" result="effect1_dropShadow"/>
<feBlend mode="normal" in="SourceGraphic" in2="effect1_dropShadow" result="shape"/>
</filter>
</defs>
</svg>
