<svg width="35" height="36" viewBox="0 0 35 36" fill="none" xmlns="http://www.w3.org/2000/svg">
<path d="M26.204 35.0188C25.1196 35.0188 22.8488 34.8377 19.8262 33.6244C16.1311 32.1414 12.4823 29.6056 8.98115 26.0878C2.0035 19.077 -0.559713 13.8632 0.133823 8.09149C0.460207 5.19575 1.69629 3.74767 3.40669 2.01861C4.07267 1.34954 4.94933 0.981934 5.87708 0.981934C6.76729 0.981934 7.59835 1.32444 8.21736 1.94632L13.2142 6.96691C14.5197 8.28335 14.4893 10.4504 13.1474 11.7987L11.7178 13.2333C11.3296 13.6228 11.2528 14.2278 11.5313 14.7046C12.4999 16.5 12.9999 17.4702 15.2829 19.7641C16.7016 21.1895 18.1595 22.285 20.3148 23.5447C20.4984 23.652 20.7077 23.7087 20.9197 23.7087C21.2418 23.7087 21.5445 23.5829 21.7719 23.3547L23.21 21.9118C23.873 21.2457 24.7494 20.8786 25.6775 20.8786C26.5668 20.8786 27.3979 21.2203 28.0175 21.8406L33.0153 26.8622C34.3195 28.1773 34.6381 30 32.9495 31.6966C32.9472 31.699 32.9447 31.7014 32.9424 31.7038C31.0434 33.5217 29.1105 34.6875 26.8979 34.9879C26.8949 34.9883 26.8918 34.9887 26.8888 34.989C26.8058 34.998 26.5731 35.0188 26.204 35.0188ZM5.87708 2.01861C4.99991 1.94632 4.35973 2.63839 3.99991 3C2.15208 4.85704 1.60172 6 1.38796 7.28259C0.648827 11.7174 0.979269 16.4363 9.99991 25.5C17.8095 33.3469 24.1925 34.02 25.991 34.0201C26.2877 34.0201 26.4599 34.0041 26.4999 34C28.9999 33.7417 30.9999 32 31.4999 31.5C32.9999 30 33.4999 29 32.4999 28L26.9999 22.5C26.6854 22.1851 26.204 21.9118 25.6775 21.9118C24.4999 21.9118 23.8589 22.6392 23.4999 23L22.4999 24C21.9682 24.5336 21.4963 24.9999 20.9999 25C20.5035 25.0001 19.4294 24.251 18.9999 24C17.41 23.0707 15.8911 21.9002 13.9999 20C12.7344 18.5217 11.8207 17.7619 10.4999 15.5C9.85012 14.3872 9.99991 13.5 10.9999 12.5L12.4999 11C13.2142 10.2823 13.7268 8.96884 12.1361 7.28259L7.64175 2.8478C7.32721 2.53169 6.99773 2.11096 5.87708 2.01861Z" fill="#F67B92"/>
</svg>
