<svg viewBox="0 0 217 204" fill="none" xmlns="http://www.w3.org/2000/svg">
<g filter="url(#filter0_d)">
<path d="M100.993 131.015H96.7203V135.28H100.993V131.015Z" fill="#F67B92"/>
<path d="M109.539 131.015H105.266V135.28H109.539V131.015Z" fill="#F67B92"/>
<path d="M118.085 131.015H113.812V135.28H118.085V131.015Z" fill="#F67B92"/>
<path d="M90.3107 135.28H62.5362C61.3562 135.28 60.3998 134.325 60.3998 133.147C60.3998 131.97 61.3562 131.015 62.5362 131.015H90.3107C91.4907 131.015 92.4473 131.97 92.4473 133.147C92.4473 134.325 91.491 135.28 90.3107 135.28Z" fill="#F67B92"/>
<path d="M154.406 135.28H124.495C123.315 135.28 122.358 134.325 122.358 133.147C122.358 131.97 123.315 131.015 124.495 131.015H154.406C155.586 131.015 156.542 131.97 156.542 133.147C156.542 134.325 155.586 135.28 154.406 135.28Z" fill="#F67B92"/>
<path d="M154.406 143.81H62.5362C61.3562 143.81 60.3998 142.856 60.3998 141.678V84.6828C60.3998 79.6556 64.4971 75.5657 69.5334 75.5657H86.0379C87.2179 75.5657 88.1745 76.5205 88.1745 77.6984V120.351H130.905V77.6982C130.905 76.5203 131.861 75.5654 133.041 75.5654H147.409C152.446 75.5654 156.543 79.6554 156.543 84.6825V141.678C156.542 142.855 155.586 143.81 154.406 143.81ZM64.6728 139.545H152.269V84.6828C152.269 82.0073 150.089 79.831 147.409 79.831H135.177V122.484C135.177 123.662 134.221 124.617 133.041 124.617H86.0379C84.8578 124.617 83.9015 123.662 83.9015 122.484V79.831H69.5334C66.8533 79.831 64.6728 82.0075 64.6728 84.6828V139.545Z" fill="#F67B92"/>
<path d="M133.041 124.617H86.0379C84.8579 124.617 83.9015 123.662 83.9015 122.484V74.0733C83.9015 66.6648 89.9395 60.6377 97.3614 60.6377H133.041C134.221 60.6377 135.178 61.5924 135.178 62.7705V122.485C135.177 123.662 134.221 124.617 133.041 124.617ZM88.1743 120.352H130.904V64.9028H97.3612C92.2954 64.9028 88.1743 69.0167 88.1743 74.0733V120.352Z" fill="#F67B92"/>
<path d="M141.587 113.954C140.407 113.954 139.45 113 139.45 111.822V71.3015H133.041C131.861 71.3015 130.904 70.3468 130.904 69.1687C130.904 67.9908 131.861 67.0361 133.041 67.0361H141.587C142.767 67.0361 143.723 67.9908 143.723 69.1687V111.822C143.723 113 142.767 113.954 141.587 113.954Z" fill="#F67B92"/>
<path d="M113.719 101.446C113.614 101.324 113.417 101.176 113.129 101.001C112.84 100.826 112.5 100.647 112.106 100.464C111.713 100.281 111.28 100.115 110.809 99.9673C110.337 99.8191 109.847 99.7185 109.34 99.6662V104.193L109.996 104.351C110.904 104.595 111.73 104.857 112.473 105.136C113.216 105.415 113.845 105.764 114.361 106.182C114.876 106.601 115.274 107.103 115.554 107.687C115.833 108.272 115.973 108.991 115.973 109.846C115.973 110.806 115.803 111.625 115.462 112.306C115.121 112.986 114.658 113.545 114.073 113.98C113.487 114.417 112.805 114.744 112.028 114.962C111.25 115.18 110.433 115.306 109.576 115.341V118.22H108.004V115.315C106.78 115.227 105.587 114.979 104.425 114.57C103.263 114.16 102.21 113.623 101.266 112.96L102.865 109.846C103.005 109.986 103.246 110.169 103.586 110.396C103.927 110.622 104.338 110.845 104.818 111.063C105.299 111.281 105.832 111.486 106.418 111.678C107.003 111.87 107.61 112.001 108.24 112.07V107.57C108.082 107.535 107.925 107.496 107.768 107.452C107.61 107.409 107.453 107.36 107.296 107.308C106.404 107.064 105.631 106.798 104.976 106.51C104.321 106.222 103.774 105.882 103.337 105.489C102.9 105.097 102.573 104.643 102.354 104.129C102.136 103.614 102.027 102.999 102.027 102.283C102.027 101.411 102.18 100.631 102.485 99.9413C102.791 99.2524 103.211 98.6635 103.744 98.1751C104.277 97.687 104.911 97.3028 105.644 97.0237C106.379 96.7447 107.165 96.5703 108.004 96.5003V93.8311H109.577V96.4741C110.73 96.5615 111.792 96.797 112.762 97.1804C113.732 97.5645 114.584 98.0094 115.318 98.515L113.719 101.446ZM105.749 101.707C105.749 102.301 105.955 102.75 106.365 103.055C106.776 103.361 107.401 103.635 108.24 103.88V99.6402C106.579 99.745 105.749 100.434 105.749 101.707ZM112.119 110.212C112.119 109.619 111.874 109.157 111.385 108.825C110.896 108.494 110.214 108.189 109.34 107.909V112.123C111.193 112.07 112.119 111.434 112.119 110.212Z" fill="#F67B92"/>
<path d="M126.631 104.494H122.358V108.759H126.631V104.494Z" fill="#F67B92"/>
<path d="M96.7204 104.494H92.4474V108.759H96.7204V104.494Z" fill="#F67B92"/>
<path d="M113.812 75.5661H94.584C93.404 75.5661 92.4474 74.6115 92.4474 73.4336C92.4474 72.2557 93.4038 71.3008 94.584 71.3008H113.812C114.992 71.3008 115.949 72.2554 115.949 73.4336C115.949 74.6115 114.992 75.5661 113.812 75.5661Z" fill="#F67B92"/>
<path d="M124.495 81.9646H94.584C93.404 81.9646 92.4474 81.0099 92.4474 79.832C92.4474 78.6541 93.4038 77.6992 94.584 77.6992H124.495C125.675 77.6992 126.632 78.6539 126.632 79.832C126.632 81.0097 125.675 81.9646 124.495 81.9646Z" fill="#F67B92"/>
<path d="M124.495 88.362H94.584C93.404 88.362 92.4474 87.4074 92.4474 86.2292C92.4474 85.0513 93.4038 84.0967 94.584 84.0967H124.495C125.675 84.0967 126.632 85.0513 126.632 86.2292C126.632 87.4074 125.675 88.362 124.495 88.362Z" fill="#F67B92"/>
</g>
<defs>
<filter id="filter0_d" x="0.39978" y="0.637695" width="216.143" height="203.173" filterUnits="userSpaceOnUse" color-interpolation-filters="sRGB">
<feFlood flood-opacity="0" result="BackgroundImageFix"/>
<feColorMatrix in="SourceAlpha" type="matrix" values="0 0 0 0 0 0 0 0 0 0 0 0 0 0 0 0 0 0 127 0"/>
<feOffset/>
<feGaussianBlur stdDeviation="30"/>
<feColorMatrix type="matrix" values="0 0 0 0 0.992157 0 0 0 0 0.368627 0 0 0 0 0.352941 0 0 0 0.3 0"/>
<feBlend mode="normal" in2="BackgroundImageFix" result="effect1_dropShadow"/>
<feBlend mode="normal" in="SourceGraphic" in2="effect1_dropShadow" result="shape"/>
</filter>
</defs>
</svg>
