<svg width="277" height="185" viewBox="0 0 277 185" fill="none" xmlns="http://www.w3.org/2000/svg">
<g filter="url(#filter0_d)">
<path d="M56.5 132C52.9159 132 50 129.084 50 125.5C50 121.916 52.9159 119 56.5 119C60.0841 119 63 121.916 63 125.5C63 129.084 60.0841 132 56.5 132ZM56.5 122.25C54.7079 122.25 53.25 123.708 53.25 125.5C53.25 127.292 54.7079 128.75 56.5 128.75C58.292 128.75 59.75 127.292 59.75 125.5C59.75 123.708 58.292 122.25 56.5 122.25Z" fill="#F67B92"/>
<path d="M220.5 63C216.916 63 214 60.0841 214 56.5C214 52.9159 216.916 50 220.5 50C224.084 50 227 52.9159 227 56.5C227 60.0841 224.084 63 220.5 63ZM220.5 53.25C218.708 53.25 217.25 54.7079 217.25 56.5C217.25 58.292 218.708 59.75 220.5 59.75C222.292 59.75 223.75 58.292 223.75 56.5C223.75 54.7079 222.292 53.25 220.5 53.25Z" fill="#F67B92"/>
<path d="M111.755 69.9205C110.683 70.0535 110.252 70.8467 110.386 71.9107L113.691 94.0003L116.974 116.41C117.108 117.341 117.774 118.08 118.712 118.08C118.846 118.08 118.846 118.08 118.98 118.08C120.052 117.947 120.391 117.263 120.257 116.199L116.952 94.0003L113.691 71.379C113.557 70.182 112.827 69.6545 111.755 69.9205Z" fill="#F67B92"/>
<path d="M176.321 74.8766C176.448 74.0042 175.839 73.195 174.96 73.069C174.081 72.943 173.265 73.5481 173.138 74.4205C173.011 75.2928 173.621 76.1021 174.5 76.2281C175.379 76.354 176.194 75.7489 176.321 74.8766Z" fill="#F67B92"/>
<path d="M181.375 72.7897C181.502 71.9173 180.893 71.108 180.014 70.9821C179.135 70.8561 178.319 71.4612 178.193 72.3336C178.066 73.2059 178.675 74.0152 179.554 74.1411C180.433 74.2671 181.249 73.662 181.375 72.7897Z" fill="#F67B92"/>
<path d="M186.618 70.6276C186.744 69.7552 186.135 68.9459 185.256 68.82C184.377 68.694 183.562 69.2991 183.435 70.1714C183.308 71.0438 183.917 71.8531 184.796 71.979C185.675 72.105 186.491 71.4999 186.618 70.6276Z" fill="#F67B92"/>
<path d="M175.493 80.4655C175.62 79.5931 175.01 78.7838 174.131 78.6579C173.253 78.5319 172.437 79.137 172.31 80.0093C172.183 80.8817 172.793 81.691 173.672 81.8169C174.551 81.9429 175.366 81.3378 175.493 80.4655Z" fill="#F67B92"/>
<path d="M180.547 78.3776C180.674 77.5052 180.064 76.6959 179.185 76.57C178.306 76.444 177.491 77.0491 177.364 77.9214C177.237 78.7938 177.847 79.6031 178.725 79.729C179.604 79.855 180.42 79.2499 180.547 78.3776Z" fill="#F67B92"/>
<path d="M185.786 76.2145C185.913 75.3421 185.304 74.5329 184.425 74.4069C183.546 74.2809 182.73 74.886 182.604 75.7584C182.477 76.6307 183.086 77.44 183.965 77.566C184.844 77.6919 185.66 77.0868 185.786 76.2145Z" fill="#F67B92"/>
<path d="M174.662 86.0514C174.789 85.1791 174.179 84.3698 173.3 84.2438C172.421 84.1179 171.606 84.7229 171.479 85.5953C171.352 86.4676 171.962 87.2769 172.841 87.4029C173.72 87.5288 174.535 86.9238 174.662 86.0514Z" fill="#F67B92"/>
<path d="M179.718 83.966C179.845 83.0936 179.235 82.2843 178.356 82.1584C177.477 82.0324 176.662 82.6375 176.535 83.5098C176.408 84.3822 177.018 85.1915 177.897 85.3174C178.776 85.4434 179.591 84.8383 179.718 83.966Z" fill="#F67B92"/>
<path d="M184.961 81.8043C185.088 80.932 184.478 80.1227 183.599 79.9967C182.72 79.8708 181.905 80.4758 181.778 81.3482C181.651 82.2205 182.261 83.0298 183.14 83.1558C184.019 83.2818 184.834 82.6767 184.961 81.8043Z" fill="#F67B92"/>
<path d="M173.836 91.6412C173.963 90.7689 173.353 89.9596 172.474 89.8336C171.595 89.7077 170.78 90.3128 170.653 91.1851C170.526 92.0575 171.136 92.8668 172.015 92.9927C172.893 93.1187 173.709 92.5136 173.836 91.6412Z" fill="#F67B92"/>
<path d="M178.89 89.5543C179.017 88.682 178.407 87.8727 177.528 87.7467C176.649 87.6208 175.834 88.2258 175.707 89.0982C175.58 89.9705 176.19 90.7798 177.069 90.9058C177.948 91.0318 178.763 90.4267 178.89 89.5543Z" fill="#F67B92"/>
<path d="M184.132 87.3922C184.259 86.5199 183.649 85.7106 182.77 85.5846C181.891 85.4587 181.076 86.0637 180.949 86.9361C180.822 87.8084 181.432 88.6177 182.311 88.7437C183.19 88.8696 184.005 88.2646 184.132 87.3922Z" fill="#F67B92"/>
<path d="M173.008 97.2296C173.135 96.3573 172.525 95.548 171.646 95.422C170.767 95.2961 169.952 95.9012 169.825 96.7735C169.698 97.6459 170.307 98.4551 171.186 98.5811C172.065 98.707 172.881 98.102 173.008 97.2296Z" fill="#F67B92"/>
<path d="M178.061 95.1422C178.188 94.2699 177.579 93.4606 176.7 93.3346C175.821 93.2087 175.005 93.8137 174.879 94.6861C174.752 95.5584 175.361 96.3677 176.24 96.4937C177.119 96.6196 177.935 96.0146 178.061 95.1422Z" fill="#F67B92"/>
<path d="M183.284 93.112C183.411 92.2396 182.802 91.4303 181.923 91.3044C181.044 91.1784 180.228 91.7835 180.101 92.6558C179.975 93.5282 180.584 94.3375 181.463 94.4634C182.342 94.5894 183.157 93.9843 183.284 93.112Z" fill="#F67B92"/>
<path d="M172.157 102.947C172.284 102.075 171.675 101.265 170.796 101.139C169.917 101.013 169.101 101.618 168.975 102.491C168.848 103.363 169.457 104.172 170.336 104.298C171.215 104.424 172.031 103.819 172.157 102.947Z" fill="#F67B92"/>
<path d="M177.346 100.881C177.473 100.009 176.863 99.1994 175.984 99.0734C175.106 98.9474 174.29 99.5525 174.163 100.425C174.036 101.297 174.646 102.107 175.525 102.232C176.404 102.358 177.219 101.753 177.346 100.881Z" fill="#F67B92"/>
<path d="M182.456 98.7003C182.583 97.828 181.974 97.0187 181.095 96.8927C180.216 96.7668 179.4 97.3719 179.273 98.2442C179.146 99.1166 179.756 99.9258 180.635 100.052C181.514 100.178 182.329 99.5727 182.456 98.7003Z" fill="#F67B92"/>
<path d="M171.331 108.537C171.458 107.665 170.849 106.856 169.97 106.73C169.091 106.604 168.275 107.209 168.148 108.081C168.021 108.953 168.631 109.763 169.51 109.889C170.389 110.015 171.204 109.41 171.331 108.537Z" fill="#F67B92"/>
<path d="M176.516 106.467C176.643 105.595 176.033 104.786 175.154 104.66C174.275 104.534 173.46 105.139 173.333 106.011C173.206 106.884 173.816 107.693 174.695 107.819C175.574 107.945 176.389 107.34 176.516 106.467Z" fill="#F67B92"/>
<path d="M181.628 104.288C181.754 103.416 181.145 102.607 180.266 102.481C179.387 102.355 178.572 102.96 178.445 103.832C178.318 104.704 178.927 105.514 179.806 105.64C180.685 105.766 181.501 105.161 181.628 104.288Z" fill="#F67B92"/>
<path d="M170.503 114.126C170.63 113.254 170.02 112.444 169.141 112.319C168.262 112.193 167.447 112.798 167.32 113.67C167.193 114.542 167.803 115.352 168.682 115.478C169.561 115.604 170.376 114.998 170.503 114.126Z" fill="#F67B92"/>
<path d="M175.689 112.057C175.816 111.185 175.207 110.376 174.328 110.25C173.449 110.124 172.633 110.729 172.506 111.601C172.379 112.473 172.989 113.283 173.868 113.409C174.747 113.535 175.562 112.93 175.689 112.057Z" fill="#F67B92"/>
<path d="M180.932 109.896C181.058 109.023 180.449 108.214 179.57 108.088C178.691 107.962 177.876 108.567 177.749 109.44C177.622 110.312 178.231 111.121 179.11 111.247C179.989 111.373 180.805 110.768 180.932 109.896Z" fill="#F67B92"/>
<path d="M169.807 119.733C169.934 118.861 169.324 118.051 168.445 117.925C167.566 117.8 166.751 118.405 166.624 119.277C166.497 120.149 167.107 120.959 167.985 121.085C168.864 121.21 169.68 120.605 169.807 119.733Z" fill="#F67B92"/>
<path d="M174.861 117.645C174.988 116.773 174.378 115.964 173.499 115.838C172.62 115.712 171.805 116.317 171.678 117.189C171.551 118.061 172.161 118.871 173.04 118.997C173.918 119.123 174.734 118.517 174.861 117.645Z" fill="#F67B92"/>
<path d="M180.101 115.482C180.228 114.609 179.618 113.8 178.739 113.674C177.861 113.548 177.045 114.153 176.918 115.025C176.791 115.898 177.401 116.707 178.28 116.833C179.159 116.959 179.974 116.354 180.101 115.482Z" fill="#F67B92"/>
<path d="M194.002 74.0388L194.806 68.4529C195.476 63.798 192.126 59.4091 187.436 58.6111L172.696 56.4832C170.552 56.2172 168.676 57.2812 167.738 59.1431L158.492 54.8872L144.556 58.3451L131.424 55.0202L130.62 54.8872L122.044 59.1431C121.776 58.0791 121.24 57.0152 120.302 56.3502C119.364 55.5522 118.024 55.2862 116.818 55.4192L98.996 57.9461L89.08 59.6751C84.39 60.3401 81.04 64.729 81.71 69.5169L90.152 127.371C90.554 129.632 91.76 131.627 93.502 133.09C94.976 134.154 96.852 134.819 98.728 134.819C99.13 134.819 99.532 134.819 100.068 134.686L114.004 132.691L127.806 130.696C129.012 130.563 130.084 129.898 130.888 128.834C131.692 127.903 131.96 126.706 131.826 125.376L137.588 125.908L144.556 128.435L150.988 125.908L157.822 126.573C157.688 127.77 158.09 128.834 158.76 129.765C159.564 130.696 160.636 131.361 161.842 131.627L176.582 133.755C176.984 133.755 177.386 133.888 177.788 133.888C182.076 133.888 185.828 130.829 186.364 126.44L187.302 120.322L187.838 119.657C199.094 107.155 201.506 88.8015 194.002 74.0388ZM159.162 124.056L152.06 123.391L159.162 58.3451L167.738 62.4681L159.162 124.056ZM145.912 124.588V61.0051L156.214 58.6111L148.978 123.657L145.912 124.588ZM140 123.657L131.826 58.3451L143.284 61.0051V124.588L140 123.657ZM122.044 62.0691L129.146 59.1431L136.716 122.46L130.62 122.194L122.044 62.0691ZM99.5701 131.627C98.3641 131.76 96.4054 131.243 95.3334 130.445C94.3954 129.647 93.77 127.77 93.502 126.573L85.06 68.8519C84.658 66.325 86.534 63 89.214 62.601L99.13 61.1381L101.14 71.7779L92.028 73.1078C90.956 73.2408 90.152 74.3048 90.286 75.3688C90.42 76.2998 91.358 77.0978 92.296 77.0978C92.43 77.0978 92.43 77.0978 92.564 77.0978L101.676 75.7678L102.346 80.6887L93.234 82.0187C92.162 82.1516 91.358 83.2156 91.492 84.2796C91.626 85.2106 92.564 86.0086 93.502 86.0086C93.636 86.0086 93.636 86.0086 93.77 86.0086L102.882 84.6786L103.552 89.5995L94.44 90.9295C93.368 91.0625 92.564 92.1264 92.698 93.1904C92.832 94.1214 93.77 94.9194 94.708 94.9194C94.842 94.9194 94.842 94.9194 94.976 94.9194L104.088 93.5894L104.356 95.7174L106.098 107.288L96.986 108.618C95.914 108.751 95.11 109.815 95.244 110.879C95.378 111.81 96.316 112.608 97.254 112.608C97.388 112.608 97.388 112.608 97.522 112.608L106.634 111.278L107.304 116.199L98.192 117.529C97.12 117.662 96.316 118.726 96.45 119.79C96.584 120.721 97.522 121.519 98.46 121.519C98.594 121.519 98.594 121.519 98.728 121.519L107.84 120.189L109.127 129.97L99.5701 131.627ZM127.672 126.307C127.672 126.44 127.131 127.238 126.863 127.238L112.412 129.765L107.84 94.9194L102.346 60.4731L116.818 58.6111C117.086 58.6111 117.756 59.5421 117.89 59.6751C118.024 59.8081 118.158 59.9411 118.158 60.0741L127.806 125.775C127.94 126.041 127.806 126.174 127.672 126.307ZM182.696 125.376C182.294 127.903 179.619 130.236 177.073 129.97L162.333 127.842C162.065 127.842 161.842 127.371 161.842 127.238C161.842 127.105 161.708 126.972 161.708 126.706L171.222 61.0051C171.222 60.6061 172.16 59.8081 172.562 59.9411L187.302 62.0691C189.848 62.4681 191.406 65.128 191.138 67.6549L182.696 125.376ZM193.206 79.6828C197.147 90.9295 194.806 105.064 187.838 114.175L193.206 79.6828Z" fill="#F67B92"/>
</g>
<defs>
<filter id="filter0_d" x="0" y="0" width="277" height="184.819" filterUnits="userSpaceOnUse" color-interpolation-filters="sRGB">
<feFlood flood-opacity="0" result="BackgroundImageFix"/>
<feColorMatrix in="SourceAlpha" type="matrix" values="0 0 0 0 0 0 0 0 0 0 0 0 0 0 0 0 0 0 127 0"/>
<feOffset/>
<feGaussianBlur stdDeviation="25"/>
<feColorMatrix type="matrix" values="0 0 0 0 0.992157 0 0 0 0 0.368627 0 0 0 0 0.352941 0 0 0 0.5 0"/>
<feBlend mode="normal" in2="BackgroundImageFix" result="effect1_dropShadow"/>
<feBlend mode="normal" in="SourceGraphic" in2="effect1_dropShadow" result="shape"/>
</filter>
</defs>
</svg>
