<svg width="255" height="186" viewBox="0 0 255 186" fill="none" xmlns="http://www.w3.org/2000/svg">
<g filter="url(#filter0_d)">
<path d="M110.11 84.0994C110.11 82.8898 111.082 81.9084 112.276 81.9084C113.469 81.9084 114.441 82.8898 114.441 84.0994C114.441 85.3067 113.469 86.2904 112.276 86.2904C111.082 86.2904 110.11 85.3067 110.11 84.0994ZM182 95.4553V106.16C182 107.369 181.031 108.351 179.835 108.351C178.639 108.351 177.669 107.369 177.669 106.16C177.669 98.4463 172.013 92.0448 164.677 90.9784V124.158C164.569 127.811 162.259 131.624 158.394 133.91C156.334 135.129 154.12 135.758 152.016 135.807C151.931 135.818 74.1651 135.807 74.1651 135.807C72.9692 135.807 71.9998 134.826 71.9998 133.616C71.9998 132.406 72.9692 131.425 74.1651 131.425H143.581C141.574 127.844 142.565 123.209 145.716 119.813H81.1209C77.8094 119.744 74.8338 118.245 73.26 115.522C70.6137 110.943 72.9315 104.59 78.4369 101.332C82.327 99.0309 86.7679 98.8908 89.9724 100.622V86.2904H83.2598C82.0667 86.2904 81.0945 85.3067 81.0945 84.0994C81.0945 82.8898 82.0667 81.9084 83.2598 81.9084H89.9724V61.2752C89.9724 60.226 90.7078 59.3239 91.7257 59.1243L132.651 51.0983C133.987 50.8363 135.228 51.872 135.228 53.2493V81.9084H160.346V77.9271C160.346 76.7172 161.316 75.736 162.512 75.736C173.258 75.736 182 84.5821 182 95.4553ZM160.346 116.618V103.161H134.348C133.338 105.497 131.479 107.653 128.945 109.152C123.439 112.409 116.831 111.338 114.185 106.759C113.539 105.642 113.189 104.419 113.109 103.161H94.3031V108.164C94.2278 110.697 93.0853 113.307 91.1129 115.431H155.779C157.432 115.476 158.998 115.89 160.346 116.618ZM130.365 97.1948C128.914 94.6847 124.959 94.2945 121.531 96.323C118.103 98.3514 116.5 102.031 117.95 104.54C119.401 107.05 123.356 107.441 126.784 105.412C130.212 103.384 131.815 99.7046 130.365 97.1948ZM135.228 98.7793H160.346V86.2904H135.228V98.7793ZM94.3031 69.336L130.898 62.1593V55.9057L94.3031 63.0824V69.336ZM104.913 84.0994C104.913 85.3067 103.941 86.2904 102.748 86.2904H94.3031V98.7793H113.867C114.854 96.3591 116.749 94.1157 119.362 92.5695C123.252 90.2676 127.693 90.1276 130.898 91.859V86.2904H122.02C120.827 86.2904 119.854 85.3067 119.854 84.0994C119.854 82.8898 120.827 81.9084 122.02 81.9084H130.898V66.6229L94.3031 73.7996V81.9084H102.748C103.941 81.9084 104.913 82.89 104.913 84.0994ZM85.8585 114.175C89.2866 112.147 90.8899 108.468 89.4393 105.958C87.9887 103.448 84.0337 103.058 80.6055 105.086C77.1773 107.115 75.5741 110.794 77.0247 113.304C78.4755 115.813 82.4303 116.204 85.8585 114.175ZM159.814 121.953C158.363 119.443 154.408 119.053 150.98 121.082C147.552 123.11 145.948 126.789 147.399 129.299C148.849 131.809 152.805 132.199 156.233 130.171C159.661 128.142 161.264 124.463 159.814 121.953ZM177.565 93.6488C176.762 86.7613 171.432 81.2561 164.677 80.2743V86.5615C169.851 87.1428 174.42 89.7814 177.565 93.6488Z" fill="#F67B92"/>
<path d="M57 64C53.1402 64 50 60.8598 50 57C50 53.1402 53.1402 50 57 50C60.8598 50 64 53.1402 64 57C64 60.8598 60.8598 64 57 64ZM57 53.5C55.0701 53.5 53.5 55.0701 53.5 57C53.5 58.9299 55.0701 60.5 57 60.5C58.9299 60.5 60.5 58.9299 60.5 57C60.5 55.0701 58.9299 53.5 57 53.5Z" fill="#F67B92"/>
<path d="M198.5 131C194.916 131 192 127.86 192 124C192 120.14 194.916 117 198.5 117C202.084 117 205 120.14 205 124C205 127.86 202.084 131 198.5 131ZM198.5 120.5C196.708 120.5 195.25 122.07 195.25 124C195.25 125.93 196.708 127.5 198.5 127.5C200.292 127.5 201.75 125.93 201.75 124C201.75 122.07 200.292 120.5 198.5 120.5Z" fill="#F67B92"/>
</g>
<defs>
<filter id="filter0_d" x="0" y="0" width="255" height="185.812" filterUnits="userSpaceOnUse" color-interpolation-filters="sRGB">
<feFlood flood-opacity="0" result="BackgroundImageFix"/>
<feColorMatrix in="SourceAlpha" type="matrix" values="0 0 0 0 0 0 0 0 0 0 0 0 0 0 0 0 0 0 127 0"/>
<feOffset/>
<feGaussianBlur stdDeviation="25"/>
<feColorMatrix type="matrix" values="0 0 0 0 0.992157 0 0 0 0 0.368627 0 0 0 0 0.352941 0 0 0 0.5 0"/>
<feBlend mode="normal" in2="BackgroundImageFix" result="effect1_dropShadow"/>
<feBlend mode="normal" in="SourceGraphic" in2="effect1_dropShadow" result="shape"/>
</filter>
</defs>
</svg>
