<svg width="126" height="132" viewBox="0 0 126 132" fill="none" xmlns="http://www.w3.org/2000/svg">
<g filter="url(#filter0_d)">
<path d="M78.8552 59.3414C78.1811 59.3414 77.6344 59.8879 77.6344 60.5622V62.1899C77.6344 70.2593 71.0695 76.824 63.0001 76.824C54.9307 76.824 48.3659 70.2591 48.3659 62.1898V60.5621C48.3659 59.8878 47.8192 59.3413 47.1451 59.3413C46.4708 59.3413 45.9243 59.8878 45.9243 60.5621V62.1898C45.9243 71.195 52.9314 78.5934 61.7793 79.2214V85.5584H55.4648C54.7907 85.5584 54.244 86.1049 54.244 86.7792C54.244 87.4535 54.7906 88 55.4648 88H70.5352C71.2093 88 71.756 87.4535 71.756 86.7792C71.756 86.1049 71.2094 85.5584 70.5352 85.5584H64.2208V79.2214C73.0688 78.5934 80.0758 71.1949 80.0758 62.1898V60.5621C80.076 59.8879 79.5292 59.3414 78.8552 59.3414Z" fill="#F67B92"/>
<path d="M63.8136 36H62.1865C56.6058 36 52.0656 40.5402 52.0656 46.121V63.0034C52.0656 68.5841 56.6058 73.1244 62.1865 73.1244H63.8136C69.3943 73.1244 73.9345 68.5841 73.9345 63.0034V46.121C73.9345 40.5402 69.3943 36 63.8136 36ZM71.4931 49.2897H67.0678C66.3936 49.2897 65.847 49.8362 65.847 50.5105C65.847 51.1848 66.3936 51.7313 67.0678 51.7313H71.4931V55.1294H67.0678C66.3936 55.1294 65.847 55.6759 65.847 56.3501C65.847 57.0244 66.3936 57.5709 67.0678 57.5709H71.4931V60.9692H67.0678C66.3936 60.9692 65.847 61.5157 65.847 62.19C65.847 62.8642 66.3936 63.4108 67.0678 63.4108H71.4821C71.2698 67.4566 67.9115 70.6829 63.8137 70.6829H62.1866C58.0888 70.6829 54.7305 67.4566 54.5182 63.4108H58.9325C59.6068 63.4108 60.1533 62.8642 60.1533 62.19C60.1533 61.5157 59.6068 60.9692 58.9325 60.9692H54.5072V57.5709H58.9325C59.6068 57.5709 60.1533 57.0244 60.1533 56.3501C60.1533 55.6759 59.6068 55.1294 58.9325 55.1294H54.5072V51.7313H58.9325C59.6068 51.7313 60.1533 51.1848 60.1533 50.5105C60.1533 49.8362 59.6068 49.2897 58.9325 49.2897H54.5072V46.121C54.5072 43.0778 56.2866 40.4422 58.8596 39.2002V42.6516C58.8596 43.3259 59.4062 43.8724 60.0803 43.8724C60.7545 43.8724 61.3011 43.3259 61.3011 42.6516V38.4942C61.5919 38.4606 64.4084 38.4606 64.6992 38.4942V42.6516C64.6992 43.3259 65.2457 43.8724 65.92 43.8724C66.594 43.8724 67.1407 43.3259 67.1407 42.6516V39.2002C69.7137 40.4422 71.4931 43.0776 71.4931 46.1209V49.2897Z" fill="#F67B92"/>
<path d="M47.5 55C48.3284 55 49 54.3604 49 53.5714V46.4286C49 45.6396 48.3284 45 47.5 45C46.6716 45 46 45.6396 46 46.4286V53.5714C46 54.3604 46.6716 55 47.5 55Z" fill="#F67B92"/>
<path d="M41.5 40C40.6716 40 40 40.6853 40 41.5306V58.4694C40 59.3147 40.6716 60 41.5 60C42.3284 60 43 59.3147 43 58.4694V41.5306C43 40.6853 42.3284 40 41.5 40Z" fill="#F67B92"/>
<path d="M78.5 45C77.6716 45 77 45.6396 77 46.4286V53.5714C77 54.3604 77.6716 55 78.5 55C79.3284 55 80 54.3604 80 53.5714V46.4286C80 45.6396 79.3284 45 78.5 45Z" fill="#F67B92"/>
<path d="M84.5 40C83.6716 40 83 40.6853 83 41.5306V58.4694C83 59.3147 83.6716 60 84.5 60C85.3284 60 86 59.3147 86 58.4694V41.5306C86 40.6853 85.3284 40 84.5 40Z" fill="#F67B92"/>
</g>
<defs>
<filter id="filter0_d" x="0" y="0" width="126" height="132" filterUnits="userSpaceOnUse" color-interpolation-filters="sRGB">
<feFlood flood-opacity="0" result="BackgroundImageFix"/>
<feColorMatrix in="SourceAlpha" type="matrix" values="0 0 0 0 0 0 0 0 0 0 0 0 0 0 0 0 0 0 127 0"/>
<feOffset dy="4"/>
<feGaussianBlur stdDeviation="20"/>
<feColorMatrix type="matrix" values="0 0 0 0 0.992157 0 0 0 0 0.368627 0 0 0 0 0.352941 0 0 0 1 0"/>
<feBlend mode="normal" in2="BackgroundImageFix" result="effect1_dropShadow"/>
<feBlend mode="normal" in="SourceGraphic" in2="effect1_dropShadow" result="shape"/>
</filter>
</defs>
</svg>
