<svg width="51" height="65" viewBox="0 0 51 65" fill="none" xmlns="http://www.w3.org/2000/svg">
<path d="M43.7705 0.129883H7.22926C2.19855 0.129883 0.0410156 2.68544 0.0410156 7.30138V57.6991C0.0410156 62.741 2.63006 64.8706 7.22926 64.8706H43.7705C48.8013 64.8706 50.9588 62.741 50.9588 57.6991V7.30138C50.9588 2.25951 48.8013 0.129883 43.7705 0.129883ZM47.3183 57.6991C47.3183 59.6301 45.7268 61.201 43.7705 61.201H7.22926C5.27297 61.201 3.68153 59.6301 3.68153 57.6991V7.30138C3.68153 5.37039 5.27312 3.79953 7.22926 3.79953H43.7705C45.7268 3.79953 47.3183 5.37039 47.3183 7.30138V57.6991Z" fill="url(#paint0_linear)"/>
<path d="M25.5093 27.7237C17.493 27.7237 10.9712 34.1611 10.9712 42.0737C10.9712 49.9863 17.493 56.4239 25.5093 56.4239C33.5257 56.4239 40.0475 49.9863 40.0475 42.0737C40.0475 34.1611 33.5257 27.7237 25.5093 27.7237ZM25.5093 52.9448C19.4588 52.9448 14.2807 48.6675 14.2807 42.0737C14.2807 35.4799 19.8903 31.2226 25.5093 31.2226C31.1282 31.2226 36.7191 35.9078 36.7191 42.0737C36.7191 47.8337 32.1895 52.9448 25.5093 52.9448Z" fill="url(#paint1_linear)"/>
<path d="M25.5009 26.1116C30.678 26.1116 34.5616 21.8427 34.5616 16.9494C34.5616 12.056 30.68 7.79677 25.5009 7.79677C20.3218 7.79677 16.4383 11.6205 16.4383 16.9494C16.4383 22.2783 20.3238 26.1116 25.5009 26.1116ZM25.5009 10.9823C28.8343 10.9823 31.5463 13.6591 31.5463 16.9494C31.5463 20.2397 28.8345 22.9165 25.5009 22.9165C22.1676 22.9165 19.4556 20.2397 19.4556 16.9494C19.4556 13.6591 22.1676 10.9823 25.5009 10.9823Z" fill="url(#paint2_linear)"/>
<path d="M25.5092 32.5113C20.1672 32.5113 15.821 36.8012 15.821 42.0743C15.821 47.3472 20.1671 51.6372 25.5092 51.6372C30.8513 51.6372 35.1975 47.3474 35.1975 42.0743C35.1975 36.8012 30.8513 32.5113 25.5092 32.5113ZM25.5092 48.2598C22.0479 48.2598 19.0273 45.6852 19.0273 42.0743C19.0273 38.4635 22.0479 35.9079 25.5092 35.9079C28.9705 35.9079 31.9725 38.6403 31.9725 42.0743C31.9725 45.2783 29.1374 48.2598 25.5092 48.2598Z" fill="url(#paint3_linear)"/>
<path d="M25.5009 20.5356C27.5041 20.5356 29.1339 18.9269 29.1339 16.9498C29.1339 14.9726 27.5041 13.3639 25.5009 13.3639C23.4976 13.3639 21.868 14.9726 21.868 16.9498C21.868 18.9269 23.4978 20.5356 25.5009 20.5356ZM25.5009 15.7558C26.1679 15.7558 26.7107 16.2914 26.7107 16.9498C26.7107 17.6081 26.168 18.1437 25.5009 18.1437C24.8339 18.1437 24.2912 17.6081 24.2912 16.9498C24.2912 16.2914 24.8339 15.7558 25.5009 15.7558Z" fill="url(#paint4_linear)"/>
<path d="M7.92592 54.0626C6.27193 54.0626 4.92629 55.3908 4.92629 57.0234C4.92629 58.656 6.27193 59.9843 7.92592 59.9843C9.57991 59.9843 10.9256 58.656 10.9256 57.0234C10.9256 55.3908 9.57991 54.0626 7.92592 54.0626ZM7.92592 57.5922C7.60802 57.5922 7.3495 57.3371 7.3495 57.0233C7.3495 56.7095 7.60802 56.4543 7.92592 56.4543C8.24381 56.4543 8.50234 56.7095 8.50234 57.0233C8.50234 57.3371 8.24366 57.5922 7.92592 57.5922Z" fill="url(#paint5_linear)"/>
<path d="M43.0633 54.0626C41.4093 54.0626 40.0636 55.3908 40.0636 57.0234C40.0636 58.656 41.4093 59.9843 43.0633 59.9843C44.7173 59.9843 46.0629 58.656 46.0629 57.0234C46.0629 55.3908 44.7173 54.0626 43.0633 54.0626ZM43.0633 57.5922C42.7454 57.5922 42.4868 57.3371 42.4868 57.0233C42.4868 56.7095 42.7454 56.4543 43.0633 56.4543C43.3811 56.4543 43.6397 56.7095 43.6397 57.0233C43.6397 57.3371 43.3811 57.5922 43.0633 57.5922Z" fill="url(#paint6_linear)"/>
<path d="M7.92592 4.95684C6.27193 4.95684 4.92629 6.28508 4.92629 7.91768C4.92629 9.55028 6.27193 10.8785 7.92592 10.8785C9.57991 10.8785 10.9256 9.55028 10.9256 7.91768C10.9256 6.28508 9.57991 4.95684 7.92592 4.95684ZM7.92592 8.48649C7.60802 8.48649 7.3495 8.23131 7.3495 7.91753C7.3495 7.60374 7.60802 7.34856 7.92592 7.34856C8.24381 7.34856 8.50234 7.60374 8.50234 7.91753C8.50234 8.23131 8.24366 8.48649 7.92592 8.48649Z" fill="url(#paint7_linear)"/>
<path d="M43.0633 4.95684C41.4093 4.95684 40.0636 6.28508 40.0636 7.91768C40.0636 9.55028 41.4093 10.8785 43.0633 10.8785C44.7173 10.8785 46.0629 9.55028 46.0629 7.91768C46.0629 6.28508 44.7173 4.95684 43.0633 4.95684ZM43.0633 8.48649C42.7454 8.48649 42.4868 8.23131 42.4868 7.91753C42.4868 7.60374 42.7454 7.34856 43.0633 7.34856C43.3811 7.34856 43.6397 7.60374 43.6397 7.91753C43.6397 8.23131 43.3811 8.48649 43.0633 8.48649Z" fill="url(#paint8_linear)"/>
<defs>
<linearGradient id="paint0_linear" x1="25.0684" y1="0.555808" x2="25.0684" y2="65.2966" gradientUnits="userSpaceOnUse">
<stop stop-color="#4D75EE"/>
<stop offset="1" stop-color="#4DC6EE"/>
</linearGradient>
<linearGradient id="paint1_linear" x1="25.0684" y1="0.555808" x2="25.0684" y2="65.2966" gradientUnits="userSpaceOnUse">
<stop stop-color="#4D75EE"/>
<stop offset="1" stop-color="#4DC6EE"/>
</linearGradient>
<linearGradient id="paint2_linear" x1="25.0684" y1="0.555808" x2="25.0684" y2="65.2966" gradientUnits="userSpaceOnUse">
<stop stop-color="#4D75EE"/>
<stop offset="1" stop-color="#4DC6EE"/>
</linearGradient>
<linearGradient id="paint3_linear" x1="25.0684" y1="0.555808" x2="25.0684" y2="65.2966" gradientUnits="userSpaceOnUse">
<stop stop-color="#4D75EE"/>
<stop offset="1" stop-color="#4DC6EE"/>
</linearGradient>
<linearGradient id="paint4_linear" x1="25.0684" y1="0.555808" x2="25.0684" y2="65.2966" gradientUnits="userSpaceOnUse">
<stop stop-color="#4D75EE"/>
<stop offset="1" stop-color="#4DC6EE"/>
</linearGradient>
<linearGradient id="paint5_linear" x1="25.0684" y1="0.555808" x2="25.0684" y2="65.2966" gradientUnits="userSpaceOnUse">
<stop stop-color="#4D75EE"/>
<stop offset="1" stop-color="#4DC6EE"/>
</linearGradient>
<linearGradient id="paint6_linear" x1="25.0684" y1="0.555808" x2="25.0684" y2="65.2966" gradientUnits="userSpaceOnUse">
<stop stop-color="#4D75EE"/>
<stop offset="1" stop-color="#4DC6EE"/>
</linearGradient>
<linearGradient id="paint7_linear" x1="25.0684" y1="0.555808" x2="25.0684" y2="65.2966" gradientUnits="userSpaceOnUse">
<stop stop-color="#4D75EE"/>
<stop offset="1" stop-color="#4DC6EE"/>
</linearGradient>
<linearGradient id="paint8_linear" x1="25.0684" y1="0.555808" x2="25.0684" y2="65.2966" gradientUnits="userSpaceOnUse">
<stop stop-color="#4D75EE"/>
<stop offset="1" stop-color="#4DC6EE"/>
</linearGradient>
</defs>
</svg>
