<svg width="69" height="80" viewBox="0 0 69 80" fill="none" xmlns="http://www.w3.org/2000/svg">
<path d="M66 13.8371C60.8388 8.66252 54.263 5.13861 47.1043 3.71096C39.9455 2.28331 32.5252 3.01603 25.7818 5.81647C19.0384 8.61692 13.2747 13.3593 9.21953 19.4439C5.16441 25.5285 3 32.6821 3 40C3 47.3179 5.16442 54.4715 9.21954 60.5561C13.2747 66.6407 19.0384 71.3831 25.7818 74.1835C32.5252 76.984 39.9455 77.7167 47.1043 76.289C54.263 74.8614 60.8388 71.3375 66 66.1629" stroke="url(#paint0_angular)" stroke-width="5" stroke-linecap="round"/>
<path d="M53.5 37.9019C55.5 39.0566 55.5 41.9434 53.5 43.0981L34.75 53.9234C32.75 55.0781 30.25 53.6347 30.25 51.3253L30.25 29.6747C30.25 27.3653 32.75 25.9219 34.75 27.0766L53.5 37.9019Z" fill="url(#paint1_linear)"/>
<defs>
<radialGradient id="paint0_angular" cx="0" cy="0" r="1" gradientUnits="userSpaceOnUse" gradientTransform="translate(39.5 40) rotate(49.316) scale(37.5832 36.9569)">
<stop stop-color="#FF1469"/>
<stop offset="0.753792" stop-color="#FFB168"/>
<stop offset="1" stop-color="#FF1469"/>
</radialGradient>
<linearGradient id="paint1_linear" x1="31" y1="54" x2="49.5" y2="29.5" gradientUnits="userSpaceOnUse">
<stop stop-color="#FF1D69"/>
<stop offset="1" stop-color="#FFAF68"/>
</linearGradient>
</defs>
</svg>
