<svg width="111" height="113" viewBox="0 0 111 113" fill="none" xmlns="http://www.w3.org/2000/svg">
<circle opacity="0.07" cx="42" cy="42" r="42" fill="#8EA8FF"/>
<path d="M44.1937 98.2832H44.0658C46.2411 96.8805 47.7766 94.4576 47.7766 91.6522C47.7766 87.3165 44.1937 83.746 39.8432 83.746C35.4926 83.746 31.9098 87.3165 31.9098 91.6522C31.9098 94.4576 33.4453 96.8805 35.6206 98.2832H35.2367C30.2464 98.2832 26.2797 102.364 26.2797 107.21V111.163C26.2797 111.928 26.7915 112.438 27.5592 112.438H51.8712C52.639 112.438 53.1508 111.928 53.1508 111.163V107.21C53.1508 102.364 49.1841 98.2832 44.1937 98.2832ZM39.8432 86.2964C42.7862 86.2964 45.2174 88.7193 45.2174 91.6522C45.2174 94.5852 42.7862 97.008 39.8432 97.008C36.9002 97.008 34.469 94.5852 34.469 91.6522C34.469 88.7193 36.9002 86.2964 39.8432 86.2964ZM50.5916 109.888H28.8388V107.21C28.8388 103.639 31.7818 100.834 35.2367 100.834H44.1937C47.7766 100.834 50.5916 103.767 50.5916 107.21V109.888Z" fill="url(#paint0_linear)"/>
<path d="M72.9842 98.2832H72.8563C75.0316 96.8805 76.567 94.4576 76.567 91.6522C76.567 87.3165 72.9842 83.746 68.6337 83.746C64.2831 83.746 60.7003 87.3165 60.7003 91.6522C60.7003 94.4576 62.2358 96.8805 64.4111 98.2832H64.0272C59.0368 98.2832 55.0702 102.364 55.0702 107.21V111.163C55.0702 111.928 55.582 112.438 56.3497 112.438H80.6617C81.4294 112.438 81.9413 111.928 81.9413 111.163V107.21C81.9413 102.364 77.9746 98.2832 72.9842 98.2832ZM68.6337 86.2964C71.5767 86.2964 74.0079 88.7193 74.0079 91.6522C74.0079 94.5852 71.5767 97.008 68.6337 97.008C65.6906 97.008 63.2594 94.5852 63.2594 91.6522C63.2594 88.7193 65.6906 86.2964 68.6337 86.2964ZM79.3821 109.888H57.6293V107.21C57.6293 103.639 60.5723 100.834 64.0272 100.834H72.9842C76.567 100.834 79.3821 103.767 79.3821 107.21V109.888Z" fill="url(#paint1_linear)"/>
<path d="M101.775 98.2832H101.647C103.822 96.8805 105.358 94.4576 105.358 91.6522C105.358 87.3165 101.775 83.746 97.4241 83.746C93.0736 83.746 89.4908 87.3165 89.4908 91.6522C89.4908 94.4576 91.0263 96.8805 93.2015 98.2832H92.8177C87.8273 98.2832 83.8606 102.364 83.8606 107.21V111.163C83.8606 111.928 84.3725 112.438 85.1402 112.438H109.452C110.22 112.438 110.732 111.928 110.732 111.163V107.21C110.732 102.364 106.637 98.2832 101.775 98.2832ZM97.4241 86.2964C100.367 86.2964 102.798 88.7193 102.798 91.6522C102.798 94.5852 100.367 97.008 97.4241 97.008C94.4811 97.008 92.0499 94.5852 92.0499 91.6522C92.0499 88.7193 94.3532 86.2964 97.4241 86.2964ZM108.173 109.888H86.4198V107.21C86.4198 103.639 89.3628 100.834 92.8177 100.834H101.775C105.358 100.834 108.173 103.767 108.173 107.21V109.888Z" fill="url(#paint2_linear)"/>
<path d="M27.5592 81.4506C40.0991 81.4506 100.239 81.4506 109.452 81.4506C110.22 81.4506 110.732 80.9406 110.732 80.1754C110.732 79.4103 110.22 78.9002 109.452 78.9002H106.125V29.5501C106.125 28.785 105.613 28.2749 104.846 28.2749H89.6187C88.851 28.2749 88.3391 28.785 88.3391 29.5501V78.9002H77.3348V42.5571C77.3348 41.792 76.823 41.2819 76.0552 41.2819H60.9562C60.1885 41.2819 59.6766 41.792 59.6766 42.5571V78.9002H48.6723V60.4099C48.6723 59.6448 48.1604 59.1347 47.3927 59.1347H32.1657C31.398 59.1347 30.8861 59.6448 30.8861 60.4099V78.9002H27.5592C26.7915 78.9002 26.2797 79.4103 26.2797 80.1754C26.2797 80.9406 26.7915 81.4506 27.5592 81.4506ZM103.566 59.2622H90.8983V51.2285H103.566V59.2622ZM103.566 48.6781H90.8983V40.7718H103.566V48.6781ZM90.8983 61.8126H103.566V69.7188H90.8983V61.8126ZM103.566 30.8253V38.2214H90.8983V30.8253H103.566ZM90.8983 72.2692H103.566V78.9002H90.8983V72.2692ZM74.7756 60.1548H62.1078V52.8862H74.7756V60.1548ZM62.2358 62.7052H74.9036V69.9739H62.2358V62.7052ZM74.7756 43.8323V50.2083H62.1078V43.8323H74.7756ZM62.2358 72.5243H74.9036V78.9002H62.2358V72.5243ZM46.1131 61.6851V69.0812H33.4453V61.8126H46.1131V61.6851ZM33.4453 71.6316H46.1131V78.9002H33.4453V71.6316Z" fill="url(#paint3_linear)"/>
<defs>
<linearGradient id="paint0_linear" x1="68.5057" y1="28.2749" x2="69" y2="112" gradientUnits="userSpaceOnUse">
<stop stop-color="#4D71EE"/>
<stop offset="1" stop-color="#4DC7EE"/>
</linearGradient>
<linearGradient id="paint1_linear" x1="68.5057" y1="28.2749" x2="69" y2="112" gradientUnits="userSpaceOnUse">
<stop stop-color="#4D71EE"/>
<stop offset="1" stop-color="#4DC7EE"/>
</linearGradient>
<linearGradient id="paint2_linear" x1="68.5057" y1="28.2749" x2="69" y2="112" gradientUnits="userSpaceOnUse">
<stop stop-color="#4D71EE"/>
<stop offset="1" stop-color="#4DC7EE"/>
</linearGradient>
<linearGradient id="paint3_linear" x1="68.5057" y1="28.2749" x2="69" y2="112" gradientUnits="userSpaceOnUse">
<stop stop-color="#4D71EE"/>
<stop offset="1" stop-color="#4DC7EE"/>
</linearGradient>
</defs>
</svg>
