<svg width="109" height="117" viewBox="0 0 109 117" fill="none" xmlns="http://www.w3.org/2000/svg">
<circle opacity="0.07" cx="42" cy="42" r="42" fill="#8EA8FF"/>
<path d="M102.922 105.29L96.7897 101.959C94.5284 100.732 93.125 98.3768 93.125 95.8134V90.219L99.1944 84.7254C105.167 79.32 108.594 71.6102 108.594 63.5742C108.594 47.8102 95.7125 34.9862 79.8795 34.9862L70.7966 34.9904C70.7923 34.9904 70.7895 34.9904 70.7867 34.9904C68.0248 34.9904 65.6286 33.1284 64.9564 30.46L64.6161 29.1006L62.1847 29.7096C55.5894 31.3574 50.9727 37.236 50.9614 44.0078C50.9544 47.9572 52.4956 51.6714 55.2983 54.4658C56.5105 55.6754 57.9041 56.633 59.4059 57.3484C58.4722 58.9892 57.9687 60.8582 57.9687 62.7608V65.8856C57.9687 67.4074 57.5525 68.9026 56.7678 70.2074L53.3872 75.8172L54.9875 77.4104C56.1786 78.5962 57.7269 79.3872 59.3764 79.677V81.2002C59.3764 82.7444 60.6378 84.0002 62.1889 84.0002H66.3669C66.1798 85.0782 65.3741 85.9644 64.2772 86.2374L62.9145 86.5776C61.6573 86.8884 60.7812 88.0056 60.7812 89.2936C60.7812 93.3228 64.0733 96.6002 68.1205 96.6002C69.9134 96.6002 71.6966 96.351 73.4192 95.861L73.4375 95.8554V98.7394C73.4375 100.341 72.5431 101.78 71.1059 102.496L61.1145 107.47C58.3062 108.867 56.5625 111.677 56.5625 114.8V116.2H108.594V114.8C108.594 110.833 106.421 107.188 102.922 105.29ZM104.527 113.4H90.1606C91.7919 111.635 94.1023 110.6 96.6012 110.6H98.0876C100.585 110.6 102.896 111.635 104.527 113.4ZM53.7753 44.012C53.7851 38.5898 57.4372 33.8732 62.6811 32.4732C64.0522 35.6638 67.212 37.7904 70.7881 37.7904C70.7923 37.7904 70.7966 37.7904 70.8008 37.7904L79.8809 37.7862C94.1614 37.7862 105.781 49.3544 105.781 63.5742C105.781 70.8234 102.692 77.7786 97.303 82.6548L92.1462 87.321L89.2831 81.6188L91.422 80.0214C93.3683 78.5682 94.5312 76.2526 94.5312 73.8292C94.5312 72.9934 94.3962 72.1702 94.1333 71.382L93.8998 70.6862C93.2009 68.6016 91.2477 67.2002 89.0398 67.2002C88.3438 67.2002 87.6687 67.3374 87.0458 67.5992L86.7856 66.307C86.2597 63.6904 84.9814 61.3132 83.0183 59.3588C80.8639 57.214 78.1372 55.8546 75.1362 55.4276L72.5867 55.065C73.0241 54.2796 73.3166 53.4102 73.4052 52.4834C73.595 50.5136 72.9397 48.548 71.6108 47.092C70.2805 45.636 68.382 44.8002 66.4062 44.8002V47.6002C67.5931 47.6002 68.7308 48.1014 69.5295 48.9764C70.3381 49.8626 70.722 51.0134 70.6067 52.2174C70.4014 54.3384 68.4509 56.0002 66.1644 56.0002H65.7959C62.5812 56.0002 59.5592 54.7528 57.2881 52.4876C55.017 50.2224 53.7697 47.2124 53.7753 44.012ZM80.8541 93.7456L80.082 91.0534L72.6458 93.1688C71.1748 93.5874 69.6533 93.8002 68.1205 93.8002C65.6258 93.8002 63.5937 91.7786 63.5951 89.2936L64.9578 88.9534C67.4666 88.3304 69.2187 86.096 69.2187 83.5214V81.2002H62.1875V77.0002H60.7812C59.3637 77.0002 57.9772 76.4276 56.9745 75.4308L56.9267 75.3832L59.1795 71.648C60.2286 69.9078 60.7826 67.9156 60.7826 65.8856V62.7608C60.7826 61.1816 61.272 59.6472 62.1298 58.3298C63.3153 58.6294 64.5416 58.8002 65.7959 58.8002H66.1644C67.6662 58.8002 69.0669 58.3326 70.2411 57.5598L74.7383 58.1996C77.1345 58.5398 79.31 59.6262 81.1002 61.4084C82.5978 62.8994 83.6103 64.7838 84.028 66.8558L85.2289 72.8394L87.4044 70.6736C87.8417 70.2396 88.4225 70.0002 89.0398 70.0002C90.0355 70.0002 90.9172 70.633 91.2322 71.5724L91.4656 72.2682C91.633 72.7708 91.7187 73.2958 91.7187 73.8292C91.7187 75.3762 90.9776 76.8546 89.7345 77.7828L85.7183 80.7816L90.3125 89.9306V95.8134C90.3125 97.604 90.8019 99.3218 91.685 100.807L88.6756 102.519C85.8223 104.142 82.5767 105 79.2903 105C77.5437 105 75.9462 104.037 75.118 102.545C75.8408 101.434 76.25 100.125 76.25 98.7394V95.056L80.8541 93.7456ZM62.3717 109.974L72.3631 105C72.6205 104.871 72.8623 104.723 73.0986 104.568C74.495 106.547 76.79 107.8 79.2903 107.8C83.0661 107.8 86.7926 106.815 90.0706 104.95L93.4878 103.005C94.0742 103.544 94.7225 104.026 95.4425 104.416L101.575 107.747C102.245 108.111 102.838 108.567 103.365 109.085C101.765 108.269 99.9734 107.8 98.0862 107.8H96.5998C92.4894 107.8 88.7881 109.935 86.6998 113.4H59.5578C59.9501 111.929 60.9556 110.679 62.3717 109.974Z" fill="url(#paint0_linear)"/>
<path d="M24.2188 74.2001C24.2188 70.3403 27.373 67.2001 31.25 67.2001C33.5759 67.2001 35.4688 69.0845 35.4688 71.4001C35.4688 73.7157 33.5759 75.6001 31.25 75.6001H29.8438V78.4001H31.25C35.127 78.4001 38.2812 75.2599 38.2812 71.4001C38.2812 67.5403 35.127 64.4001 31.25 64.4001C25.8233 64.4001 21.4062 68.7961 21.4062 74.2001C21.4062 79.6041 25.8233 84.0001 31.25 84.0001H53.75V81.2001H31.25C27.373 81.2001 24.2188 78.0599 24.2188 74.2001Z" fill="url(#paint1_linear)"/>
<path d="M29.8438 93.8001C29.8438 97.6599 32.998 100.8 36.875 100.8C39.2009 100.8 41.0938 98.9157 41.0938 96.6001C41.0938 94.2845 39.2009 92.4001 36.875 92.4001H35.4688V95.2001H36.875C37.6512 95.2001 38.2812 95.8287 38.2812 96.6001C38.2812 97.3715 37.6512 98.0001 36.875 98.0001C34.5491 98.0001 32.6562 96.1157 32.6562 93.8001C32.6562 91.4845 34.5491 89.6001 36.875 89.6001H53.75V86.8001H36.875C32.998 86.8001 29.8438 89.9403 29.8438 93.8001Z" fill="url(#paint2_linear)"/>
<defs>
<linearGradient id="paint0_linear" x1="65" y1="29" x2="67" y2="116" gradientUnits="userSpaceOnUse">
<stop stop-color="#4D71EE"/>
<stop offset="1" stop-color="#4DC7EE"/>
</linearGradient>
<linearGradient id="paint1_linear" x1="65" y1="29" x2="67" y2="116" gradientUnits="userSpaceOnUse">
<stop stop-color="#4D71EE"/>
<stop offset="1" stop-color="#4DC7EE"/>
</linearGradient>
<linearGradient id="paint2_linear" x1="65" y1="29" x2="67" y2="116" gradientUnits="userSpaceOnUse">
<stop stop-color="#4D71EE"/>
<stop offset="1" stop-color="#4DC7EE"/>
</linearGradient>
</defs>
</svg>
