<svg width="72" height="55" viewBox="0 0 72 55" fill="none" xmlns="http://www.w3.org/2000/svg">
<g clip-path="url(#clip0)">
<path d="M37.6976 0.441406C24.1866 0.441406 13.1919 11.3987 13.1919 24.8614C13.1919 26.2489 13.3147 27.6064 13.539 28.9314H11.1476C8.42322 28.9314 8.42322 33.0034 11.1476 33.0034H14.598C15.1036 34.4229 15.7386 35.7798 16.4868 37.0654H7.06301C4.33861 37.0654 4.33861 41.1375 7.06301 41.1375H19.4505C20.8425 42.6852 22.4285 44.0532 24.1713 45.2074H2.9784C2.70999 45.2073 2.44419 45.2599 2.19619 45.3622C1.94818 45.4645 1.72282 45.6144 1.53299 45.8035C1.34316 45.9925 1.19257 46.217 1.08983 46.4641C0.987085 46.7112 0.934204 46.976 0.934204 47.2435C0.934204 47.5109 0.987085 47.7757 1.08983 48.0228C1.19257 48.2698 1.34316 48.4943 1.53299 48.6834C1.72282 48.8725 1.94818 49.0224 2.19619 49.1247C2.44419 49.2269 2.70999 49.2796 2.9784 49.2795H37.6976C51.2087 49.2795 62.2033 38.3241 62.2033 24.8614C62.2033 11.3987 51.2087 0.441406 37.6976 0.441406ZM37.6976 4.51335C49.0012 4.51335 58.1187 13.5983 58.1187 24.8614C58.1187 36.1245 49.0012 45.2074 37.6976 45.2074C26.3941 45.2074 17.2686 36.1245 17.2686 24.8614C17.2686 13.5983 26.3941 4.51335 37.6976 4.51335Z" fill="url(#paint0_linear)"/>
<path d="M37.6674 8.55394C37.1269 8.56178 36.6115 8.78279 36.2342 9.16856C35.857 9.55432 35.6486 10.0734 35.6547 10.612V23.7038L26.4357 29.2169C26.1986 29.3505 25.9907 29.5301 25.8243 29.7449C25.6579 29.9597 25.5363 30.2056 25.4666 30.468C25.3969 30.7303 25.3807 31.004 25.4187 31.2727C25.4567 31.5414 25.5483 31.7999 25.6881 32.0328C25.8279 32.2658 26.013 32.4684 26.2325 32.629C26.4521 32.7896 26.7017 32.9049 26.9666 32.968C27.2315 33.031 27.5064 33.0406 27.7751 32.9963C28.0438 32.9519 28.3009 32.8544 28.5313 32.7095L38.7453 26.603C39.048 26.4229 39.2987 26.1677 39.4731 25.8624C39.6475 25.557 39.7395 25.2118 39.7403 24.8605V10.612C39.7434 10.3402 39.6919 10.0707 39.5887 9.81908C39.4855 9.56751 39.3328 9.33902 39.1396 9.1472C38.9464 8.95537 38.7166 8.80406 38.4637 8.70217C38.2109 8.60027 37.9401 8.54987 37.6674 8.55394Z" fill="url(#paint1_linear)"/>
<path d="M70.5 40.7004C70.5 47.7598 64.7343 53.5004 57.6 53.5004C50.4656 53.5004 44.7 47.7598 44.7 40.7004C44.7 33.641 50.4656 27.9004 57.6 27.9004C64.7343 27.9004 70.5 33.641 70.5 40.7004Z" fill="white" stroke="url(#paint2_linear)" stroke-width="3"/>
<path d="M55.2859 36.6996V45.0996H52.4539V38.8356H51.0139V36.6996H55.2859ZM60.1215 45.2916C59.3775 45.2916 58.7175 45.1196 58.1415 44.7756C57.5735 44.4236 57.1255 43.9196 56.7975 43.2636C56.4775 42.5996 56.3175 41.8116 56.3175 40.8996C56.3175 39.9876 56.4775 39.2036 56.7975 38.5476C57.1255 37.8836 57.5735 37.3796 58.1415 37.0356C58.7175 36.6836 59.3775 36.5076 60.1215 36.5076C60.8655 36.5076 61.5215 36.6836 62.0895 37.0356C62.6655 37.3796 63.1135 37.8836 63.4335 38.5476C63.7615 39.2036 63.9255 39.9876 63.9255 40.8996C63.9255 41.8116 63.7615 42.5996 63.4335 43.2636C63.1135 43.9196 62.6655 44.4236 62.0895 44.7756C61.5215 45.1196 60.8655 45.2916 60.1215 45.2916ZM60.1215 43.0236C60.7615 43.0236 61.0815 42.3156 61.0815 40.8996C61.0815 39.4836 60.7615 38.7756 60.1215 38.7756C59.4815 38.7756 59.1615 39.4836 59.1615 40.8996C59.1615 42.3156 59.4815 43.0236 60.1215 43.0236Z" fill="url(#paint3_linear)"/>
</g>
<defs>
<linearGradient id="paint0_linear" x1="31.5688" y1="0.441406" x2="31.5688" y2="49.2795" gradientUnits="userSpaceOnUse">
<stop stop-color="#4D72EE"/>
<stop offset="0.854167" stop-color="#4DC6EE"/>
</linearGradient>
<linearGradient id="paint1_linear" x1="32.5696" y1="8.55371" x2="32.5696" y2="33.0237" gradientUnits="userSpaceOnUse">
<stop stop-color="#4D72EE"/>
<stop offset="0.854167" stop-color="#4DC6EE"/>
</linearGradient>
<linearGradient id="paint2_linear" x1="57.6" y1="26.4004" x2="57.6" y2="55.0004" gradientUnits="userSpaceOnUse">
<stop stop-color="#4D72EE"/>
<stop offset="0.854167" stop-color="#4DC6EE"/>
</linearGradient>
<linearGradient id="paint3_linear" x1="58.1539" y1="25.0996" x2="58.1539" y2="60.2996" gradientUnits="userSpaceOnUse">
<stop stop-color="#4D72EE"/>
<stop offset="0.854167" stop-color="#4DC6EE"/>
</linearGradient>
<clipPath id="clip0">
<rect width="72" height="55" fill="white"/>
</clipPath>
</defs>
</svg>
