<svg width="236" height="203" viewBox="0 0 236 203" fill="none" xmlns="http://www.w3.org/2000/svg">
<g filter="url(#filter0_d)">
<path d="M130.487 93.5356C129.126 93.5356 127.794 94.0849 126.832 95.0433L120.608 101.242C119.645 102.2 119.094 103.526 119.094 104.882C119.094 107.721 121.413 110.03 124.263 110.03C125.624 110.03 126.956 109.481 127.918 108.523L134.142 102.324C135.105 101.366 135.656 100.039 135.656 98.6836C135.656 95.8449 133.337 93.5356 130.487 93.5356ZM124.263 106.731C123.239 106.731 122.406 105.902 122.406 104.882C122.406 104.396 122.603 103.919 122.949 103.574L124.891 101.641L127.517 104.257L125.576 106.19C125.23 106.535 124.752 106.731 124.263 106.731ZM131.801 99.9916L129.859 101.925L127.233 99.3088L129.174 97.3756C129.52 97.0309 129.998 96.8346 130.487 96.8346C131.511 96.8346 132.344 97.6642 132.344 98.6836C132.344 99.1702 132.147 99.6469 131.801 99.9916Z" fill="#F67B92"/>
<path d="M180.375 110.03C177.636 110.03 175.406 112.25 175.406 114.978C175.406 115.741 175.593 116.453 175.905 117.098L144.138 148.735C143.575 149.296 142.795 149.617 141.996 149.617C140.327 149.617 138.969 148.265 138.969 146.602C138.969 145.809 139.292 145.03 139.855 144.469L168.581 115.861C169.778 114.668 170.438 113.083 170.438 111.396C170.438 107.915 167.592 105.082 164.097 105.082C162.405 105.082 160.811 105.738 159.614 106.931L124.263 142.137C123.7 142.698 122.92 143.019 122.121 143.019C120.452 143.019 119.094 141.667 119.094 140.004C119.094 139.211 119.417 138.432 119.98 137.871L133.8 124.108C134.997 122.916 135.656 121.331 135.656 119.643C135.656 116.78 133.718 114.381 131.09 113.611L149.744 95.0331L162.479 92.0493C172.041 89.8077 178.719 81.4102 178.719 71.6289C178.719 60.0612 169.268 50.6494 157.653 50.6494C147.831 50.6494 139.399 57.3 137.147 66.8224L134.151 79.5051L86.9393 126.525L89.0427 128.62L85.7153 138.558L86.9559 139.704L84.5129 142.137C83.3154 143.329 82.6562 144.915 82.6562 146.602C82.6562 150.082 85.5017 152.916 88.9964 152.916C90.6891 152.916 92.2824 152.26 93.4798 151.067L102.531 142.053L127.175 117.51C127.738 116.95 128.518 116.628 129.316 116.628C130.986 116.628 132.344 117.98 132.344 119.643C132.344 120.437 132.021 121.215 131.458 121.776L117.638 135.539C116.44 136.732 115.781 138.317 115.781 140.004C115.781 143.484 118.627 146.318 122.121 146.318C123.814 146.318 125.407 145.662 126.605 144.469L161.956 109.263C162.519 108.702 163.299 108.381 164.097 108.381C165.767 108.381 167.125 109.733 167.125 111.396C167.125 112.189 166.802 112.968 166.239 113.529L137.513 142.137C136.315 143.329 135.656 144.915 135.656 146.602C135.656 150.082 138.502 152.916 141.996 152.916C143.689 152.916 145.282 152.26 146.48 151.067L178.247 119.43C178.894 119.74 179.61 119.927 180.375 119.927C183.114 119.927 185.344 117.707 185.344 114.978C185.344 112.25 183.114 110.03 180.375 110.03ZM161.719 88.8378L149.425 91.7194L137.48 79.8235L140.373 67.5795C140.676 66.2946 141.129 65.0789 141.682 63.9309L165.383 87.5347C164.23 88.0873 163.011 88.5359 161.719 88.8378ZM168.306 85.7813L143.442 61.0196C144.189 60.0233 145.041 59.1194 145.973 58.3079L171.027 83.2593C170.212 84.1879 169.306 85.0374 168.306 85.7813ZM175.406 71.6289C175.406 74.8652 174.528 77.915 172.988 80.5476L148.698 56.3566C151.343 54.8226 154.403 53.9483 157.653 53.9483C167.441 53.9483 175.406 61.8806 175.406 71.6289ZM135.656 82.6721L146.564 93.5354L143.938 96.1515L133.029 85.2881L135.656 82.6721ZM97.7927 137.334L91.4741 139.377L89.533 137.584L91.6596 131.227L97.7927 137.334ZM91.1379 148.735C90.5748 149.296 89.7947 149.617 88.9964 149.617C87.3269 149.617 85.9688 148.265 85.9688 146.602C85.9688 145.809 86.2917 145.03 86.8548 144.469L89.3873 141.947L90.651 143.113L99.7338 140.174L91.1379 148.735ZM91.6232 126.525L94.25 123.909L105.158 134.772L102.531 137.388L91.6232 126.525ZM107.5 132.44L96.5919 121.576L130.688 87.6205L141.596 98.4838L124.833 115.178L107.5 132.44ZM180.375 116.628C179.461 116.628 178.719 115.889 178.719 114.978C178.719 114.068 179.461 113.329 180.375 113.329C181.289 113.329 182.031 114.068 182.031 114.978C182.031 115.889 181.289 116.628 180.375 116.628Z" fill="#F67B92"/>
<path d="M108.276 63.48C104.816 63.48 102 60.6807 102 57.24C102 53.7993 104.816 51 108.276 51C111.737 51 114.553 53.7993 114.553 57.24C114.553 60.6807 111.737 63.48 108.276 63.48ZM108.276 54.12C106.546 54.12 105.138 55.5196 105.138 57.24C105.138 58.9604 106.546 60.36 108.276 60.36C110.007 60.36 111.414 58.9604 111.414 57.24C111.414 55.5196 110.007 54.12 108.276 54.12Z" fill="#F67B92"/>
<path d="M56 94C52.6916 94 50 91.3084 50 88C50 84.6916 52.6916 82 56 82C59.3084 82 62 84.6916 62 88C62 91.3084 59.3084 94 56 94ZM56 85C54.3458 85 53 86.3458 53 88C53 89.6542 54.3458 91 56 91C57.6542 91 59 89.6542 59 88C59 86.3458 57.6542 85 56 85Z" fill="#F67B92"/>
</g>
<defs>
<filter id="filter0_d" x="0" y="0.649414" width="235.344" height="202.267" filterUnits="userSpaceOnUse" color-interpolation-filters="sRGB">
<feFlood flood-opacity="0" result="BackgroundImageFix"/>
<feColorMatrix in="SourceAlpha" type="matrix" values="0 0 0 0 0 0 0 0 0 0 0 0 0 0 0 0 0 0 127 0"/>
<feOffset/>
<feGaussianBlur stdDeviation="25"/>
<feColorMatrix type="matrix" values="0 0 0 0 0.992157 0 0 0 0 0.368627 0 0 0 0 0.352941 0 0 0 0.5 0"/>
<feBlend mode="normal" in2="BackgroundImageFix" result="effect1_dropShadow"/>
<feBlend mode="normal" in="SourceGraphic" in2="effect1_dropShadow" result="shape"/>
</filter>
</defs>
</svg>
